<svg xmlns="http://www.w3.org/2000/svg" viewBox="0 0 288.16 338.1"><defs><style>.cls-1{fill:#494948;}</style></defs><g id="未来_标志" data-name="未来+标志"><path class="cls-1" d="M64.62,255a7.31,7.31,0,0,0,.72,1.51,33.56,33.56,0,0,0-3.42,3.08,5.24,5.24,0,0,0-1-1.2,2.55,2.55,0,0,0,.9-1.84V252H60v-1.74h3.54v5.63Zm-1.51-5.64a19.11,19.11,0,0,0-2.37-2.46l1.18-1.1a26.38,26.38,0,0,1,2.44,2.31Zm9.32,2.57v1.28h1.74v1.65H72.43v3c0,.91-.17,1.36-.78,1.63a6.48,6.48,0,0,1-2.55.29,6.61,6.61,0,0,0-.57-1.71c.75,0,1.56,0,1.79,0s.32-.05.32-.26v-3h-3.3a11,11,0,0,1,1.7,2.49l-1.56.85a12.68,12.68,0,0,0-1.67-2.67l1.29-.67H64.84v-1.65h5.8v-1.28H64.55v-1.65h4V249h-3V247.3h3v-1.67h1.79v1.67H73.6V249H70.38v1.33h3.91v1.65Z"/><path class="cls-1" d="M82.26,258.55a7.56,7.56,0,0,0,1.9-2.59l1.51.67a9.42,9.42,0,0,1-1.9,2.81Zm13.64-8.26H82.69v-1.4h3.19a5.89,5.89,0,0,0-.3-.84l1.14-.23H83.44v-1.41h5c-.08-.24-.17-.5-.26-.71l1.77-.33a6.91,6.91,0,0,1,.44,1h4.75v1.41H92l1.22.21c-.18.31-.33.6-.49.86H95.9Zm-1.65,5.21H89.58a11.47,11.47,0,0,1,1.6,1l-1.11,1.11a11.15,11.15,0,0,0-2.4-1.51l.62-.61H84.42v-4.66h9.83Zm-3.54,2.7c.56,0,.65-.17.73-1.23a5.51,5.51,0,0,0,1.54.56c-.2,1.7-.68,2.12-2.1,2.12H88.42c-1.93,0-2.4-.44-2.4-1.88v-1.6h1.77v1.59c0,.4.12.44.81.44ZM92.45,252H86.13v.66h6.32Zm0,1.73H86.13v.65h6.32Zm-5.16-5.88a7.17,7.17,0,0,1,.42,1.07h3.12c.15-.35.32-.75.43-1.07Zm6.91,8a12.19,12.19,0,0,1,1.87,2.7l-1.58.71a11.12,11.12,0,0,0-1.75-2.77Z"/><path class="cls-1" d="M107.92,250.63c.41.55,1.46,2.21,1.71,2.61l-1,1.21c-.15-.4-.4-1-.67-1.53v6.89h-1.6v-6a13.72,13.72,0,0,1-1.38,3.19,11.1,11.1,0,0,0-.85-1.82,14.7,14.7,0,0,0,2.06-5.08h-1.74V248.4h1.91v-2.86h1.6v2.86h1.3v1.68h-1.3Zm7.82-2.75v1.48h2.43v10.38h-1.65v-.85h-5.13v.89h-1.56V249.36H112v-1.48h-2.44V246.2h8.84v1.68Zm.78,9.39V255h-1.06c-1,0-1.28-.35-1.28-1.6V251h-.64v.82A5,5,0,0,1,112,255.7a7.37,7.37,0,0,0-.59-.69v2.26ZM111.39,251v3.45a3.68,3.68,0,0,0,.88-2.66V251Zm2.82-3.07h-.7v1.48h.7Zm2.31,3.07h-1.07v2.37c0,.3,0,.35.23.35h.55c.18,0,.23,0,.26-.09l0,0Z"/><path class="cls-1" d="M135.87,253.44v1.25h3.46v5.13h-1.81v-.44h-5.18v.46H130.6v-5.15h3.45v-1.25h-4.29a14,14,0,0,1-1.82,6.44,7.45,7.45,0,0,0-1.62-1c1.57-2.31,1.71-5.71,1.71-8.14v-4.47h11.53v4.21h-3.69v1.3h4.44v1.62Zm-1.82-1.62v-1.3h-4.19v.26c0,.32,0,.67,0,1Zm-4.19-3.93v1h7.85v-1Zm7.66,8.39h-5.18v1.51h5.18Z"/><path class="cls-1" d="M162.45,247.91s0,.61,0,.82c-.2,6.83-.37,9.26-1,10.07a2.08,2.08,0,0,1-1.47.84,18.3,18.3,0,0,1-2.4,0,4.22,4.22,0,0,0-.59-1.77c1,.09,1.88.09,2.27.09a.79.79,0,0,0,.67-.26c.45-.49.65-2.78.81-8.17h-3.26a12.61,12.61,0,0,1-1.35,2.41,10.26,10.26,0,0,0-1.17-.85v7.13h-4.08v1.11h-1.65V248H151a16.21,16.21,0,0,0,.45-2.46l2,.27c-.26.77-.53,1.53-.79,2.19H155v2.47a16.06,16.06,0,0,0,2.06-4.92l1.74.4c-.17.66-.37,1.3-.6,1.94Zm-9.14,1.69h-2.43v2.48h2.43Zm0,7v-3h-2.43v3Zm5.07-.82a33.11,33.11,0,0,0-2.13-3.53l1.42-.81a36.59,36.59,0,0,1,2.25,3.39Z"/><path class="cls-1" d="M184.63,246.63v1.62h-3.09V249h-1.81v-.71h-3.84V249h-1.78v-.71h-3v-1.62h3v-1.06h1.78v1.06h3.84v-1.06h1.81v1.06Zm-13.2,2.65h13v3.15h-1.76v-1.77H173.1v1.77h-1.67Zm1.18,5.84h10.66v4.73h-1.82v-.43h-7.1v.43h-1.74Zm9.3-3.87v3.32h-8v-3.32Zm-7.56,5.44v1.25h7.1v-1.25Zm5.76-4.23h-4.52v.92h4.52Z"/><path class="cls-1" d="M196.51,256.8c.23.13.5.35.89.58a8,8,0,0,0,3.89.61,48.64,48.64,0,0,0,6-.37,6.74,6.74,0,0,0-.49,1.79c-1.36.09-3.94.17-5.59.17a7.85,7.85,0,0,1-4-.72c-.56-.32-1-.72-1.31-.72-.44,0-1.19.83-1.86,1.68L193,258.23a7.39,7.39,0,0,1,1.82-1.28V253.1H193v-1.68h3.47Zm-1.14-7.26a14.32,14.32,0,0,0-2.26-2.5l1.34-1a13.06,13.06,0,0,1,2.35,2.36Zm3.89-.71a7.05,7.05,0,0,1-.83,1.28,9.27,9.27,0,0,0-1.52-.84,8.9,8.9,0,0,0,1.77-3.56l1.68.38c-.11.41-.25.8-.38,1.19h1.2v-1.71H203v1.71h3.31v1.55H203v1.28h3.94v1.53h-9.82v-1.53h4.07v-1.28ZM198.19,257v-4.43h7.67V257Zm1.7-1.45h4.16V254h-4.16Z"/><path class="cls-1" d="M229,255.84H223v2c0,.95-.23,1.41-.93,1.66a9,9,0,0,1-3,.29,7.06,7.06,0,0,0-.75-1.75c1,0,2.11,0,2.42,0s.39-.08.39-.28v-1.9h-5.81v-1.68h5.81v-.95a11.33,11.33,0,0,0,1.73-.89h-4.81v-1.57H225l.36-.09,1.16.9a14.91,14.91,0,0,1-3.46,2.31v.29H229Zm-11.69-4.52h-1.72V248h2.34a11.65,11.65,0,0,0-1.07-1.59l1.54-.68a9,9,0,0,1,1.41,2l-.58.27h2.56a10,10,0,0,0-1-1.95l1.61-.6a8.76,8.76,0,0,1,1.2,2.2l-.9.35h2a16.59,16.59,0,0,0,1.31-2.31l1.89.57c-.41.6-.87,1.19-1.29,1.74h2.23v3.35H227v-1.75h-9.74Z"/><path class="cls-1" d="M174.47,169V114.52H120V60H60V229H229V169Zm-59.94,54.5h-49v-158h49Zm54.49,0H120V120h49Zm54.49,0h-49v-49h49Z"/><polygon class="cls-1" points="196.26 212.6 201.71 212.6 201.71 201.71 212.61 201.71 212.61 196.26 201.71 196.26 201.71 185.36 196.26 185.36 196.26 196.26 185.37 196.26 185.37 201.71 196.26 201.71 196.26 212.6"/><polygon class="cls-1" points="85.93 89.47 97.92 89.47 97.92 84.02 85.93 84.02 85.93 81.84 99.55 81.84 99.55 76.39 80.48 76.39 80.48 84.02 80.48 89.47 80.48 94.37 85.93 94.37 85.93 89.47"/><polygon class="cls-1" points="87.28 141.21 92.73 141.21 92.73 128.7 99.55 128.7 99.55 123.25 92.73 123.25 87.28 123.25 80.47 123.25 80.47 128.7 87.28 128.7 87.28 141.21"/><polygon class="cls-1" points="80.46 200.38 80.46 205.82 80.46 212.63 99.53 212.63 99.53 207.18 85.91 207.18 85.91 205.82 96.81 205.82 96.81 200.38 85.91 200.38 85.91 199.01 99.53 199.01 99.53 193.56 80.46 193.56 80.46 200.38"/><path class="cls-1" d="M94.11,99.82v9c0,2.44-2.12,3.55-4.08,3.55s-4.09-1.11-4.09-3.55v-9H80.48v9c0,5.13,4.1,9,9.54,9s9.53-3.86,9.53-9v-9Z"/><path class="cls-1" d="M80.48,146.67v9c0,5.12,4.1,9,9.54,9s9.53-3.86,9.53-9v-9H94.11v9c0,2.43-2.12,3.54-4.08,3.54s-4.09-1.11-4.09-3.54v-9Z"/><path class="cls-1" d="M80.46,178.31v9.81h5.45v-4.36h6.71l2,4.36h5.45l-2.66-5.78a6.8,6.8,0,0,0-4.14-12.2H80.46v8.17Zm5.45-2.72h7.36a1.37,1.37,0,0,1,0,2.73H85.91Z"/><polygon class="cls-1" points="141.77 159.47 147.22 159.47 147.22 147.22 158.12 147.22 158.12 141.77 147.22 141.77 147.22 139.05 156.75 139.05 156.75 133.6 147.22 133.6 147.22 130.87 141.77 130.87 141.77 133.6 132.23 133.6 132.23 139.05 141.77 139.05 141.77 141.77 130.87 141.77 130.87 147.22 141.77 147.22 141.77 159.47"/><polygon class="cls-1" points="141.77 212.61 147.22 212.61 147.22 200.34 158.12 200.34 158.12 194.89 147.22 194.89 147.22 190.81 156.75 190.81 156.75 185.36 147.22 185.36 147.22 184 141.77 184 141.77 185.36 132.23 185.36 132.23 190.81 141.77 190.81 141.77 194.89 130.87 194.89 130.87 200.34 141.77 200.34 141.77 212.61"/><polygon class="cls-1" points="149.95 194.88 155.4 194.88 156.76 192.16 151.31 192.16 149.95 194.88"/><polygon class="cls-1" points="137.69 192.15 132.24 192.15 133.61 194.88 139.06 194.88 137.69 192.15"/><path class="cls-1" d="M148.59,148.19v6.63a43.72,43.72,0,0,0,9.53,4.41v-5.81a38.35,38.35,0,0,1-9.45-5.17Z"/><path class="cls-1" d="M130.87,159.23a43.58,43.58,0,0,0,9.54-4.41v-6.63l-.08.06a38.23,38.23,0,0,1-9.46,5.17Z"/><path class="cls-1" d="M148.59,201.32V208a44.22,44.22,0,0,0,9.53,4.42v-5.82a38.35,38.35,0,0,1-9.45-5.17Z"/><path class="cls-1" d="M130.87,206.56v5.81a44,44,0,0,0,9.54-4.41v-6.64l-.08.06A38.59,38.59,0,0,1,130.87,206.56Z"/><path class="cls-1" d="M60,267.8h2.27l1.74,4.8c.23.64.42,1.32.63,2h.07c.22-.65.4-1.33.62-2l1.7-4.8h2.27v10.25H67.47v-4.27c0-1,.15-2.4.26-3.36h-.06l-.83,2.4-1.58,4.31H64.08l-1.59-4.31-.82-2.4h-.05c.1,1,.26,2.39.26,3.36v4.27H60Z"/><path class="cls-1" d="M74.24,267.8h2.41l3.29,10.25H77.79l-.72-2.63H73.75L73,278.05H71Zm0,6h2.43l-.3-1.12c-.32-1.06-.6-2.24-.89-3.35h-.07c-.26,1.12-.56,2.29-.87,3.35Z"/><path class="cls-1" d="M81.56,267.8h2v4.46h0L87,267.8h2.25l-3.12,4,3.68,6.21H87.6L85,273.45l-1.34,1.73v2.87h-2Z"/><path class="cls-1" d="M91.47,267.8h2v10.25h-2Z"/><path class="cls-1" d="M96.45,267.8h2.09l3,5.47,1,2.21h.07c-.09-1.07-.26-2.42-.26-3.58v-4.1h1.94v10.25H102.2l-3-5.48-1-2.2h-.07c.1,1.11.25,2.4.25,3.57v4.11H96.45Z"/><path class="cls-1" d="M106.71,273c0-3.38,2.19-5.36,4.92-5.36a4.28,4.28,0,0,1,3.16,1.32l-1.07,1.3a2.76,2.76,0,0,0-2-.86c-1.7,0-2.89,1.33-2.89,3.53s1,3.57,3,3.57a2,2,0,0,0,1.27-.39v-2h-1.81v-1.68H115V277a4.88,4.88,0,0,1-3.32,1.23C108.84,278.25,106.71,276.39,106.71,273Z"/><path class="cls-1" d="M121.12,267.8h3.36c2.27,0,4,.8,4,3.22s-1.75,3.39-4,3.39h-1.37v3.64h-2Zm3.28,5c1.41,0,2.09-.6,2.09-1.78s-.75-1.59-2.16-1.59h-1.16v3.37Z"/><path class="cls-1" d="M130.25,272.89c0-3.33,1.87-5.27,4.58-5.27s4.58,1.95,4.58,5.27-1.87,5.36-4.58,5.36S130.25,276.21,130.25,272.89Zm7.07,0c0-2.2-1-3.51-2.49-3.51s-2.49,1.31-2.49,3.51,1,3.59,2.49,3.59S137.32,275.08,137.32,272.89Z"/><path class="cls-1" d="M141.83,267.8h6.28v1.72h-4.23v2.36h3.6v1.72h-3.6v2.74h4.39v1.71h-6.44Z"/><path class="cls-1" d="M152.79,269.52h-2.88V267.8h7.83v1.72h-2.9v8.53h-2.05Z"/><path class="cls-1" d="M159.82,267.8h2.05v10.25h-2.05Z"/><path class="cls-1" d="M164.29,273c0-3.38,2.17-5.36,4.76-5.36a4.14,4.14,0,0,1,3,1.32l-1.06,1.3a2.7,2.7,0,0,0-1.9-.86c-1.55,0-2.71,1.33-2.71,3.53s1.05,3.57,2.67,3.57a2.87,2.87,0,0,0,2.12-1l1.08,1.27a4.17,4.17,0,0,1-3.27,1.51C166.39,278.25,164.29,276.39,164.29,273Z"/><path class="cls-1" d="M177.86,267.8h2v4h3.88v-4h2v10.25h-2v-4.42h-3.88v4.42h-2Z"/><path class="cls-1" d="M190.72,267.8h2.41l3.29,10.25h-2.15l-.72-2.63h-3.32l-.72,2.63h-2.07Zm0,6h2.43l-.3-1.12c-.32-1.06-.6-2.24-.89-3.35h-.07c-.26,1.12-.56,2.29-.87,3.35Z"/><path class="cls-1" d="M198,267.8h3.39c2.1,0,3.71.62,3.71,2.53a2.34,2.34,0,0,1-1.4,2.22v.07a2.31,2.31,0,0,1,1.92,2.42c0,2.06-1.71,3-4,3H198Zm3.24,4.18c1.3,0,1.86-.53,1.86-1.34s-.61-1.26-1.84-1.26h-1.21V272Zm.23,4.5c1.4,0,2.16-.5,2.16-1.57s-.75-1.42-2.16-1.42h-1.42v3Z"/><path class="cls-1" d="M207.88,267.8h2v10.25h-2Z"/><path class="cls-1" d="M214.89,269.52H212V267.8h7.83v1.72h-2.9v8.53h-2.05Z"/><path class="cls-1" d="M223.26,267.8h2.41L229,278.05h-2.14l-.72-2.63h-3.32l-.72,2.63H220Zm0,6h2.44l-.31-1.12c-.32-1.06-.59-2.24-.88-3.35h-.07c-.27,1.12-.57,2.29-.87,3.35Z"/></g></svg>