<?xml version="1.0" encoding="utf-8"?>
<!-- Generator: Adobe Illustrator 25.0.1, SVG Export Plug-In . SVG Version: 6.00 Build 0)  -->
<svg version="1.1" id="Layer_1" xmlns="http://www.w3.org/2000/svg" xmlns:xlink="http://www.w3.org/1999/xlink" x="0px" y="0px"
	 viewBox="0 0 831 415" enable-background="new 0 0 831 415" xml:space="preserve">
<g id="g20" transform="translate(387.0742,291.3304)">
	<path id="path22" fill="#D2D3D3" d="M155.47-236.72l289.2,144.4v216.8h-71.9l-289.2-289.3v-71.9L155.47-236.72L155.47-236.72z"/>
</g>
<polygon fill="#FFFFFF" points="566.87,125.78 543.27,125.78 543.27,102.18 541.97,102.18 541.97,125.78 518.37,125.78 
	518.37,127.08 541.97,127.08 541.97,150.68 543.27,150.68 543.27,127.08 566.87,127.08 "/>
<g id="g16" transform="translate(333.1872,155.9052)">
	<path id="path18" fill="#8B807F" d="M-43.73,51.98l-289.2,144.4v63.5h225.2l136-136v-71.9H-43.73z"/>
</g>
<polygon fill="#FFFFFF" points="313.67,279.08 290.07,279.08 290.07,255.48 288.77,255.48 288.77,279.08 265.17,279.08 
	265.17,280.38 288.77,280.38 288.77,303.88 290.07,303.88 290.07,280.38 313.67,280.38 "/>
<path id="path847" fill="#4A4A49" d="M292.37,144.08c0.1,0.3,0.3,0.7,0.4,1c-1.7,1.5-2,1.7-2.2,1.9c-0.2-0.3-0.4-0.5-0.6-0.8
	c0.3-0.3,0.6-0.7,0.6-1.2v-2.9h-1.1v-1.1h2.2v3.6L292.37,144.08z M291.47,140.58c-0.5-0.6-0.9-1.1-1.5-1.6l0.7-0.7
	c0.5,0.4,1.1,0.9,1.5,1.5L291.47,140.58z M297.27,142.18v0.8h1.1v1h-1.1v1.9c0,0.6-0.1,0.9-0.5,1c-0.5,0.2-1.1,0.2-1.6,0.2
	c-0.1-0.4-0.2-0.7-0.4-1.1c0.5,0,1,0,1.1,0s0.2,0,0.2-0.2v-1.9h-2.1c0.4,0.5,0.8,1,1.1,1.6l-1,0.5c-0.3-0.6-0.6-1.2-1-1.7l0.8-0.4
	h-1.4v-1h3.7v-0.8h-3.8v-1h2.6v-0.8h-1.9v-1h1.9v-1.1h1.1v1.1h2v1h-2v0.8h2.5v1L297.27,142.18z"/>
<path id="path849" fill="#4A4A49" d="M303.47,146.38c0.5-0.5,0.9-1,1.2-1.6l1,0.4c-0.3,0.7-0.7,1.3-1.2,1.8L303.47,146.38z
	 M312.07,141.18h-8.3v-0.9h2c-0.1-0.2-0.1-0.4-0.2-0.5l0.7-0.1h-2v-0.9h3.1c0-0.2-0.1-0.3-0.2-0.4l1.1-0.2c0.1,0.2,0.2,0.4,0.3,0.7
	h3v0.9h-2l0.8,0.1c-0.1,0.2-0.2,0.4-0.3,0.5h2V141.18z M311.07,144.48h-2.9c0.4,0.2,0.7,0.4,1,0.6l-0.7,0.7c-0.5-0.4-1-0.7-1.5-1
	l0.4-0.4h-2.4v-2.9h6.2v3H311.07z M308.77,146.18c0.4,0,0.4-0.1,0.5-0.8c0.3,0.2,0.6,0.3,1,0.4c-0.1,1.1-0.4,1.3-1.3,1.3h-1.6
	c-1.2,0-1.5-0.3-1.5-1.2v-1h1.1v1c0,0.2,0.1,0.3,0.5,0.3H308.77z M309.87,142.18h-4v0.4h4V142.18z M309.87,143.28h-4v0.4h4V143.28z
	 M306.67,139.58c0.1,0.2,0.2,0.4,0.3,0.7h2c0.1-0.2,0.2-0.5,0.3-0.7H306.67z M310.97,144.68c0.5,0.5,0.9,1.1,1.2,1.7l-1,0.4
	c-0.3-0.6-0.7-1.2-1.1-1.7L310.97,144.68z"/>
<path id="path851" fill="#4A4A49" d="M319.67,141.38c0.3,0.3,0.9,1.4,1.1,1.6l-0.7,0.8c-0.1-0.3-0.2-0.6-0.4-1v4.3h-1v-3.8
	c-0.2,0.7-0.5,1.4-0.9,2c-0.1-0.4-0.3-0.8-0.5-1.1c0.6-1,1.1-2.1,1.3-3.2h-1.1v-1h1.2v-1.8h1v1.8h0.8v1h-0.8V141.38z M324.57,139.58
	v1h1.5v6.6h-1v-0.5h-3.2v0.5h-1v-6.6h1.4v-0.9h-1.5v-1.1h5.6v1.1L324.57,139.58z M325.07,145.58v-1.5h-0.7c-0.6,0-0.8-0.2-0.8-1
	v-1.5h-0.4v0.5c0.1,0.9-0.3,1.8-1,2.5c-0.1-0.2-0.2-0.3-0.4-0.4v1.4H325.07z M321.87,141.58v2.2c0.4-0.5,0.6-1.1,0.6-1.7v-0.5
	H321.87z M323.67,139.58h-0.4v1h0.4V139.58z M325.07,141.58h-0.7v1.5c0,0.2,0,0.2,0.1,0.2h0.3c0.1,0,0.1,0,0.2-0.1l0,0
	L325.07,141.58z"/>
<path id="path853" fill="#4A4A49" d="M337.27,143.18v0.8h2.2v3.2h-1.1v-0.3h-3.3v0.3h-1.1v-3.2h2.2v-0.8h-2.7
	c-0.1,1.4-0.4,3-1.1,4.1c-0.3-0.2-0.6-0.4-1-0.6c1-1.5,1.1-3.6,1.1-5.1v-2.8h7.3v2.7h-2.5v0.8h2.8v1L337.27,143.18z M336.17,142.08
	v-0.8h-2.6v0.1c0,0.2,0,0.4,0,0.7H336.17z M333.47,139.68v0.7h5v-0.7H333.47z M338.37,144.98h-3.3v1h3.3V144.98z"/>
<path id="path855" fill="#4A4A49" d="M354.07,139.68c0,0,0,0.4,0,0.5c-0.1,4.3-0.2,5.8-0.6,6.3c-0.2,0.3-0.6,0.5-0.9,0.5
	c-0.5,0-1,0-1.5,0c0-0.4-0.2-0.8-0.4-1.1c0.6,0.1,1.2,0.1,1.4,0.1c0.2,0,0.3,0,0.4-0.2c0.3-0.3,0.4-1.7,0.5-5.2h-2.1
	c-0.2,0.5-0.5,1-0.8,1.5c-0.2-0.2-0.5-0.4-0.7-0.5v4.5h-2.6v0.7h-1.1v-7.2h1.1c0.1-0.5,0.2-1,0.3-1.6l1.3,0.2
	c-0.2,0.5-0.3,1-0.5,1.4h1.5v1.6c0.6-1,1.1-2,1.3-3.1l1.1,0.2c-0.1,0.4-0.2,0.8-0.4,1.2h2.7V139.68z M348.27,140.68h-1.5v1.6h1.5
	V140.68z M348.27,145.18v-1.9h-1.5v1.9H348.27z M351.47,144.68c-0.4-0.8-0.8-1.5-1.3-2.2l0.9-0.5c0.5,0.7,1,1.4,1.4,2.1
	L351.47,144.68z"/>
<path id="path857" fill="#4A4A49" d="M368.07,138.88v1h-1.9v0.4h-1.1v-0.4h-2.4v0.4h-1.1v-0.4h-1.9v-1h1.9v-0.7h1.1v0.7h2.4v-0.7
	h1.1v0.7H368.07z M359.77,140.48h8.2v2h-1.1v-1.1h-6v1.1h-1L359.77,140.48z M360.47,144.18h6.7v3h-1.1v-0.3h-4.5v0.3h-1.1V144.18z
	 M366.37,141.78v2.1h-5.1v-2.1H366.37z M361.57,145.18v0.8h4.5v-0.8H361.57z M365.17,142.48h-2.8v0.6h2.8V142.48z"/>
<path id="path859" fill="#4A4A49" d="M375.57,145.28c0.1,0.1,0.3,0.2,0.6,0.4c0.6,0.3,1.4,0.4,2.5,0.4c1.3,0,2.5-0.1,3.8-0.2
	c-0.2,0.4-0.3,0.7-0.3,1.1c-0.9,0.1-2.5,0.1-3.5,0.1c-1.2,0-1.9-0.1-2.5-0.4c-0.4-0.2-0.6-0.4-0.8-0.4c-0.3,0-0.8,0.5-1.2,1.1
	l-0.7-1c0.3-0.3,0.7-0.6,1.1-0.8v-2.6h-1.1v-1h2.2v3.3H375.57z M374.77,140.68c-0.4-0.6-0.9-1.1-1.4-1.6l0.8-0.6
	c0.6,0.4,1.1,0.9,1.5,1.5L374.77,140.68z M377.27,140.28c-0.1,0.3-0.3,0.6-0.5,0.8c-0.3-0.2-0.6-0.4-1-0.5c0.5-0.7,0.9-1.4,1.1-2.2
	l1.1,0.2c-0.1,0.3-0.2,0.5-0.2,0.8h0.7v-1.1h1.1v1.1h2.1v1h-2.1v0.8h2.5v1h-6.2v-1h2.6v-0.8L377.27,140.28z M376.57,145.38v-2.8h4.8
	v2.8H376.57z M377.67,144.48h2.6v-1h-2.6V144.48z"/>
<path id="path861" fill="#4A4A49" d="M395.97,144.68h-3.7v1.2c0,0.6-0.1,0.9-0.6,1.1c-0.6,0.2-1.3,0.2-1.9,0.2
	c-0.1-0.4-0.3-0.8-0.5-1.1c0.6,0,1.3,0,1.5,0s0.2-0.1,0.2-0.2v-1.2h-3.7v-1.1h3.7v-0.6c0.4-0.2,0.7-0.3,1.1-0.6h-3v-1h4.3l0.2-0.1
	l0.7,0.6c-0.7,0.6-1.4,1.1-2.2,1.5v0.2h3.7v1.1H395.97z M388.57,141.78h-1.1v-2.1h1.5c-0.2-0.4-0.4-0.7-0.7-1l1-0.4
	c0.3,0.4,0.6,0.8,0.9,1.3l-0.4,0.2h1.6c-0.2-0.4-0.4-0.8-0.6-1.2l1-0.4c0.3,0.4,0.6,0.9,0.8,1.4l-0.6,0.2h1.3
	c0.3-0.5,0.6-0.9,0.8-1.5l1.2,0.4c-0.3,0.4-0.6,0.8-0.8,1.1h1.4v2.1h-1.1v-1.1h-6.1v1H388.57z"/>
<path fill="#4A4A49" d="M361.67,89.28v-34.4h-34.4v-34.3h-37.8v106.5h34.4h3.4h31h3.4h34.4v-37.8H361.67z M323.87,123.58h-30.9
	v-99.6h30.9v30.9V123.58z M358.17,123.58h-30.9v-65.2h30.9V123.58z M392.57,123.58h-30.9v-30.9h30.9V123.58z"/>
<polygon fill="#4A4A49" points="375.37,116.78 378.87,116.78 378.87,109.88 385.67,109.88 385.67,106.48 378.87,106.48 
	378.87,99.58 375.37,99.58 375.37,106.48 368.57,106.48 368.57,109.88 375.37,109.88 "/>
<polygon fill="#4A4A49" points="305.87,39.08 313.37,39.08 313.37,35.68 305.87,35.68 305.87,34.28 314.47,34.28 314.47,30.88 
	302.37,30.88 302.37,35.68 302.37,39.08 302.37,42.18 305.87,42.18 "/>
<polygon fill="#4A4A49" points="306.67,71.78 310.17,71.78 310.17,63.88 314.47,63.88 314.47,60.38 310.17,60.38 306.67,60.38 
	302.37,60.38 302.37,63.88 306.67,63.88 "/>
<polygon fill="#4A4A49" points="302.37,109.08 302.37,112.48 302.37,116.78 314.37,116.78 314.37,113.28 305.87,113.28 
	305.87,112.48 312.67,112.48 312.67,109.08 305.87,109.08 305.87,108.18 314.37,108.18 314.37,104.78 302.37,104.78 "/>
<path fill="#4A4A49" d="M308.37,56.98c3.4,0,6-2.4,6-5.7v-5.7h-3.4v5.7c0,1.5-1.3,2.2-2.6,2.2s-2.6-0.7-2.6-2.2v-5.7h-3.4v5.7
	C302.37,54.58,304.97,56.98,308.37,56.98z"/>
<path fill="#4A4A49" d="M302.37,75.18v5.7c0,3.2,2.6,5.7,6,5.7s6-2.4,6-5.7v-5.7h-3.4v5.7c0,1.5-1.3,2.2-2.6,2.2s-2.6-0.7-2.6-2.2
	v-5.7H302.37z"/>
<path fill="#4A4A49" d="M314.67,94.38c0.1-2.4-1.8-4.4-4.2-4.4h-4.6l0,0h-3.4l0,0v3.4v1.7v3.4v2.7h3.4v-2.7h4.2l1.3,2.7h3.4
	l-1.7-3.7C313.97,96.78,314.57,95.68,314.67,94.38z M305.87,93.38h4.6c0.4,0.1,0.6,0.3,0.7,0.7c0.1,0.5-0.2,0.9-0.7,1h-4.6V93.38z"
	/>
<polygon fill="#4A4A49" points="341.07,83.28 344.47,83.28 344.47,75.48 351.37,75.48 351.37,72.08 344.47,72.08 344.47,70.38 
	350.47,70.38 350.47,66.98 344.47,66.98 344.47,65.18 341.07,65.18 341.07,66.98 335.07,66.98 335.07,70.38 341.07,70.38 
	341.07,72.08 334.17,72.08 334.17,75.48 341.07,75.48 "/>
<polygon fill="#4A4A49" points="341.07,116.78 344.47,116.78 344.47,108.98 351.37,108.98 351.37,105.58 344.47,105.58 
	344.47,102.98 350.47,102.98 350.47,99.58 344.47,99.58 344.47,98.68 341.07,98.68 341.07,99.58 335.07,99.58 335.07,102.98 
	341.07,102.98 341.07,105.58 334.17,105.58 334.17,108.98 341.07,108.98 "/>
<polygon fill="#4A4A49" points="349.67,105.58 350.47,103.88 347.07,103.88 346.17,105.58 "/>
<polygon fill="#4A4A49" points="338.47,103.88 335.07,103.88 335.87,105.58 339.37,105.58 "/>
<path fill="#4A4A49" d="M345.37,76.18v4.2c1.9,1.2,3.9,2.1,6,2.8v-3.7C349.17,78.68,347.17,77.58,345.37,76.18L345.37,76.18z"/>
<path fill="#4A4A49" d="M340.17,76.08L340.17,76.08c-1.9,1.4-3.9,2.5-6,3.3v3.7c2.1-0.7,4.1-1.6,6-2.8V76.08z"/>
<path fill="#4A4A49" d="M345.37,109.58v4.2c1.9,1.2,3.9,2.1,6,2.8v-3.6C349.27,112.08,347.17,110.98,345.37,109.58L345.37,109.58z"
	/>
<path fill="#4A4A49" d="M340.17,109.58L340.17,109.58c-1.9,1.4-3.9,2.5-6,3.3v3.7c2.1-0.7,4.1-1.6,6-2.8V109.58z"/>
<path id="path919" fill="#4A4A49" d="M289.47,152.08h1.4l1.1,3c0.1,0.4,0.3,0.8,0.4,1.2l0,0c0.1-0.4,0.3-0.8,0.4-1.2l1.1-3h1.4v6.5
	h-1.2v-2.7c0-0.6,0.1-1.5,0.2-2.1l0,0l-0.5,1.5l-1,2.7h-0.7l-1-2.7l-0.5-1.5l0,0c0.1,0.6,0.2,1.5,0.2,2.1v2.7h-1.2v-6.5H289.47z"/>
<path id="path921" fill="#4A4A49" d="M298.47,152.08h1.5l2.1,6.5h-1.4l-0.4-1.7h-2.1l-0.4,1.7h-1.3L298.47,152.08z M298.37,155.88
	h1.5l-0.2-0.7c-0.2-0.7-0.4-1.4-0.6-2.1l0,0c-0.2,0.7-0.4,1.4-0.6,2.1L298.37,155.88z"/>
<path id="path923" fill="#4A4A49" d="M303.07,152.08h1.3v2.8l0,0l2.1-2.8h1.4l-2,2.5l2.3,3.9h-1.4l-1.7-2.9l-0.8,1.1v1.8h-1.3
	L303.07,152.08z"/>
<path id="path925" fill="#4A4A49" d="M309.27,152.08h1.3v6.5h-1.3V152.08z"/>
<path id="path927" fill="#4A4A49" d="M312.47,152.08h1.3l1.9,3.4l0.6,1.4l0,0c-0.1-0.7-0.2-1.5-0.2-2.3v-2.6h1.2v6.5h-1.3l-1.9-3.5
	l-0.7-1.4l0,0c0.1,0.7,0.2,1.5,0.2,2.3v2.6h-1.2L312.47,152.08z"/>
<path id="path929" fill="#4A4A49" d="M318.97,155.28c0-2.1,1.4-3.4,3.1-3.4c0.8,0,1.5,0.3,2,0.8l-0.7,0.8c-0.3-0.3-0.8-0.5-1.3-0.5
	c-1.1,0-1.8,0.8-1.8,2.2s0.6,2.3,1.9,2.3c0.3,0,0.6-0.1,0.8-0.2v-1.3h-1.1v-1h2.3v2.9c-0.6,0.5-1.3,0.8-2.1,0.8
	C320.27,158.58,318.97,157.48,318.97,155.28L318.97,155.28z"/>
<path id="path931" fill="#4A4A49" d="M327.97,152.08h2.1c1.4,0,2.5,0.5,2.5,2s-1.1,2.1-2.5,2.1h-0.8v2.3h-1.3V152.08z
	 M330.07,155.18c0.9,0,1.3-0.4,1.3-1.1c0-0.7-0.5-1-1.4-1h-0.7v2.1H330.07z"/>
<path id="path933" fill="#4A4A49" d="M333.77,155.28c0-2.1,1.2-3.3,2.9-3.3s2.9,1.2,2.9,3.3s-1.2,3.4-2.9,3.4
	C334.97,158.58,333.77,157.38,333.77,155.28z M338.27,155.28c0-1.4-0.6-2.2-1.6-2.2s-1.6,0.8-1.6,2.2s0.6,2.3,1.6,2.3
	C337.57,157.48,338.27,156.58,338.27,155.28z"/>
<path id="path935" fill="#4A4A49" d="M341.07,152.08h4v1.1h-2.7v1.5h2.3v1.1h-2.3v1.7h2.8v1.1h-4.1L341.07,152.08L341.07,152.08z"/>
<path id="path937" fill="#4A4A49" d="M347.97,153.08h-1.8v-1.1h4.9v1.1h-1.8v5.4h-1.3V153.08z"/>
<path id="path939" fill="#4A4A49" d="M352.37,152.08h1.3v6.5h-1.3V152.08z"/>
<path id="path941" fill="#4A4A49" d="M355.27,155.28c0-2.1,1.4-3.4,3-3.4c0.7,0,1.4,0.3,1.9,0.8l-0.7,0.8c-0.3-0.3-0.7-0.5-1.2-0.5
	c-1,0-1.7,0.8-1.7,2.2s0.7,2.3,1.7,2.3c0.5,0,1-0.2,1.3-0.6l0.7,0.8c-0.5,0.6-1.3,1-2.1,0.9
	C356.57,158.58,355.27,157.48,355.27,155.28z"/>
<path id="path943" fill="#4A4A49" d="M363.77,152.08h1.3v2.5h2.4v-2.5h1.3v6.5h-1.3v-2.8h-2.4v2.8h-1.3V152.08z"/>
<path id="path945" fill="#4A4A49" d="M371.87,152.08h1.5l2.1,6.5h-1.4l-0.4-1.7h-2.1l-0.4,1.7h-1.3L371.87,152.08z M371.87,155.88
	h1.5l-0.2-0.7c-0.2-0.7-0.4-1.4-0.6-2.1l0,0c-0.2,0.7-0.4,1.4-0.6,2.1L371.87,155.88z"/>
<path id="path947" fill="#4A4A49" d="M376.57,152.08h2.1c1.3,0,2.3,0.4,2.3,1.6c0,0.6-0.3,1.2-0.9,1.4l0,0c0.7,0.1,1.3,0.8,1.2,1.5
	c0,1.3-1.1,1.9-2.5,1.9h-2.3L376.57,152.08z M378.57,154.68c0.8,0,1.2-0.3,1.2-0.8s-0.4-0.8-1.2-0.8h-0.8v1.6H378.57z
	 M378.67,157.48c0.9,0,1.4-0.3,1.4-1s-0.5-0.9-1.4-0.9h-0.9v1.9H378.67z"/>
<path id="path949" fill="#4A4A49" d="M382.77,152.08h1.3v6.5h-1.3V152.08z"/>
<path id="path951" fill="#4A4A49" d="M387.17,153.08h-1.8v-1.1h4.9v1.1h-1.8v5.4h-1.3L387.17,153.08z"/>
<path id="path953" fill="#4A4A49" d="M392.47,152.08h1.5l2.1,6.5h-1.4l-0.4-1.7h-2.1l-0.4,1.7h-1.3L392.47,152.08z M392.37,155.88
	h1.5l-0.2-0.7c-0.2-0.7-0.4-1.4-0.6-2.1l0,0c-0.2,0.7-0.4,1.4-0.6,2.1L392.37,155.88z"/>
</svg>
