<svg version="1.1" id="Layer_1" xmlns="http://www.w3.org/2000/svg" viewBox="0 0 831 415">
<style type="text/css">
	.st0{fill:#4A4A49;}
	.st1{fill:#8A807E;}
	.st2{fill:#FFFFFF;}
	.st3{fill:#D1D2D2;}
</style>
<path class="st0" d="M292.4,144.1c0.1,0.3,0.3,0.7,0.4,1c-1.7,1.5-2,1.7-2.2,1.9c-0.2-0.3-0.4-0.5-0.6-0.8c0.4-0.3,0.6-0.7,0.6-1.2
	v-2.9h-1.1V141h2.2v3.6L292.4,144.1z M291.5,140.6c-0.4-0.6-0.9-1.1-1.5-1.6l0.7-0.7c0.6,0.4,1.1,0.9,1.5,1.5L291.5,140.6z
	 M297.3,142.2v0.8h1.1v1h-1.1v1.9c0,0.6-0.1,0.9-0.5,1c-0.5,0.2-1.1,0.2-1.6,0.2c-0.1-0.4-0.2-0.8-0.4-1.1h1.1c0.1,0,0.2,0,0.2-0.2
	v-1.9H294c0.4,0.5,0.8,1,1.1,1.6l-1,0.5c-0.3-0.6-0.6-1.2-1-1.7l0.8-0.4h-1.4v-1h3.7v-0.8h-3.8v-1h2.6v-0.8h-1.9v-1h1.9v-1.1h1.1
	v1.1h2v1h-2v0.8h2.5v1L297.3,142.2z M303.5,146.4c0.5-0.5,0.9-1,1.2-1.6l1,0.4c-0.3,0.7-0.7,1.3-1.2,1.8L303.5,146.4z M312.1,141.2
	h-8.3v-0.9h2c-0.1-0.2-0.1-0.4-0.2-0.5l0.7-0.1h-2v-0.9h3.1c0-0.2-0.1-0.3-0.2-0.4l1.1-0.2c0.1,0.2,0.2,0.5,0.3,0.7h3v0.9h-2
	l0.8,0.1c-0.1,0.2-0.2,0.3-0.3,0.5h2V141.2z M311.1,144.5h-2.9c0.3,0.2,0.7,0.4,1,0.6l-0.7,0.7c-0.5-0.4-1-0.7-1.5-1l0.4-0.4H305
	v-2.9h6.2v3L311.1,144.5z M308.8,146.2c0.4,0,0.4-0.1,0.5-0.8c0.3,0.2,0.6,0.3,1,0.4c-0.1,1.1-0.4,1.3-1.3,1.3h-1.6
	c-1.2,0-1.5-0.3-1.5-1.2v-1h1.1v1c0,0.2,0.1,0.3,0.5,0.3H308.8z M309.9,142.2h-4v0.4h4V142.2z M309.9,143.3h-4v0.4h4V143.3z
	 M306.7,139.6c0.1,0.2,0.2,0.5,0.3,0.7h2c0.1-0.2,0.2-0.5,0.3-0.7H306.7z M311,144.7c0.5,0.5,0.9,1.1,1.2,1.7l-1,0.4
	c-0.3-0.6-0.7-1.2-1.1-1.7L311,144.7z M319.7,141.4c0.3,0.3,0.9,1.4,1.1,1.6l-0.7,0.8c-0.1-0.3-0.2-0.7-0.4-1v4.3h-1v-3.8
	c-0.2,0.7-0.5,1.4-0.9,2c-0.1-0.4-0.3-0.8-0.5-1.1c0.6-1,1.1-2.1,1.3-3.2h-1.1v-1h1.2v-1.8h1v1.8h0.8v1h-0.8V141.4z M324.6,139.6v1
	h1.5v6.6h-1v-0.5h-3.2v0.5h-1v-6.6h1.4v-0.9h-1.5v-1.1h5.6v1.1L324.6,139.6z M325.1,145.6v-1.5h-0.7c-0.6,0-0.8-0.2-0.8-1v-1.5h-0.4
	v0.5c0.1,0.9-0.3,1.9-1,2.5c-0.1-0.2-0.2-0.3-0.4-0.4v1.4H325.1z M321.9,141.6v2.2c0.4-0.5,0.6-1.1,0.6-1.7v-0.5H321.9z
	 M323.7,139.6h-0.4v1h0.4V139.6z M325.1,141.6h-0.7v1.5c0,0.2,0,0.2,0.1,0.2h0.3c0.1,0,0.1,0,0.2-0.1l0,0L325.1,141.6z M337.3,143.2
	v0.8h2.2v3.2h-1.1v-0.3h-3.3v0.3H334V144h2.2v-0.8h-2.7c0,1.4-0.4,2.8-1.1,4.1c-0.3-0.2-0.7-0.4-1-0.6c0.8-1.6,1.2-3.3,1.1-5.1v-2.8
	h7.3v2.7h-2.5v0.8h2.8v1L337.3,143.2z M336.2,142.1v-0.8h-2.6v0.8H336.2z M333.5,139.7v0.7h5v-0.7H333.5z M338.4,145h-3.3v1h3.3V145
	z M354.1,139.7v0.5c-0.1,4.3-0.2,5.8-0.6,6.3c-0.2,0.3-0.5,0.5-0.9,0.5h-1.5c0-0.4-0.2-0.8-0.4-1.1c0.5,0.1,0.9,0.1,1.4,0.1
	c0.2,0,0.3,0,0.4-0.2c0.3-0.3,0.4-1.7,0.5-5.2h-2.1c-0.2,0.5-0.5,1-0.8,1.5c-0.2-0.2-0.4-0.4-0.7-0.5v4.5h-2.6v0.7h-1.1v-7.2h1.1
	c0.1-0.5,0.2-1,0.3-1.6l1.3,0.2c-0.2,0.5-0.3,1-0.5,1.4h1.5v1.6c0.6-0.9,1.1-2,1.3-3.1l1.1,0.2c-0.1,0.4-0.2,0.8-0.4,1.2h2.7
	L354.1,139.7z M348.3,140.7h-1.5v1.6h1.5V140.7z M348.3,145.2v-1.9h-1.5v1.9H348.3z M351.5,144.7c-0.4-0.8-0.8-1.5-1.3-2.2l0.9-0.5
	c0.5,0.7,1,1.4,1.4,2.1L351.5,144.7z M368.1,138.9v1h-1.9v0.4h-1.1v-0.4h-2.4v0.4h-1.1v-0.4h-1.9v-1h1.9v-0.7h1.1v0.7h2.4v-0.7h1.1
	v0.7H368.1z M359.8,140.5h8.2v2h-1.1v-1.1h-6v1.1h-1L359.8,140.5z M360.5,144.2h6.7v3h-1.1v-0.3h-4.5v0.3h-1.1V144.2z M366.4,141.8
	v2.1h-5.1v-2.1H366.4z M361.6,145.2v0.8h4.5v-0.8H361.6z M365.2,142.5h-2.8v0.6h2.8V142.5z M375.6,145.3c0.2,0.1,0.4,0.3,0.6,0.4
	c0.8,0.3,1.6,0.5,2.5,0.4c1.3,0,2.5-0.1,3.8-0.2c-0.2,0.3-0.3,0.7-0.3,1.1c-0.9,0.1-2.5,0.1-3.5,0.1c-0.9,0.1-1.7-0.1-2.5-0.4
	c-0.4-0.2-0.6-0.4-0.8-0.4c-0.5,0.2-0.9,0.6-1.2,1.1l-0.7-1c0.3-0.3,0.7-0.6,1.1-0.8V143h-1.1v-1h2.2v3.3L375.6,145.3z M374.8,140.7
	c-0.4-0.6-0.9-1.1-1.4-1.6l0.8-0.6c0.6,0.4,1.1,0.9,1.5,1.5L374.8,140.7z M377.3,140.3c-0.1,0.3-0.3,0.6-0.5,0.8
	c-0.3-0.2-0.6-0.4-1-0.5c0.5-0.7,0.9-1.4,1.1-2.2l1.1,0.2c-0.1,0.3-0.2,0.5-0.2,0.8h0.7v-1.1h1.1v1.1h2.1v1h-2.1v0.8h2.5v1h-6.2v-1
	h2.6v-0.8L377.3,140.3z M376.6,145.4v-2.8h4.8v2.8H376.6z M377.7,144.5h2.6v-1h-2.6V144.5z M396,144.7h-3.7v1.2
	c0,0.6-0.1,0.9-0.6,1.1c-0.6,0.2-1.3,0.2-1.9,0.2c-0.1-0.4-0.3-0.8-0.5-1.1h1.5c0.2,0,0.2-0.1,0.2-0.2v-1.2h-3.7v-1.1h3.7V143
	c0.4-0.2,0.8-0.4,1.1-0.6h-3v-1h4.3l0.2-0.1l0.7,0.6c-0.7,0.6-1.4,1.1-2.2,1.5v0.2h3.7v1.1L396,144.7z M388.6,141.8h-1.1v-2.1h1.5
	c-0.2-0.4-0.4-0.7-0.7-1l1-0.4c0.3,0.4,0.6,0.9,0.9,1.3l-0.4,0.2h1.6l-0.6-1.2l1-0.4c0.3,0.4,0.6,0.9,0.8,1.4l-0.6,0.2h1.3
	c0.3-0.5,0.6-1,0.8-1.5l1.2,0.4c-0.3,0.4-0.6,0.8-0.8,1.1h1.4v2.1h-1.1v-1.1h-6.1v1H388.6z M361.7,89.3V54.9h-34.4V20.6h-37.8v106.5
	h106.6V89.3L361.7,89.3z M323.9,123.6H293V24h30.9L323.9,123.6L323.9,123.6z M358.2,123.6h-30.9V58.4h30.9V123.6z M392.6,123.6
	h-30.9V92.7h30.9V123.6z M305.9,39.1h7.5v-3.4h-7.5v-1.4h8.6v-3.4h-12.1v11.3h3.5V39.1z M306.7,71.8h3.5v-7.9h4.3v-3.5h-12.1v3.5
	h4.3L306.7,71.8z M302.4,109.1v7.7h12v-3.5h-8.5v-0.8h6.8v-3.4h-6.8v-0.9h8.5v-3.4h-12V109.1z M308.4,57c3.1,0.2,5.8-2.2,6-5.4
	c0,0,0,0,0,0c0-0.1,0-0.2,0-0.3v-5.7H311v5.7c-0.3,1.4-1.6,2.4-3.1,2.1c-1.1-0.2-1.9-1-2.1-2.1v-5.7h-3.4v5.7c0,3.1,2.5,5.7,5.7,5.7
	L308.4,57L308.4,57z M302.4,75.2v5.7c0,3.2,2.7,5.7,5.8,5.7c0,0,0,0,0,0h0.2c3.1,0.2,5.8-2.2,6-5.4c0,0,0,0,0,0c0-0.1,0-0.2,0-0.3
	v-5.7H311v5.7c-0.3,1.4-1.6,2.4-3.1,2.1c-1.1-0.2-1.9-1-2.1-2.1v-5.7L302.4,75.2z M314.7,94.4c0.1-2.3-1.7-4.3-4-4.4h-8.2v11.2h3.4
	v-2.7h4.2l1.3,2.7h3.4l-1.7-3.7C314,96.7,314.6,95.6,314.7,94.4L314.7,94.4z M305.9,93.4h4.6c0.4,0.1,0.6,0.3,0.7,0.7
	c0.1,0.4-0.2,0.9-0.6,1c0,0,0,0,0,0h-0.1h-4.6L305.9,93.4z M341.1,83.3h3.4v-7.8h6.9v-3.4h-6.9v-1.7h6V67h-6v-1.8h-3.4V67h-6v3.4h6
	v1.7h-6.9v3.4h6.9V83.3z M341.1,116.8h3.4V109h6.9v-3.4h-6.9V103h6v-3.4h-6v-0.9h-3.4v0.9h-6v3.4h6v2.6h-6.9v3.4h6.9V116.8z
	 M349.7,105.6l0.8-1.7h-3.4l-0.9,1.7H349.7z M338.5,103.9h-3.4l0.8,1.7h3.5L338.5,103.9z M345.4,76.2v4.2c1.9,1.2,3.9,2.1,6,2.8
	v-3.7C349.2,78.7,347.2,77.6,345.4,76.2L345.4,76.2z M340.2,76.1L340.2,76.1c-1.8,1.4-3.9,2.5-6,3.3v3.7c2.1-0.7,4.1-1.6,6-2.8V76.1
	z M345.4,109.6v4.2c1.9,1.2,3.9,2.1,6,2.8V113C349.2,112.1,347.2,111,345.4,109.6L345.4,109.6z M340.2,109.6L340.2,109.6
	c-1.8,1.4-3.9,2.5-6,3.3v3.7c2.1-0.7,4.1-1.6,6-2.8V109.6z M289.5,152.1h1.4l1.1,3c0.1,0.4,0.3,0.8,0.4,1.2l0,0
	c0.1-0.4,0.3-0.8,0.4-1.2l1.1-3h1.4v6.5h-1.2v-2.7c0-0.7,0.1-1.4,0.2-2.1l0,0l-0.5,1.5l-1,2.7h-0.7l-1-2.7l-0.5-1.5l0,0
	c0.1,0.7,0.2,1.4,0.2,2.1v2.7h-1.2L289.5,152.1L289.5,152.1z M298.5,152.1h1.5l2.1,6.5h-1.4l-0.4-1.7h-2.1l-0.4,1.7h-1.3
	L298.5,152.1z M298.4,155.9h1.5l-0.2-0.7l-0.6-2.1l0,0l-0.6,2.1L298.4,155.9z M303.1,152.1h1.3v2.8l0,0l2.1-2.8h1.4l-2,2.5l2.3,3.9
	h-1.4l-1.7-2.9l-0.8,1.1v1.8H303L303.1,152.1z M309.3,152.1h1.3v6.5h-1.3V152.1z M312.5,152.1h1.3l1.9,3.4l0.6,1.4l0,0
	c-0.1-0.8-0.2-1.5-0.2-2.3V152h1.2v6.5H316l-1.9-3.5l-0.7-1.4l0,0c0.1,0.8,0.2,1.5,0.2,2.3v2.6h-1.2L312.5,152.1z M319,155.3
	c-0.1-1.7,1.1-3.2,2.9-3.4h0.2c0.7,0,1.5,0.3,2,0.8l-0.7,0.8c-0.4-0.3-0.8-0.5-1.3-0.5c-1.1,0-1.8,0.8-1.8,2.2s0.6,2.3,1.9,2.3
	c0.3,0,0.6-0.1,0.8-0.2V156h-1.1v-1h2.3v2.9c-0.6,0.5-1.3,0.8-2.1,0.8c-1.7,0-3.1-1.3-3.1-3C319,155.6,319,155.5,319,155.3
	L319,155.3z M328,152.1h2.1c1.4,0,2.5,0.5,2.5,2s-1.1,2.1-2.5,2.1h-0.8v2.3H328L328,152.1z M330.1,155.2c0.9,0,1.3-0.4,1.3-1.1
	s-0.5-1-1.4-1h-0.7v2.1H330.1z M333.8,155.3c0-2.1,1.2-3.3,2.9-3.3s2.9,1.2,2.9,3.3s-1.2,3.4-2.9,3.4S333.8,157.4,333.8,155.3z
	 M338.3,155.3c0-1.4-0.6-2.2-1.6-2.2s-1.6,0.8-1.6,2.2s0.6,2.3,1.6,2.3C337.7,157.3,338.4,156.3,338.3,155.3z M341.1,152.1h4v1.1
	h-2.7v1.5h2.3v1.1h-2.3v1.7h2.8v1.1h-4.1L341.1,152.1L341.1,152.1z M348,153.1h-1.8V152h4.9v1.1h-1.8v5.4H348L348,153.1z
	 M352.4,152.1h1.3v6.5h-1.3V152.1z M355.3,155.3c-0.2-1.7,1.1-3.2,2.8-3.4c0,0,0,0,0,0h0.2c0.7,0,1.4,0.3,1.9,0.8l-0.7,0.8
	c-0.3-0.3-0.7-0.5-1.2-0.5c-1,0-1.7,0.8-1.7,2.2s0.7,2.3,1.7,2.3c0.5,0,1-0.2,1.3-0.6l0.7,0.8c-0.5,0.6-1.3,1-2.1,0.9
	C356.6,158.6,355.3,157.5,355.3,155.3L355.3,155.3z M363.8,152.1h1.3v2.5h2.4v-2.5h1.3v6.5h-1.3v-2.8h-2.4v2.8h-1.3V152.1z
	 M371.9,152.1h1.5l2.1,6.5h-1.4l-0.4-1.7h-2.1l-0.4,1.7h-1.3L371.9,152.1z M371.9,155.9h1.5l-0.2-0.7l-0.6-2.1l0,0l-0.6,2.1
	L371.9,155.9z M376.6,152.1h2.1c1.3,0,2.3,0.4,2.3,1.6c0,0.6-0.3,1.2-0.9,1.4l0,0c0.7,0.1,1.3,0.8,1.2,1.5c0,1.3-1.1,1.9-2.5,1.9
	h-2.3L376.6,152.1z M378.6,154.7c0.8,0,1.2-0.3,1.2-0.8s-0.4-0.8-1.2-0.8h-0.8v1.6H378.6z M378.7,157.5c0.9,0,1.4-0.3,1.4-1
	s-0.5-0.9-1.4-0.9h-0.9v1.9H378.7z M382.8,152.1h1.3v6.5h-1.3V152.1z M387.2,153.1h-1.8V152h4.9v1.1h-1.8v5.4h-1.3L387.2,153.1z
	 M392.5,152.1h1.5l2.1,6.5h-1.4l-0.4-1.7h-2.1l-0.4,1.7h-1.3L392.5,152.1z M392.4,155.9h1.5l-0.2-0.7l-0.6-2.1l0,0l-0.6,2.1
	L392.4,155.9z"/>
<path id="l_shadow" class="st1" d="M289.5,207.9L0.3,352.3v63.5h225.2l136-136v-71.9H289.5z"/>
<path id="l_cross" class="st2" d="M313.7,279.1h-23.6v-23.6h-1.3v23.6h-23.6v1.3h23.6v23.5h1.3v-23.5h23.6V279.1z">
	<animateTransform attributeName="transform" begin="0s" dur="5s" type="rotate" from="360 289.45 279.7" to="0 289.45 279.7" repeatCount="indefinite" />
</path>
<path id="r_shadow" class="st3" d="M542.5,54.6L831.7,199v216.8h-71.9L470.6,126.5V54.6H542.5z"/>
<path id="r_cross" class="st2" d="M566.9,125.8h-23.6v-23.6H542v23.6h-23.6v1.3H542v23.6h1.3v-23.6h23.6L566.9,125.8z">
	<animateTransform attributeName="transform" begin="0s" dur="5s" type="rotate" from="0 542.65 126.45" to="360 542.65 126.45" repeatCount="indefinite" />
</path>
<path class="st0" d="M375.4,116.8h3.5v-6.9h6.8v-3.4h-6.8v-6.9h-3.5v6.9h-6.8v3.4h6.8V116.8z">
	<animate dur="3s" values="#fff; #4A4A49; #fff;" keyTimes="0; 0.5; 1" attributeName="fill" repeatCount="indefinite"/>
</path>
</svg>

