<svg id="Layer_1" data-name="Layer 1" xmlns="http://www.w3.org/2000/svg" viewBox="0 0 831 415">
<defs>
<style>
.cls-logo{fill:#4a4a49;}
.cls-left-shadow{fill:#8a807e;}
.cls-cross{fill:#fff;}
.cls-right-shadow{fill:#d1d2d2;}
</style>
</defs>
<path class="cls-logo" d="M292.37,144.08c.1.3.3.7.4,1-1.7,1.5-2,1.7-2.2,1.9-.2-.3-.4-.5-.6-.8a1.74,1.74,0,0,0,.6-1.2v-2.9h-1.1V141h2.2v3.6Zm-.9-3.5A11.37,11.37,0,0,0,290,139l.7-.7a7.11,7.11,0,0,1,1.5,1.5Zm5.8,1.6v.8h1.1v1h-1.1v1.9c0,.6-.1.9-.5,1a4.4,4.4,0,0,1-1.6.2,4.87,4.87,0,0,0-.4-1.1h1.1c.1,0,.2,0,.2-.2v-1.9H294a9.06,9.06,0,0,1,1.1,1.6l-1,.5a9.5,9.5,0,0,0-1-1.7l.8-.4h-1.4v-1h3.7v-.8h-3.8v-1H295v-.8h-1.9v-1H295v-1.1h1.1v1.1h2v1h-2v.8h2.5v1Zm6.2,4.2a6.1,6.1,0,0,0,1.2-1.6l1,.4a5.67,5.67,0,0,1-1.2,1.8Zm8.6-5.2h-8.3v-.9h2c-.1-.2-.1-.4-.2-.5l.7-.1h-2v-.9h3.1a.52.52,0,0,0-.2-.4l1.1-.2a4.88,4.88,0,0,1,.3.7h3v.9h-2l.8.1a2.19,2.19,0,0,1-.3.5h2Zm-1,3.3h-2.9a8.79,8.79,0,0,1,1,.6l-.7.7a13,13,0,0,0-1.5-1l.4-.4H305v-2.9h6.2v3Zm-2.3,1.7c.4,0,.4-.1.5-.8a3,3,0,0,0,1,.4c-.1,1.1-.4,1.3-1.3,1.3h-1.6c-1.2,0-1.5-.3-1.5-1.2v-1H307v1c0,.2.1.3.5.3Zm1.1-4h-4v.4h4Zm0,1.1h-4v.4h4Zm-3.2-3.7a4.88,4.88,0,0,1,.3.7h2c.1-.2.2-.5.3-.7Zm4.3,5.1a6.57,6.57,0,0,1,1.2,1.7l-1,.4a9.91,9.91,0,0,0-1.1-1.7Zm8.7-3.3c.3.3.9,1.4,1.1,1.6l-.7.8a6.89,6.89,0,0,0-.4-1v4.3h-1v-3.8a7.22,7.22,0,0,1-.9,2,3.7,3.7,0,0,0-.5-1.1,9.82,9.82,0,0,0,1.3-3.2h-1.1v-1h1.2v-1.8h1V140h.8v1h-.8Zm4.9-1.8v1h1.5v6.6h-1v-.5h-3.2v.5h-1v-6.6h1.4v-.9h-1.5v-1.1h5.6v1.1Zm.5,6v-1.5h-.7c-.6,0-.8-.2-.8-1v-1.5h-.4v.5a3.11,3.11,0,0,1-1,2.5.78.78,0,0,0-.4-.4v1.4Zm-3.2-4v2.2a2.72,2.72,0,0,0,.6-1.7v-.5Zm1.8-2h-.4v1h.4Zm1.4,2h-.7v1.5c0,.2,0,.2.1.2h.3c.1,0,.1,0,.2-.1h0Zm12.2,1.6v.8h2.2v3.2h-1.1v-.3h-3.3v.3H334V144h2.2v-.8h-2.7a9.26,9.26,0,0,1-1.1,4.1,8.79,8.79,0,0,0-1-.6,9.46,9.46,0,0,0,1.1-5.1v-2.8h7.3v2.7h-2.5v.8h2.8v1Zm-1.1-1.1v-.8h-2.6v.8Zm-2.7-2.4v.7h5v-.7Zm4.9,5.3h-3.3v1h3.3Zm15.7-5.3v.5c-.1,4.3-.2,5.8-.6,6.3a1.19,1.19,0,0,1-.9.5h-1.5a2.1,2.1,0,0,0-.4-1.1,8.8,8.8,0,0,0,1.4.1c.2,0,.3,0,.4-.2.3-.3.4-1.7.5-5.2h-2.1a10.93,10.93,0,0,1-.8,1.5,3,3,0,0,0-.7-.5v4.5h-2.6v.7h-1.1v-7.2h1.1c.1-.5.2-1,.3-1.6l1.3.2c-.2.5-.3,1-.5,1.4h1.5v1.6a9.32,9.32,0,0,0,1.3-3.1l1.1.2a5.64,5.64,0,0,1-.4,1.2h2.7Zm-5.8,1h-1.5v1.6h1.5Zm0,4.5v-1.9h-1.5v1.9Zm3.2-.5a15.92,15.92,0,0,0-1.3-2.2l.9-.5c.5.7,1,1.4,1.4,2.1Zm16.6-5.8v1h-1.9v.4h-1.1v-.4h-2.4v.4h-1.1v-.4h-1.9v-1h1.9v-.7h1.1v.7h2.4v-.7h1.1v.7Zm-8.3,1.6H368v2h-1.1v-1.1h-6v1.1h-1Zm.7,3.7h6.7v3h-1.1v-.3h-4.5v.3h-1.1Zm5.9-2.4v2.1h-5.1v-2.1Zm-4.8,3.4v.8h4.5v-.8Zm3.6-2.7h-2.8v.6h2.8Zm10.4,2.8a5.92,5.92,0,0,0,.6.4,5.67,5.67,0,0,0,2.5.4c1.3,0,2.5-.1,3.8-.2a2.28,2.28,0,0,0-.3,1.1c-.9.1-2.5.1-3.5.1a5.4,5.4,0,0,1-2.5-.4c-.4-.2-.6-.4-.8-.4s-.8.5-1.2,1.1l-.7-1a4.44,4.44,0,0,1,1.1-.8V143h-1.1v-1h2.2v3.3Zm-.8-4.6a10.7,10.7,0,0,0-1.4-1.6l.8-.6a5.36,5.36,0,0,1,1.5,1.5Zm2.5-.4a2.18,2.18,0,0,1-.5.8,3.13,3.13,0,0,0-1-.5,6.5,6.5,0,0,0,1.1-2.2l1.1.2a2.35,2.35,0,0,0-.2.8h.7v-1.1h1.1v1.1h2.1v1h-2.1v.8h2.5v1h-6.2v-1h2.6v-.8Zm-.7,5.1v-2.8h4.8v2.8Zm1.1-.9h2.6v-1h-2.6Zm18.3.2h-3.7v1.2c0,.6-.1.9-.6,1.1a6.15,6.15,0,0,1-1.9.2,3.7,3.7,0,0,0-.5-1.1h1.5c.2,0,.2-.1.2-.2v-1.2h-3.7v-1.1H391V143a6,6,0,0,0,1.1-.6h-3v-1h4.3l.2-.1.7.6a10.71,10.71,0,0,1-2.2,1.5v.2h3.7v1.1Zm-7.4-2.9h-1.1v-2.1H389a3.59,3.59,0,0,0-.7-1l1-.4a14.63,14.63,0,0,1,.9,1.3l-.4.2h1.6l-.6-1.2,1-.4a6.38,6.38,0,0,1,.8,1.4l-.6.2h1.3a7.14,7.14,0,0,0,.8-1.5l1.2.4c-.3.4-.6.8-.8,1.1h1.4v2.1h-1.1v-1.1h-6.1v1Zm-26.9-52.5V54.88h-34.4V20.58h-37.8v106.5h106.6V89.28Zm-37.8,34.3H293V24h30.9v99.6Zm34.3,0h-30.9V58.38h30.9Zm34.4,0h-30.9V92.68h30.9Zm-17.2-6.8h3.5v-6.9h6.8v-3.4h-6.8v-6.9h-3.5v6.9h-6.8v3.4h6.8Zm-69.5-77.7h7.5v-3.4h-7.5v-1.4h8.6v-3.4h-12.1v11.3h3.5Zm.8,32.7h3.5v-7.9h4.3v-3.5h-12.1v3.5h4.3Zm-4.3,37.3v7.7h12v-3.5h-8.5v-.8h6.8v-3.4h-6.8v-.9h8.5v-3.4h-12Zm6-52.1a5.71,5.71,0,0,0,6-5.7v-5.7H311v5.7a2.64,2.64,0,0,1-5.2,0v-5.7h-3.4v5.7A5.71,5.71,0,0,0,308.37,57Zm-6,18.2v5.7a5.77,5.77,0,0,0,6,5.7,5.71,5.71,0,0,0,6-5.7v-5.7H311v5.7a2.64,2.64,0,0,1-5.2,0v-5.7Zm12.3,19.2a4.21,4.21,0,0,0-4.2-4.4h-8v11.2h3.4v-2.7h4.2l1.3,2.7h3.4l-1.7-3.7A4.29,4.29,0,0,0,314.67,94.38Zm-8.8-1h4.6a.85.85,0,0,1,.7.7.82.82,0,0,1-.7,1h-4.6Zm35.2-10.1h3.4v-7.8h6.9v-3.4h-6.9v-1.7h6V67h-6v-1.8h-3.4V67h-6v3.4h6v1.7h-6.9v3.4h6.9Zm0,33.5h3.4V109h6.9v-3.4h-6.9V103h6v-3.4h-6v-.9h-3.4v.9h-6V103h6v2.6h-6.9V109h6.9Zm8.6-11.2.8-1.7h-3.4l-.9,1.7Zm-11.2-1.7h-3.4l.8,1.7h3.5Zm6.9-27.7v4.2a27.28,27.28,0,0,0,6,2.8v-3.7a21.89,21.89,0,0,1-6-3.3Zm-5.2-.1h0a25.24,25.24,0,0,1-6,3.3v3.7a27.28,27.28,0,0,0,6-2.8Zm5.2,33.5v4.2a27.28,27.28,0,0,0,6,2.8V113a27.31,27.31,0,0,1-6-3.4Zm-5.2,0h0a25.24,25.24,0,0,1-6,3.3v3.7a27.28,27.28,0,0,0,6-2.8Zm-50.7,42.5h1.4l1.1,3c.1.4.3.8.4,1.2h0c.1-.4.3-.8.4-1.2l1.1-3h1.4v6.5h-1.2v-2.7a14.92,14.92,0,0,1,.2-2.1h0l-.5,1.5-1,2.7h-.7l-1-2.7-.5-1.5h0a14.92,14.92,0,0,1,.2,2.1v2.7h-1.2v-6.5Zm9,0H300l2.1,6.5h-1.4l-.4-1.7h-2.1l-.4,1.7h-1.3Zm-.1,3.8h1.5l-.2-.7-.6-2.1h0l-.6,2.1Zm4.7-3.8h1.3v2.8h0l2.1-2.8h1.4l-2,2.5,2.3,3.9h-1.4l-1.7-2.9-.8,1.1v1.8H303Zm6.2,0h1.3v6.5h-1.3Zm3.2,0h1.3l1.9,3.4.6,1.4h0a16.41,16.41,0,0,1-.2-2.3V152h1.2v6.5H316l-1.9-3.5-.7-1.4h0a16.41,16.41,0,0,1,.2,2.3v2.6h-1.2Zm6.5,3.2a3.13,3.13,0,0,1,3.1-3.4,2.79,2.79,0,0,1,2,.8l-.7.8a1.9,1.9,0,0,0-1.3-.5c-1.1,0-1.8.8-1.8,2.2s.6,2.3,1.9,2.3a1.88,1.88,0,0,0,.8-.2V156h-1.1v-1h2.3v2.9a3.23,3.23,0,0,1-2.1.8,3.08,3.08,0,0,1-3.1-3.4Zm9-3.2h2.1c1.4,0,2.5.5,2.5,2s-1.1,2.1-2.5,2.1h-.8v2.3H328Zm2.1,3.1c.9,0,1.3-.4,1.3-1.1s-.5-1-1.4-1h-.7v2.1Zm3.7.1c0-2.1,1.2-3.3,2.9-3.3s2.9,1.2,2.9,3.3-1.2,3.4-2.9,3.4S333.77,157.38,333.77,155.28Zm4.5,0c0-1.4-.6-2.2-1.6-2.2s-1.6.8-1.6,2.2.6,2.3,1.6,2.3A2.08,2.08,0,0,0,338.27,155.28Zm2.8-3.2h4v1.1h-2.7v1.5h2.3v1.1h-2.3v1.7h2.8v1.1h-4.1v-6.5Zm6.9,1h-1.8V152h4.9v1.1h-1.8v5.4H348Zm4.4-1h1.3v6.5h-1.3Zm2.9,3.2a3.12,3.12,0,0,1,3-3.4,2.73,2.73,0,0,1,1.9.8l-.7.8a1.66,1.66,0,0,0-1.2-.5c-1,0-1.7.8-1.7,2.2s.7,2.3,1.7,2.3a1.61,1.61,0,0,0,1.3-.6l.7.8a2.43,2.43,0,0,1-2.1.9C356.57,158.58,355.27,157.48,355.27,155.28Zm8.5-3.2h1.3v2.5h2.4v-2.5h1.3v6.5h-1.3v-2.8h-2.4v2.8h-1.3Zm8.1,0h1.5l2.1,6.5h-1.4l-.4-1.7h-2.1l-.4,1.7h-1.3Zm0,3.8h1.5l-.2-.7-.6-2.1h0l-.6,2.1Zm4.7-3.8h2.1c1.3,0,2.3.4,2.3,1.6a1.42,1.42,0,0,1-.9,1.4h0a1.42,1.42,0,0,1,1.2,1.5c0,1.3-1.1,1.9-2.5,1.9h-2.3Zm2,2.6c.8,0,1.2-.3,1.2-.8s-.4-.8-1.2-.8h-.8v1.6Zm.1,2.8c.9,0,1.4-.3,1.4-1s-.5-.9-1.4-.9h-.9v1.9Zm4.1-5.4h1.3v6.5h-1.3Zm4.4,1h-1.8V152h4.9v1.1h-1.8v5.4h-1.3Zm5.3-1H394l2.1,6.5h-1.4l-.4-1.7h-2.1l-.4,1.7h-1.3Zm-.1,3.8h1.5l-.2-.7-.6-2.1h0l-.6,2.1Z"/>

<path id="path18" class="cls-left-shadow" d="M289.46,207.88.26,352.28v63.5h225.2l136-136v-71.9Z"/>

<path id="l_cross" class="cls-cross" d="M313.67 279.08 290.07 279.08 290.07 255.48 288.77 255.48 288.77 279.08 265.17 279.08 265.17 280.38 288.77 280.38 288.77 303.88 290.07 303.88 290.07 280.38 313.67 280.38 313.67 279.08z">
	<animate dur="3s" values="#fff; #8a807e; #fff;" keyTimes="0; 0.5; 1" attributeName="fill" repeatCount="indefinite"/>
</path>
<path id="path22" class="cls-right-shadow" d="M542.54,54.61,831.74,199v216.8h-71.9l-289.2-289.3V54.61Z"/>

<path id="r_cross" class="cls-cross" d="M566.87 125.78 543.27 125.78 543.27 102.18 541.97 102.18 541.97 125.78 518.37 125.78 518.37 127.08 541.97 127.08 541.97 150.68 543.27 150.68 543.27 127.08 566.87 127.08 566.87 125.78z">
	<animate dur="3s" values="#fff; #d1d2d2; #fff;" keyTimes="0; 0.5; 1" attributeName="fill" repeatCount="indefinite"/>
</path>
</svg>