<?xml version="1.0" encoding="UTF-8" standalone="no"?>
<svg
   xmlns:dc="http://purl.org/dc/elements/1.1/"
   xmlns:cc="http://creativecommons.org/ns#"
   xmlns:rdf="http://www.w3.org/1999/02/22-rdf-syntax-ns#"
   xmlns:svg="http://www.w3.org/2000/svg"
   xmlns="http://www.w3.org/2000/svg"
   xmlns:sodipodi="http://sodipodi.sourceforge.net/DTD/sodipodi-0.dtd"
   xmlns:inkscape="http://www.inkscape.org/namespaces/inkscape"
   version="1.1"
   id="svg2"
   xml:space="preserve"
   width="831.49597"
   height="415.74799"
   viewBox="0 0 831.49597 415.74799"
   sodipodi:docname="banner-shadows-logo.svg"
   inkscape:version="1.0.1 (3bc2e813f5, 2020-09-07, custom)"><metadata
     id="metadata8"><rdf:RDF><cc:Work
         rdf:about=""><dc:format>image/svg+xml</dc:format><dc:type
           rdf:resource="http://purl.org/dc/dcmitype/StillImage" /><dc:title></dc:title></cc:Work></rdf:RDF></metadata><defs
     id="defs6"><clipPath
       clipPathUnits="userSpaceOnUse"
       id="clipPath38"><path
         d="M 0,311.811 H 623.622 V 0 H 0 Z"
         id="path36" /></clipPath><style
       id="style843">.cls-1{fill:#494948;}</style></defs><sodipodi:namedview
     pagecolor="#ffffff"
     bordercolor="#666666"
     borderopacity="1"
     objecttolerance="10"
     gridtolerance="10"
     guidetolerance="10"
     inkscape:pageopacity="0"
     inkscape:pageshadow="2"
     inkscape:window-width="1916"
     inkscape:window-height="1076"
     id="namedview4"
     showgrid="false"
     inkscape:zoom="0.95925477"
     inkscape:cx="434.20512"
     inkscape:cy="145.34594"
     inkscape:window-x="3286"
     inkscape:window-y="0"
     inkscape:window-maximized="0"
     inkscape:current-layer="g10"
     inkscape:document-rotation="0"
     showguides="false"
     inkscape:guide-bbox="true"><inkscape:grid
       type="xygrid"
       id="grid1017" /><sodipodi:guide
       position="470.36265,361.13385"
       orientation="0,-1"
       id="guide1017" /><sodipodi:guide
       position="289.21999,207.87385"
       orientation="1,0"
       id="guide1019" /><sodipodi:guide
       position="361.13199,207.87385"
       orientation="1,0"
       id="guide1021" /><sodipodi:guide
       position="361.13199,207.87385"
       orientation="0,-1"
       id="guide1023" /><sodipodi:guide
       position="470.36265,361.13385"
       orientation="1,0"
       id="guide1025" /><sodipodi:guide
       position="470.36265,289.22051"
       orientation="0,-1"
       id="guide912" /></sodipodi:namedview><g
     id="g10"
     inkscape:groupmode="layer"
     inkscape:label="J-2_签到板"
     transform="matrix(1.3333333,0,0,-1.3333333,0,415.748)"><g
       id="g1048"
       transform="translate(19.6328,-20.48)"><g
         id="g20"
         transform="translate(387.0742,291.3304)"><path
           d="M 0,0 216.915,-108.277 V -270.85 H 162.98 L -53.935,-53.935 V 0 Z"
           style="fill:#d1d2d2;fill-opacity:1;fill-rule:nonzero;stroke:none"
           id="path22" /></g><path
         d="m 368.96,236.944 h 36.324 v 1 H 368.96 Z"
         style="fill:#ffffff;fill-opacity:1;fill-rule:nonzero;stroke:none"
         id="path24" /><path
         d="m 386.622,219.282 h 1 v 36.323 h -1 z"
         style="fill:#ffffff;fill-opacity:1;fill-rule:nonzero;stroke:none"
         id="path26" /></g><g
       id="g1042"
       transform="translate(-116.2722,2e-4)"><g
         id="g16"
         transform="translate(333.1872,155.9052)"><path
           d="m 0,0 -216.915,-108.277 v -47.628 H -48.037 L 53.934,-53.934 V 0 Z"
           style="fill:#8a807e;fill-opacity:1;fill-rule:nonzero;stroke:none"
           id="path18" /></g><path
         d="m 314.977,101.518 h 36.324 v 1 h -36.324 z"
         style="fill:#ffffff;fill-opacity:1;fill-rule:nonzero;stroke:none"
         id="path28" /><path
         d="m 332.639,83.857 h 1 v 36.324 h -1 z"
         style="fill:#ffffff;fill-opacity:1;fill-rule:nonzero;stroke:none"
         id="path30" /></g><g
       id="g1015"
       transform="matrix(0.32751172,0,0,-0.32751172,196.52084,304.94782)"><path
         class="cls-1"
         d="m 68.89,309.13 a 10,10 0 0 0 1,2.18 c -3.83,3.33 -4.54,3.93 -4.94,4.46 a 7.82,7.82 0 0 0 -1.4,-1.77 3.59,3.59 0 0 0 1.3,-2.64 v -6.59 h -2.58 v -2.52 h 5.12 v 8.14 z M 66.7,301 a 28.41,28.41 0 0 0 -3.41,-3.55 L 65,295.86 a 36.11,36.11 0 0 1 3.53,3.33 z m 13.45,3.71 v 1.85 h 2.52 v 2.38 h -2.52 v 4.39 c 0,1.32 -0.24,2 -1.12,2.36 a 9.57,9.57 0 0 1 -3.68,0.42 9.56,9.56 0 0 0 -0.82,-2.47 c 1.08,0 2.25,0 2.58,0 0.33,0 0.46,-0.07 0.46,-0.38 v -4.34 h -4.76 a 16.62,16.62 0 0 1 2.45,3.59 L 73,313.76 a 19,19 0 0 0 -2.4,-3.86 l 1.85,-1 h -3.26 v -2.38 h 8.38 v -1.82 h -8.79 v -2.38 h 5.84 V 300.4 H 70.21 V 298 h 4.41 v -2.41 H 77.2 V 298 h 4.65 v 2.38 H 77.2 v 1.92 h 5.64 v 2.38 z"
         id="path847" /><path
         class="cls-1"
         d="m 94.35,314.27 a 11,11 0 0 0 2.74,-3.75 l 2.18,1 a 13.65,13.65 0 0 1 -2.74,4.06 z M 114,302.34 H 95 v -2 h 4.61 a 9,9 0 0 0 -0.44,-1.21 l 1.65,-0.33 h -4.77 v -2 h 7.14 c -0.11,-0.35 -0.24,-0.73 -0.37,-1 l 2.56,-0.46 a 9.64,9.64 0 0 1 0.63,1.5 h 6.86 v 2 h -4.52 l 1.77,0.31 c -0.27,0.44 -0.49,0.86 -0.71,1.23 H 114 Z m -2.38,7.52 h -6.75 a 16.87,16.87 0 0 1 2.32,1.45 l -1.61,1.61 a 15.5,15.5 0 0 0 -3.46,-2.18 l 0.9,-0.88 h -5.6 v -6.73 h 14.2 z m -5.12,3.9 c 0.82,0 0.95,-0.24 1.06,-1.79 a 7.68,7.68 0 0 0 2.23,0.82 c -0.29,2.45 -1,3.06 -3,3.06 h -3.55 c -2.78,0 -3.46,-0.64 -3.46,-2.71 v -2.31 h 2.55 v 2.29 c 0,0.57 0.18,0.64 1.17,0.64 z m 2.52,-9 h -9.09 v 0.95 h 9.13 z m 0,2.5 h -9.09 v 0.94 h 9.13 z m -7.45,-8.49 a 9.65,9.65 0 0 1 0.61,1.54 h 4.5 c 0.22,-0.51 0.46,-1.08 0.62,-1.54 z m 10,11.55 a 17.32,17.32 0 0 1 2.69,3.9 l -2.27,1 a 16.47,16.47 0 0 0 -2.53,-4 z"
         id="path849" /><path
         class="cls-1"
         d="m 131.39,302.82 c 0.6,0.8 2.12,3.2 2.47,3.77 l -1.5,1.75 c -0.22,-0.58 -0.57,-1.39 -1,-2.21 v 9.94 h -2.31 v -8.68 a 20.07,20.07 0 0 1 -2,4.61 15.64,15.64 0 0 0 -1.23,-2.63 20.88,20.88 0 0 0 3,-7.34 h -2.51 v -2.42 h 2.76 v -4.13 h 2.31 v 4.13 h 1.88 V 302 h -1.88 z m 11.29,-4 V 301 h 3.51 v 15 h -2.39 v -1.24 h -7.4 V 316 h -2.25 v -15 h 3.11 v -2.13 h -3.53 v -2.43 h 12.76 v 2.43 z m 1.12,13.55 v -3.35 h -1.52 c -1.47,0 -1.85,-0.5 -1.85,-2.31 v -3.46 h -0.92 v 1.19 a 7.12,7.12 0 0 1 -2.25,5.66 10.49,10.49 0 0 0 -0.86,-1 v 3.26 z m -7.4,-9.12 v 5 a 5.31,5.31 0 0 0 1.28,-3.84 v -1.14 z m 4.08,-4.43 h -1 V 301 h 1 z m 3.32,4.43 h -1.54 v 3.41 c 0,0.45 0.05,0.51 0.33,0.51 h 0.8 c 0.26,0 0.33,0 0.37,-0.13 v 0 z"
         id="path851" /><path
         class="cls-1"
         d="m 171.74,306.88 v 1.81 h 5 v 7.41 h -2.62 v -0.64 h -7.47 v 0.66 h -2.52 v -7.43 h 5 v -1.81 h -6.2 c -0.24,3.2 -0.95,6.77 -2.62,9.3 A 10.68,10.68 0 0 0 158,314.8 c 2.27,-3.33 2.47,-8.25 2.47,-11.76 v -6.46 h 16.64 v 6.09 h -5.33 v 1.87 h 6.42 v 2.34 z m -2.62,-2.34 v -1.87 h -6.05 V 303 c 0,0.47 0,1 0,1.5 z m -6.05,-5.66 v 1.5 h 11.34 v -1.5 z M 174.12,311 h -7.47 v 2.18 h 7.47 z"
         id="path853" /><path
         class="cls-1"
         d="m 210.12,298.9 c 0,0 0,0.88 0,1.19 -0.28,9.86 -0.53,13.36 -1.43,14.53 a 2.92,2.92 0 0 1 -2.12,1.21 25.23,25.23 0 0 1 -3.46,0.05 6.17,6.17 0 0 0 -0.86,-2.56 c 1.41,0.13 2.71,0.13 3.29,0.13 a 1.2,1.2 0 0 0 1,-0.37 c 0.64,-0.71 0.92,-4 1.17,-11.8 h -4.72 a 19.42,19.42 0 0 1 -1.94,3.48 18.68,18.68 0 0 0 -1.7,-1.23 v 10.3 h -5.89 v 1.61 H 191 v -16.39 h 2.49 a 23.32,23.32 0 0 0 0.64,-3.55 l 2.87,0.4 c -0.38,1.1 -0.77,2.21 -1.15,3.15 h 3.42 v 3.58 a 22.87,22.87 0 0 0 3,-7.1 l 2.51,0.57 c -0.24,0.95 -0.53,1.87 -0.86,2.8 z m -13.2,2.45 h -3.51 v 3.57 h 3.51 z m 0,10.16 v -4.32 h -3.51 v 4.32 z m 7.32,-1.19 a 48.11,48.11 0 0 0 -3.07,-5.09 l 2.05,-1.17 a 50.66,50.66 0 0 1 3.24,4.89 z"
         id="path855" /><path
         class="cls-1"
         d="m 242.14,297.05 v 2.33 h -4.46 v 1 h -2.62 v -1 h -5.53 v 1 H 227 v -1 h -4.4 v -2.33 h 4.4 v -1.52 h 2.58 v 1.52 h 5.53 v -1.52 h 2.62 v 1.52 z m -19,3.83 h 18.72 v 4.55 h -2.54 v -2.56 h -13.83 v 2.56 h -2.4 z m 1.7,8.43 h 15.39 v 6.83 h -2.63 v -0.62 h -10.3 v 0.62 h -2.51 z m 13.42,-5.58 v 4.78 h -11.62 v -4.78 z m -10.91,7.85 v 1.8 h 10.25 v -1.8 z m 8.31,-6.11 h -6.52 v 1.32 h 6.52 z"
         id="path857" /><path
         class="cls-1"
         d="m 259.29,311.73 c 0.33,0.2 0.73,0.51 1.28,0.84 1.35,0.79 3.29,0.88 5.62,0.88 a 72.39,72.39 0 0 0 8.69,-0.53 10.47,10.47 0 0 0 -0.71,2.58 c -2,0.13 -5.68,0.24 -8.07,0.24 -2.66,0 -4.41,-0.22 -5.79,-1 -0.82,-0.47 -1.48,-1 -1.9,-1 -0.64,0 -1.72,1.19 -2.69,2.43 l -1.57,-2.3 a 11,11 0 0 1 2.63,-1.85 v -5.62 h -2.49 V 304 h 5 z m -1.65,-10.47 a 20.88,20.88 0 0 0 -3.26,-3.62 l 1.94,-1.39 a 19.13,19.13 0 0 1 3.39,3.42 z m 5.62,-1 a 10,10 0 0 1 -1.19,1.85 15.08,15.08 0 0 0 -2.21,-1.21 12.63,12.63 0 0 0 2.56,-5.14 l 2.43,0.56 c -0.16,0.59 -0.36,1.14 -0.55,1.72 h 1.7 v -2.47 h 2.6 V 298 h 4.78 v 2.22 h -4.78 v 1.85 h 5.69 v 2.21 h -14.14 v -2.21 H 266 v -1.85 z M 261.72,312 v -6.4 h 11.06 v 6.4 z m 2.44,-2.1 h 6 v -2.2 h -6 z"
         id="path859" /><path
         class="cls-1"
         d="m 306.14,310.34 h -8.55 v 2.82 c 0,1.37 -0.33,2 -1.35,2.41 a 13.25,13.25 0 0 1 -4.32,0.42 9.91,9.91 0 0 0 -1.08,-2.54 c 1.41,0.07 3,0.07 3.49,0.05 0.49,-0.02 0.57,-0.12 0.57,-0.4 v -2.76 h -8.4 v -2.42 h 8.4 v -1.37 a 15.85,15.85 0 0 0 2.49,-1.28 h -6.94 V 303 h 9.94 l 0.53,-0.13 1.67,1.3 a 21.56,21.56 0 0 1 -5,3.33 v 0.42 h 8.55 z m -16.89,-6.52 h -2.46 V 299 h 3.37 a 19.21,19.21 0 0 0 -1.54,-2.3 l 2.22,-1 a 13.19,13.19 0 0 1 2,2.89 l -0.84,0.4 h 3.71 a 15,15 0 0 0 -1.44,-2.82 l 2.32,-0.86 a 12.25,12.25 0 0 1 1.74,3.17 l -1.3,0.51 h 2.87 a 24.27,24.27 0 0 0 1.89,-3.33 l 2.74,0.81 c -0.6,0.86 -1.26,1.72 -1.88,2.52 h 3.22 v 4.83 h -2.58 v -2.52 h -14.04 z"
         id="path861" /><path
         class="cls-1"
         d="m 306.2,270 h -86.53 v -86.5 h 86.53 z m -78.66,-7.87 h 70.8 v -70.8 h -70.8 z"
         id="path863" /><rect
         class="cls-1"
         x="258.98999"
         y="207.10001"
         width="7.8699999"
         height="39.330002"
         id="rect865" /><rect
         class="cls-1"
         x="243.25999"
         y="222.84"
         width="39.330002"
         height="7.8699999"
         id="rect867" /><path
         class="cls-1"
         d="M 148.87,270 H 62.33 V 26.16 h 86.54 z M 70.2,262.18 H 141 V 34 H 70.2 Z"
         id="path869" /><polygon
         class="cls-1"
         points="91.84,75.74 91.84,49.78 119.37,49.78 119.37,57.65 99.7,57.65 99.7,75.74 "
         id="polygon871" /><rect
         class="cls-1"
         x="91.839996"
         y="60.799999"
         width="25.18"
         height="7.8600001"
         id="rect873" /><rect
         class="cls-1"
         x="91.830002"
         y="117.44"
         width="27.540001"
         height="7.8600001"
         id="rect875" /><rect
         class="cls-1"
         x="101.66"
         y="117.44"
         width="7.8699999"
         height="25.92"
         id="rect877" /><polygon
         class="cls-1"
         points="99.68,226.81 99.68,238.6 119.35,238.6 119.35,246.47 91.81,246.47 91.81,218.94 119.35,218.94 119.35,226.81 "
         id="polygon879" /><rect
         class="cls-1"
         x="91.809998"
         y="228.78"
         width="23.610001"
         height="7.8600001"
         id="rect881" /><path
         class="cls-1"
         d="m 105.61,109.57 c -7.85,0 -13.77,-5.58 -13.77,-13 v -13 h 7.87 v 13 c 0,3.51 3.06,5.12 5.9,5.12 2.84,0 5.9,-1.61 5.9,-5.12 v -13 h 7.87 v 13 c -0.01,7.43 -5.92,13 -13.77,13 z"
         id="path883" /><path
         class="cls-1"
         d="m 105.61,177.21 c -7.85,0 -13.77,-5.58 -13.77,-13 v -13 h 7.87 v 13 c 0,3.51 3.06,5.12 5.9,5.12 2.84,0 5.9,-1.61 5.9,-5.12 v -13 h 7.87 v 13 c -0.01,7.42 -5.92,13 -13.77,13 z"
         id="path885" /><polygon
         class="cls-1"
         points="112.26,211.08 120.13,211.08 115.42,200.85 107.55,200.86 "
         id="polygon887" /><rect
         class="cls-1"
         x="91.809998"
         y="185.12"
         width="7.8699999"
         height="25.959999"
         id="rect889" /><path
         class="cls-1"
         d="m 91.81,204.79 v -7.86 h 18.49 a 2,2 0 0 0 0,-3.93 H 91.81 v -7.86 h 18.49 a 9.84,9.84 0 0 1 0,19.67 z"
         id="path891" /><path
         class="cls-1"
         d="M 227.53,270 H 141 V 104.84 h 86.53 z m -78.66,-7.87 h 70.79 V 112.7 h -70.79 z"
         id="path893" /><rect
         class="cls-1"
         x="166.56"
         y="132.38"
         width="35.400002"
         height="7.8699999"
         id="rect895" /><rect
         class="cls-1"
         x="164.59"
         y="144.17"
         width="39.34"
         height="7.8699999"
         id="rect897" /><rect
         class="cls-1"
         x="180.32001"
         y="128.44"
         width="7.8699999"
         height="41.290001"
         id="rect899" /><rect
         class="cls-1"
         x="166.55"
         y="207.10001"
         width="35.41"
         height="7.8699999"
         id="rect901" /><rect
         class="cls-1"
         x="164.59"
         y="220.86"
         width="39.34"
         height="7.8699999"
         id="rect903" /><rect
         class="cls-1"
         x="180.32001"
         y="205.14"
         width="7.8699999"
         height="41.299999"
         id="rect905" /><polygon
         class="cls-1"
         points="194.1,216.91 192.13,220.84 200,220.84 201.96,216.92 "
         id="polygon907" /><polygon
         class="cls-1"
         points="166.57,216.91 168.54,220.84 176.4,220.84 174.43,216.91 "
         id="polygon909" /><path
         class="cls-1"
         d="m 190.28,153.52 -0.12,-0.08 V 163 a 63.18,63.18 0 0 0 13.77,6.37 V 161 a 55.32,55.32 0 0 1 -13.65,-7.48 z"
         id="path911" /><path
         class="cls-1"
         d="m 164.59,161 v 8.38 A 63.4,63.4 0 0 0 178.36,163 v -9.58 l -0.11,0.08 a 55.56,55.56 0 0 1 -13.66,7.5 z"
         id="path913" /><path
         class="cls-1"
         d="m 190.28,230.23 -0.12,-0.09 v 9.58 a 63.65,63.65 0 0 0 13.77,6.37 v -8.39 a 56,56 0 0 1 -13.65,-7.47 z"
         id="path915" /><path
         class="cls-1"
         d="m 164.59,237.7 v 8.39 a 63.43,63.43 0 0 0 13.77,-6.37 v -9.58 l -0.11,0.09 a 55.53,55.53 0 0 1 -13.66,7.47 z"
         id="path917" /><path
         class="cls-1"
         d="m 62.27,327.26 h 3.28 l 2.52,6.93 c 0.32,0.92 0.6,1.9 0.9,2.84 h 0.1 c 0.32,-0.94 0.58,-1.92 0.9,-2.84 l 2.45,-6.93 h 3.28 v 14.8 H 73 v -6.17 c 0,-1.4 0.22,-3.46 0.38,-4.86 h -0.1 l -1.2,3.48 -2.27,6.22 h -1.7 l -2.3,-6.22 -1.18,-3.51 h -0.08 c 0.14,1.4 0.38,3.46 0.38,4.86 v 6.17 h -2.66 z"
         id="path919" /><path
         class="cls-1"
         d="m 82.77,327.26 h 3.48 l 4.75,14.8 h -3.1 l -1,-3.79 h -4.82 l -1,3.79 H 78 Z M 82.71,336 h 3.52 l -0.44,-1.62 c -0.46,-1.54 -0.86,-3.24 -1.28,-4.83 h -0.1 c -0.38,1.61 -0.82,3.29 -1.26,4.83 z"
         id="path921" /><path
         class="cls-1"
         d="m 93.35,327.26 h 3 v 6.43 h 0.06 l 4.9,-6.43 h 3.26 l -4.57,5.83 5.32,9 h -3.24 l -3.84,-6.65 -1.94,2.5 v 4.15 h -3 z"
         id="path923" /><path
         class="cls-1"
         d="m 107.65,327.26 h 3 v 14.8 h -3 z"
         id="path925" /><path
         class="cls-1"
         d="m 114.85,327.26 h 3 l 4.29,7.89 1.48,3.2 h 0.1 c -0.14,-1.54 -0.38,-3.5 -0.38,-5.18 v -5.91 h 2.8 v 14.8 h -3 l -4.27,-7.91 -1.5,-3.18 h -0.1 c 0.14,1.6 0.36,3.46 0.36,5.16 v 5.93 h -2.8 z"
         id="path927" /><path
         class="cls-1"
         d="m 129.68,334.73 c 0,-4.88 3.15,-7.73 7.09,-7.73 a 6.23,6.23 0 0 1 4.58,1.9 l -1.56,1.87 a 4,4 0 0 0 -2.92,-1.23 c -2.46,0 -4.18,1.91 -4.18,5.09 0,3.18 1.48,5.16 4.4,5.16 a 3,3 0 0 0 1.84,-0.56 v -2.92 h -2.62 v -2.42 h 5.26 v 6.68 a 7,7 0 0 1 -4.8,1.77 c -4.02,0 -7.09,-2.67 -7.09,-7.61 z"
         id="path929" /><path
         class="cls-1"
         d="m 150.48,327.26 h 4.86 c 3.27,0 5.79,1.16 5.79,4.65 0,3.49 -2.54,4.9 -5.71,4.9 h -2 v 5.25 h -3 z m 4.74,7.21 c 2,0 3,-0.86 3,-2.56 0,-1.7 -1.08,-2.29 -3.11,-2.29 h -1.68 v 4.85 z"
         id="path931" /><path
         class="cls-1"
         d="m 163.67,334.61 c 0,-4.81 2.7,-7.61 6.61,-7.61 3.91,0 6.62,2.82 6.62,7.61 0,4.79 -2.7,7.73 -6.62,7.73 -3.92,0 -6.61,-2.93 -6.61,-7.73 z m 10.21,0 c 0,-3.18 -1.4,-5.07 -3.6,-5.07 -2.2,0 -3.59,1.89 -3.59,5.07 0,3.18 1.39,5.18 3.59,5.18 2.2,0 3.6,-2.02 3.6,-5.18 z"
         id="path933" /><path
         class="cls-1"
         d="m 180.4,327.26 h 9.07 v 2.48 h -6.12 v 3.41 h 5.2 v 2.48 h -5.2 v 4 h 6.34 v 2.47 h -9.29 z"
         id="path935" /><path
         class="cls-1"
         d="m 196.22,329.74 h -4.15 v -2.48 h 11.31 v 2.48 h -4.2 v 12.32 h -3 z"
         id="path937" /><path
         class="cls-1"
         d="m 206.37,327.26 h 3 v 14.8 h -3 z"
         id="path939" /><path
         class="cls-1"
         d="m 212.83,334.73 c 0,-4.88 3.14,-7.73 6.87,-7.73 a 6,6 0 0 1 4.34,1.9 l -1.54,1.87 a 3.89,3.89 0 0 0 -2.74,-1.23 c -2.24,0 -3.91,1.91 -3.91,5.09 0,3.18 1.51,5.16 3.85,5.16 a 4.08,4.08 0 0 0 3.06,-1.46 l 1.56,1.84 a 6,6 0 0 1 -4.72,2.17 c -3.73,0 -6.77,-2.67 -6.77,-7.61 z"
         id="path941" /><path
         class="cls-1"
         d="m 232.43,327.26 h 3 v 5.83 H 241 v -5.83 h 2.93 v 14.8 H 241 v -6.39 h -5.6 v 6.39 h -3 z"
         id="path943" /><path
         class="cls-1"
         d="m 251,327.26 h 3.47 l 4.76,14.8 h -3.1 l -1,-3.79 h -4.83 l -1,3.79 h -3 z m -0.06,8.71 h 3.51 l -0.44,-1.62 c -0.45,-1.54 -0.85,-3.24 -1.27,-4.83 h -0.1 c -0.38,1.61 -0.82,3.29 -1.26,4.83 z"
         id="path945" /><path
         class="cls-1"
         d="m 261.57,327.26 h 4.89 c 3,0 5.36,0.9 5.36,3.65 a 3.36,3.36 0 0 1 -2,3.2 v 0.1 a 3.37,3.37 0 0 1 2.78,3.5 c 0,3 -2.48,4.35 -5.74,4.35 h -5.27 z m 4.67,6 c 1.88,0 2.7,-0.76 2.7,-1.94 0,-1.18 -0.88,-1.81 -2.65,-1.81 h -1.76 v 3.75 z m 0.34,6.5 c 2,0 3.12,-0.72 3.12,-2.26 0,-1.54 -1.08,-2.06 -3.12,-2.06 h -2.05 v 4.32 z"
         id="path947" /><path
         class="cls-1"
         d="m 275.78,327.26 h 3 v 14.8 h -3 z"
         id="path949" /><path
         class="cls-1"
         d="m 285.91,329.74 h -4.16 v -2.48 h 11.31 v 2.48 h -4.19 v 12.32 h -3 z"
         id="path951" /><path
         class="cls-1"
         d="m 298,327.26 h 3.48 l 4.75,14.8 h -3.1 l -1,-3.79 h -4.8 l -1,3.79 h -3 z m -0.06,8.71 h 3.52 l -0.44,-1.62 c -0.46,-1.54 -0.86,-3.24 -1.28,-4.83 h -0.1 c -0.38,1.61 -0.82,3.29 -1.26,4.83 z"
         id="path953" /></g></g></svg>
