<svg xmlns="http://www.w3.org/2000/svg" xmlns:xlink="http://www.w3.org/1999/xlink" width="752" height="381" viewBox="0 0 752 381">
    <defs>
        <path id="a" d="M0 381h752V0H0z"/>
        <linearGradient id="c" x1="0%" y1="0%" y2="100%">
            <stop offset="0%" stop-color="#C9FFE3"/>
            <stop offset="100%" stop-color="#A3F8FF"/>
        </linearGradient>
        <linearGradient id="d" x1="50%" x2="50%" y1="0%" y2="100%">
            <stop offset="0%" stop-color="#94D9FF"/>
            <stop offset="100%" stop-color="#2DC19A"/>
        </linearGradient>
        <linearGradient id="e" x1="0%" y1="0%" y2="100%">
            <stop offset="0%" stop-color="#DEFFC9"/>
            <stop offset="100%" stop-color="#A3F8FF"/>
        </linearGradient>
        <linearGradient id="f" x1="0%" y1="0%" y2="100%">
            <stop offset="0%" stop-color="#DEFFC9"/>
            <stop offset="46.265%" stop-color="#C3FCE2"/>
            <stop offset="100%" stop-color="#A3F8FF"/>
        </linearGradient>
    </defs>
    <g fill="none" fill-rule="evenodd">
        <path fill="#625EA8" fill-opacity=".38" d="M645.035 381H14.345C5.234 365.746 0 347.907 0 328.842c0-56.208 45.502-101.778 101.633-101.778 5.802 0 11.486.495 17.018 1.431C118.645 115.797 209.32 25 321.181 25c65.088 0 122.998 30.752 160.05 78.524 14.41-4.069 29.61-6.252 45.324-6.252 91.926 0 166.445 74.62 166.445 166.67 0 45.623-18.309 86.96-47.965 117.058z"/>
        <path fill="#3B3870" d="M537.705 325h-367.41c-6.79 0-12.295-5.596-12.295-12.5 0-6.903 5.505-12.5 12.295-12.5h367.41c6.79 0 12.295 5.597 12.295 12.5 0 6.904-5.504 12.5-12.295 12.5"/>
        <g fill="#77CDD1" opacity=".586">
            <path d="M490 252h117c-7.267-25.402-30.706-44-58.5-44s-51.233 18.598-58.5 44zM752 252H651a60.764 60.764 0 0 1 23.083-32.837 60.365 60.365 0 0 1 9.534-5.582 59.738 59.738 0 0 1 6.928-2.721 59.842 59.842 0 0 1 18.32-2.86c16.924 0 32.213 7.047 43.135 18.388V252z"/>
            <path d="M549 255h167c-10.372-36.949-43.828-64-83.5-64s-73.128 27.051-83.5 64z"/>
        </g>
        <mask id="b" fill="#fff">
            <use xlink:href="#a"/>
        </mask>
        <path fill="#DEDEDE" d="M348 183h150V0H348z" mask="url(#b)"/>
        <path fill="#B2B2B2" d="M509 237h-25V12.52C484 5.607 489.596 0 496.5 0S509 5.606 509 12.52V237z" mask="url(#b)"/>
        <path fill="#DEDEDE" d="M483 183H321V12.808C321 5.734 326.719 0 333.774 0H483v183z" mask="url(#b)"/>
        <path fill="#989898" d="M392.206 31h-49.412c-1.543 0-2.794-1.343-2.794-3s1.25-3 2.794-3h49.412c1.543 0 2.794 1.343 2.794 3s-1.25 3-2.794 3M414.794 31c-1.543 0-2.794-1.343-2.794-3s1.25-3 2.794-3h49.412c1.543 0 2.794 1.343 2.794 3s-1.25 3-2.794 3h-49.412z" mask="url(#b)"/>
        <path fill="#CBCBCB" d="M342.794 42c-1.543 0-2.794-1.343-2.794-3s1.25-3 2.794-3h49.412c1.543 0 2.794 1.343 2.794 3s-1.25 3-2.794 3h-49.412zM464.206 42h-49.412c-1.543 0-2.794-1.343-2.794-3s1.25-3 2.794-3h49.412c1.543 0 2.794 1.343 2.794 3s-1.25 3-2.794 3M392.206 51h-49.412c-1.543 0-2.794-1.343-2.794-3s1.25-3 2.794-3h49.412c1.543 0 2.794 1.343 2.794 3s-1.25 3-2.794 3M464.206 51h-49.412c-1.543 0-2.794-1.343-2.794-3s1.25-3 2.794-3h49.412c1.543 0 2.794 1.343 2.794 3s-1.25 3-2.794 3M392.206 61h-49.412c-1.543 0-2.794-1.343-2.794-3s1.25-3 2.794-3h49.412c1.543 0 2.794 1.343 2.794 3s-1.25 3-2.794 3M464.206 61h-49.412c-1.543 0-2.794-1.343-2.794-3s1.25-3 2.794-3h49.412c1.543 0 2.794 1.343 2.794 3s-1.25 3-2.794 3M392.206 72h-49.412c-1.543 0-2.794-1.343-2.794-3s1.25-3 2.794-3h49.412c1.543 0 2.794 1.343 2.794 3s-1.25 3-2.794 3M464.206 72h-49.412c-1.543 0-2.794-1.343-2.794-3s1.25-3 2.794-3h49.412c1.543 0 2.794 1.343 2.794 3s-1.25 3-2.794 3M392.206 79h-49.412c-1.543 0-2.794-1.343-2.794-3s1.25-3 2.794-3h49.412c1.543 0 2.794 1.343 2.794 3s-1.25 3-2.794 3M464.206 79h-49.412c-1.543 0-2.794-1.343-2.794-3s1.25-3 2.794-3h49.412c1.543 0 2.794 1.343 2.794 3s-1.25 3-2.794 3M373.188 90h-30.376c-1.553 0-2.812-1.343-2.812-3s1.259-3 2.812-3h30.376c1.553 0 2.812 1.343 2.812 3s-1.259 3-2.812 3M450.215 90h-35.43c-1.538 0-2.785-1.343-2.785-3s1.247-3 2.785-3h35.43c1.538 0 2.785 1.343 2.785 3s-1.247 3-2.785 3" mask="url(#b)"/>
        <path fill="#989898" d="M392.206 109h-49.412c-1.543 0-2.794-1.343-2.794-3s1.25-3 2.794-3h49.412c1.543 0 2.794 1.343 2.794 3s-1.25 3-2.794 3" mask="url(#b)"/>
        <path fill="#CBCBCB" d="M392.206 118h-49.412c-1.543 0-2.794-1.343-2.794-3s1.25-3 2.794-3h49.412c1.543 0 2.794 1.343 2.794 3s-1.25 3-2.794 3M392.206 128h-49.412c-1.543 0-2.794-1.343-2.794-3s1.25-3 2.794-3h49.412c1.543 0 2.794 1.343 2.794 3s-1.25 3-2.794 3M392.206 139h-49.412c-1.543 0-2.794-1.343-2.794-3s1.25-3 2.794-3h49.412c1.543 0 2.794 1.343 2.794 3s-1.25 3-2.794 3M392.206 150h-49.412c-1.543 0-2.794-1.343-2.794-3s1.25-3 2.794-3h49.412c1.543 0 2.794 1.343 2.794 3s-1.25 3-2.794 3M392.206 157h-49.412c-1.543 0-2.794-1.343-2.794-3s1.25-3 2.794-3h49.412c1.543 0 2.794 1.343 2.794 3s-1.25 3-2.794 3M359.262 168h-16.524c-1.512 0-2.738-1.343-2.738-3s1.226-3 2.738-3h16.524c1.512 0 2.738 1.343 2.738 3s-1.226 3-2.738 3" mask="url(#b)"/>
        <path fill="#989898" d="M412 169h55v-66h-55z" mask="url(#b)"/>
        <path fill="#FFF" d="M298 231h150V48H298z" mask="url(#b)"/>
        <path fill="#B2B2B2" d="M460 231h-25V60.525C435 53.607 440.596 48 447.5 48S460 53.607 460 60.525V231z" mask="url(#b)"/>
        <g fill="#FFF" mask="url(#b)" opacity=".417">
            <path d="M538 123h103c-6.397-22.516-27.032-39-51.5-39s-45.103 16.484-51.5 39zM752 123h-67c4.405-15.648 15.627-28.388 30.206-34.698A52.227 52.227 0 0 1 736.02 84c5.572 0 10.935.872 15.979 2.485V123z"/>
            <path d="M588 122h147c-9.13-31.753-38.58-55-73.5-55s-64.37 23.247-73.5 55z"/>
        </g>
        <path fill="#8DF2F7" d="M156.5 151c-29.22 0-53.86 19.865-61.5 47h123c-7.64-27.135-32.28-47-61.5-47" mask="url(#b)" opacity=".629"/>
        <g fill="#77CDD1" mask="url(#b)" opacity=".591">
            <path d="M51 281h106c-6.584-22.516-27.82-39-53-39s-46.417 16.484-53 39zM195 281h106c-6.584-22.516-27.82-39-53-39s-46.416 16.484-53 39z"/>
            <path d="M178.5 223c-35.87 0-66.122 24.515-75.5 58h151c-9.379-33.485-39.63-58-75.5-58"/>
        </g>
        <path fill="#F1F1F1" d="M327.705 275L326 298h59l-1.705-23z" mask="url(#b)"/>
        <path fill="gray" d="M383.057 262h-54.114L328 274h56z" mask="url(#b)"/>
        <path fill="#FFF" d="M402 306h-90v-5.238c0-3.182 2.304-5.762 5.147-5.762h79.706c2.843 0 5.147 2.58 5.147 5.762V306z" mask="url(#b)"/>
        <path fill="#3B3E54" d="M488.89 73H223.11c-4.48 0-8.11 3.616-8.11 8.077V240h282V81.077c0-4.46-3.63-8.077-8.11-8.077" mask="url(#b)"/>
        <path fill="#FFF" d="M382.227 240H215v18.994c0 4.422 3.63 8.006 8.11 8.006h265.78c4.48 0 8.11-3.584 8.11-8.006V240H382.227z" mask="url(#b)"/>
        <path fill="url(#c)" d="M324.786 83H226v147h261V83z" mask="url(#b)"/>
        <path fill="#FFF" d="M433 229H271V60.759C271 53.712 276.719 48 283.774 48H433v181z" mask="url(#b)"/>
        <path fill="#989898" d="M342.206 79h-49.412c-1.543 0-2.794-1.343-2.794-3s1.251-3 2.794-3h49.412c1.543 0 2.794 1.343 2.794 3s-1.25 3-2.794 3M414.206 79h-49.412c-1.543 0-2.794-1.343-2.794-3s1.251-3 2.794-3h49.412c1.543 0 2.794 1.343 2.794 3s-1.25 3-2.794 3" mask="url(#b)"/>
        <path fill="#CBCBCB" d="M342.206 89h-49.412c-1.543 0-2.794-1.343-2.794-3s1.251-3 2.794-3h49.412c1.543 0 2.794 1.343 2.794 3s-1.25 3-2.794 3M414.206 89h-49.412c-1.543 0-2.794-1.343-2.794-3s1.251-3 2.794-3h49.412c1.543 0 2.794 1.343 2.794 3s-1.25 3-2.794 3M342.206 100h-49.412c-1.543 0-2.794-1.343-2.794-3s1.251-3 2.794-3h49.412c1.543 0 2.794 1.343 2.794 3s-1.25 3-2.794 3M414.206 100h-49.412c-1.543 0-2.794-1.343-2.794-3s1.251-3 2.794-3h49.412c1.543 0 2.794 1.343 2.794 3s-1.25 3-2.794 3M342.206 109h-49.412c-1.543 0-2.794-1.343-2.794-3s1.251-3 2.794-3h49.412c1.543 0 2.794 1.343 2.794 3s-1.25 3-2.794 3M414.206 109h-49.412c-1.543 0-2.794-1.343-2.794-3s1.251-3 2.794-3h49.412c1.543 0 2.794 1.343 2.794 3s-1.25 3-2.794 3M342.206 118h-49.412c-1.543 0-2.794-1.343-2.794-3s1.251-3 2.794-3h49.412c1.543 0 2.794 1.343 2.794 3s-1.25 3-2.794 3M414.206 118h-49.412c-1.543 0-2.794-1.343-2.794-3s1.251-3 2.794-3h49.412c1.543 0 2.794 1.343 2.794 3s-1.25 3-2.794 3M342.206 129h-49.412c-1.543 0-2.794-1.343-2.794-3s1.251-3 2.794-3h49.412c1.543 0 2.794 1.343 2.794 3s-1.25 3-2.794 3M414.206 129h-49.412c-1.543 0-2.794-1.343-2.794-3s1.251-3 2.794-3h49.412c1.543 0 2.794 1.343 2.794 3s-1.25 3-2.794 3" mask="url(#b)"/>
        <path fill="#989898" d="M317.188 139h-30.376c-1.553 0-2.812-1.343-2.812-3s1.259-3 2.812-3h30.376c1.553 0 2.812 1.343 2.812 3s-1.259 3-2.812 3M276.188 139h-30.376c-1.553 0-2.812-1.343-2.812-3s1.259-3 2.812-3h30.376c1.553 0 2.812 1.343 2.812 3s-1.259 3-2.812 3" mask="url(#b)"/>
        <path fill="#CBCBCB" d="M400.215 139h-35.43c-1.538 0-2.785-1.343-2.785-3s1.247-3 2.785-3h35.43c1.538 0 2.785 1.343 2.785 3s-1.247 3-2.785 3" mask="url(#b)"/>
        <path fill="#989898" d="M343.235 157h-28.47c-1.527 0-2.765-1.343-2.765-3s1.238-3 2.765-3h28.47c1.527 0 2.765 1.343 2.765 3s-1.238 3-2.765 3" mask="url(#b)"/>
        <path fill="#CBCBCB" d="M342.206 167h-49.412c-1.543 0-2.794-1.343-2.794-3s1.251-3 2.794-3h49.412c1.543 0 2.794 1.343 2.794 3s-1.25 3-2.794 3M342.206 178h-49.412c-1.543 0-2.794-1.343-2.794-3s1.251-3 2.794-3h49.412c1.543 0 2.794 1.343 2.794 3s-1.25 3-2.794 3M343.18 186h-30.36c-1.557 0-2.82-1.343-2.82-3s1.263-3 2.82-3h30.36c1.558 0 2.82 1.343 2.82 3s-1.262 3-2.82 3M342.206 197h-49.412c-1.543 0-2.794-1.343-2.794-3s1.251-3 2.794-3h49.412c1.543 0 2.794 1.343 2.794 3s-1.25 3-2.794 3M342.206 207h-49.412c-1.543 0-2.794-1.343-2.794-3s1.251-3 2.794-3h49.412c1.543 0 2.794 1.343 2.794 3s-1.25 3-2.794 3M309.262 215h-16.524c-1.512 0-2.738-1.343-2.738-3s1.226-3 2.738-3h16.524c1.512 0 2.738 1.343 2.738 3s-1.226 3-2.738 3" mask="url(#b)"/>
        <path fill="#989898" d="M362 217h55v-66h-55zM278.272 157h-19.544c-1.506 0-2.728-1.343-2.728-3s1.222-3 2.728-3h19.544c1.507 0 2.728 1.343 2.728 3s-1.221 3-2.728 3" mask="url(#b)"/>
        <path fill="#FFF" d="M246.18 31h-25.36c-1.557 0-2.82-1.343-2.82-3s1.263-3 2.82-3h25.36c1.557 0 2.82 1.343 2.82 3s-1.263 3-2.82 3M284.18 31h-25.36c-1.557 0-2.82-1.343-2.82-3s1.263-3 2.82-3h25.36c1.557 0 2.82 1.343 2.82 3s-1.263 3-2.82 3M204.243 31h-81.486c-1.523 0-2.757-1.343-2.757-3s1.234-3 2.757-3h81.486c1.523 0 2.757 1.343 2.757 3s-1.234 3-2.757 3M109.082 31H92.917C91.306 31 90 29.657 90 28s1.306-3 2.917-3h16.165c1.612 0 2.918 1.343 2.918 3s-1.306 3-2.918 3M184.082 42h-16.165c-1.61 0-2.917-1.343-2.917-3s1.306-3 2.917-3h16.165c1.612 0 2.918 1.343 2.918 3s-1.306 3-2.918 3M126.158 42H50.843C49.273 42 48 40.657 48 39s1.273-3 2.843-3h75.315c1.57 0 2.842 1.343 2.842 3s-1.273 3-2.842 3M126.158 51H50.843C49.273 51 48 49.657 48 48s1.273-3 2.843-3h75.315c1.57 0 2.842 1.343 2.842 3s-1.273 3-2.842 3M126.158 61H50.843C49.273 61 48 59.657 48 58s1.273-3 2.843-3h75.315c1.57 0 2.842 1.343 2.842 3s-1.273 3-2.842 3M126.158 72H50.843C49.273 72 48 70.657 48 69s1.273-3 2.843-3h75.315c1.57 0 2.842 1.343 2.842 3s-1.273 3-2.842 3M126.158 81H50.843C49.273 81 48 79.657 48 78s1.273-3 2.843-3h75.315c1.57 0 2.842 1.343 2.842 3s-1.273 3-2.842 3M126.158 92H50.843C49.273 92 48 90.657 48 89s1.273-3 2.843-3h75.315c1.57 0 2.842 1.343 2.842 3s-1.273 3-2.842 3M126.158 101H50.843C49.273 101 48 99.657 48 98s1.273-3 2.843-3h75.315c1.57 0 2.842 1.343 2.842 3s-1.273 3-2.842 3M126.158 112H50.843c-1.57 0-2.843-1.343-2.843-3s1.273-3 2.843-3h75.315c1.57 0 2.842 1.343 2.842 3s-1.273 3-2.842 3M126.158 123H50.843c-1.57 0-2.843-1.343-2.843-3s1.273-3 2.843-3h75.315c1.57 0 2.842 1.343 2.842 3s-1.273 3-2.842 3M126.158 132H50.843c-1.57 0-2.843-1.343-2.843-3s1.273-3 2.843-3h75.315c1.57 0 2.842 1.343 2.842 3s-1.273 3-2.842 3" mask="url(#b)" opacity=".525"/>
        <path fill="#3B3870" d="M752 215v6h-7.97c-1.675 0-3.03-1.343-3.03-3.004a3.002 3.002 0 0 1 3.03-2.996H752zM727.243 221h-81.486c-1.523 0-2.757-1.343-2.757-3s1.234-3 2.757-3h81.486c1.522 0 2.757 1.343 2.757 3s-1.235 3-2.757 3M634.082 221h-16.165c-1.61 0-2.917-1.343-2.917-3s1.306-3 2.917-3h16.165c1.612 0 2.918 1.343 2.918 3s-1.306 3-2.918 3M707.082 229h-16.165c-1.61 0-2.917-1.343-2.917-3s1.306-3 2.917-3h16.165c1.612 0 2.918 1.343 2.918 3s-1.306 3-2.918 3M651.157 229h-75.314c-1.57 0-2.843-1.343-2.843-3s1.273-3 2.843-3h75.314c1.57 0 2.843 1.343 2.843 3s-1.273 3-2.843 3M651.157 242h-75.314c-1.57 0-2.843-1.343-2.843-3s1.273-3 2.843-3h75.314c1.57 0 2.843 1.343 2.843 3s-1.273 3-2.843 3M651.157 251h-75.314c-1.57 0-2.843-1.343-2.843-3s1.273-3 2.843-3h75.314c1.57 0 2.843 1.343 2.843 3s-1.273 3-2.843 3M651.157 262h-75.314c-1.57 0-2.843-1.343-2.843-3s1.273-3 2.843-3h75.314c1.57 0 2.843 1.343 2.843 3s-1.273 3-2.843 3M651.157 271h-75.314c-1.57 0-2.843-1.343-2.843-3s1.273-3 2.843-3h75.314c1.57 0 2.843 1.343 2.843 3s-1.273 3-2.843 3M651.157 281h-75.314c-1.57 0-2.843-1.343-2.843-3s1.273-3 2.843-3h75.314c1.57 0 2.843 1.343 2.843 3s-1.273 3-2.843 3M651.157 292h-75.314c-1.57 0-2.843-1.343-2.843-3s1.273-3 2.843-3h75.314c1.57 0 2.843 1.343 2.843 3s-1.273 3-2.843 3M651.157 301h-75.314c-1.57 0-2.843-1.343-2.843-3s1.273-3 2.843-3h75.314c1.57 0 2.843 1.343 2.843 3s-1.273 3-2.843 3M651.157 312h-75.314c-1.57 0-2.843-1.343-2.843-3s1.273-3 2.843-3h75.314c1.57 0 2.843 1.343 2.843 3s-1.273 3-2.843 3M651.157 321h-75.314c-1.57 0-2.843-1.343-2.843-3s1.273-3 2.843-3h75.314c1.57 0 2.843 1.343 2.843 3s-1.273 3-2.843 3" mask="url(#b)" opacity=".505"/>
        <path fill="#989898" d="M280.105 186h-38.21c-1.6 0-2.895-1.343-2.895-3s1.296-3 2.894-3h38.211c1.599 0 2.895 1.343 2.895 3s-1.296 3-2.895 3" mask="url(#b)"/>
        <path fill="#FFF" d="M144.005 263.874a1.739 1.739 0 0 1 1.96-1.86l12.498 1.527a1.74 1.74 0 0 1 1.524 1.935 1.748 1.748 0 0 1-1.952 1.51l-12.498-1.527a1.744 1.744 0 0 1-1.532-1.585" mask="url(#b)"/>
        <path fill="url(#d)" d="M147.862 262.834s-4.106-2.585-4.638-1.617c-.532.967-6.862 15.36-6.171 15.699 2.359 1.155 9.432-9.95 9.65-11.204.22-1.254 1.76-2.517 1.159-2.878" mask="url(#b)"/>
        <path fill="#FFF" d="M253 161.845s6.3-6.115 8.494-5.836c2.193.28-3.146 6.778-8.312 7.991l-.182-2.155z" mask="url(#b)"/>
        <path fill="url(#e)" d="M253.905 159c.732 1.167 1.44 2.312 2.095 3.489-18.592 11.277-28.64 15.115-50.05 10.761-3.276-.666-3.396-1.949-2.404-4.524-.439-.33-.45-.31 0 0 .991-2.576 1.85-2.631 5.038-1.942 20.834 4.504 26.227.615 45.321-7.784" mask="url(#b)"/>
        <path fill="#FFF" d="M209.749 316c-.116 0-.233-.012-.35-.036a1.768 1.768 0 0 1-1.364-2.086l2.507-12.462a1.748 1.748 0 0 1 2.06-1.38 1.767 1.767 0 0 1 1.362 2.086l-2.506 12.462A1.753 1.753 0 0 1 209.75 316" mask="url(#b)"/>
        <path fill="#1B1C26" d="M212.725 308a39.678 39.678 0 0 1-5.084-.493c5.059-28.46 8.888-66.66-4.641-93.262A864.644 864.644 0 0 1 215.376 208c9.886 23.178 1.466 75.517-2.651 100" mask="url(#b)"/>
        <path fill="#282A40" d="M150 265.935c.2-1.765.475-3.512.821-5.253 41.608 5.393 57.605-7.145 48.564-51.077 4.688-1.265 9.398-2.43 14.109-3.605 4.078 49.388-16.444 65.56-63.494 59.935" mask="url(#b)"/>
        <path fill="#42210B" d="M211.862 145.752c-1.526-1.099-3.912-1.032-5.145.456-1.233 1.49-.752 4.115.506 5.635 1.26 1.52 4.97 1.546 6.204.058 1.233-1.49.369-4.757-1.565-6.149M190.025 154.939c-2.289-3.06-7.28-4.888-11.015-3.427-3.734 1.46-4.823 6.195-3.423 9.73 1.401 3.537 7.547 7.06 13.288 5.282 3.832-1.187 4.049-7.712 1.15-11.585" mask="url(#b)"/>
        <path fill="#42210B" d="M192.794 152.83c-1.53-2.152-4.816-3.479-7.243-2.505-2.426.973-3.086 4.253-2.131 6.726.955 2.474 6 4.688 8.428 3.714 2.426-.973 2.885-5.21.946-7.935" mask="url(#b)"/>
        <path fill="#42210B" d="M204.935 147s-5.22 3.928-8.591 3.566c-3.372-.361-5.13-.97-8.374 1.925-3.243 2.896-6.12-1.385-8.478 2.525-2.357 3.91 4.144 13.895 11.294 10.164 5.889-3.073 4.205-4.51 8.338-4.166 1.632.135 4.595-.116 7.037-2.284 2.443-2.167-1.226-11.73-1.226-11.73" mask="url(#b)"/>
        <path fill="#FFF" d="M200 154.727c0 5.122 3.462 9.273 6.5 9.273s4.5-4.151 4.5-9.273c0-5.12-2.463-7.727-5.5-7.727s-5.5 2.606-5.5 7.727" mask="url(#b)"/>
        <path fill="#FFF" d="M200 156.175c0 .8 1.136 1.825 1.964 1.825.829 0 1.036-.65 1.036-1.45 0-.8-.672-1.55-1.5-1.55s-1.5.374-1.5 1.175" mask="url(#b)"/>
        <path fill="#42210B" d="M200.655 151.73s1.002-3.054 3.38-4.158c2.377-1.103 6.96-.913 7.95 3.314 0 0 .43 3.068-3.296 3.276-3.725.208-2.93-1.7-4.862 0-1.933 1.7-3.46.22-3.827.618l.655-3.05z" mask="url(#b)"/>
        <path fill="url(#d)" d="M218.973 218.995c-3.171.072-7.3-.593-11.2-2.525-2.998-1.484-6.446-2-9.299-2.123-.716-10.11-2.417-36.749-.795-41.665 2.015-6.095 5.61-8.682 5.61-8.682s2.287 1.979 3.988 1.83c1.7-.155 3.684 5.59 6.028 9.248 2.35 3.659 4.281 4.88 2.277 10.48-.858 2.412 3.815 29.928 3.39 33.437" mask="url(#b)"/>
        <path fill="#FFF" d="M201 158.509l5.55-.509c.074.713.655 7.504.373 10.063-.203.789-1.587 1.15-3.09.808-1.351-.308-2.33-1.079-2.368-1.805h-.006c.169-1.535-.2-6.066-.459-8.557" mask="url(#b)"/>
        <path fill="url(#d)" d="M208.474 312.236s-1.067 4.382 0 4.503c1.067.122 16.43.583 16.52-.121.308-2.406-12.251-4.625-13.482-4.382-1.232.243-2.898-.636-3.038 0" mask="url(#b)"/>
        <path fill="#FFF" d="M237 189.626s7.937-6.105 10.462-5.596c2.526.509-4.329 7.122-10.462 7.97v-2.374z" mask="url(#b)"/>
        <path fill="url(#e)" d="M239.203 189.112c.585 1.278 1.197 2.626 1.797 3.769-22.061 10.391-38.286 12.466-43.785-15.075-.84-4.213.935-3.458 2.69-4.806 2.99.52 3.743-.122 4.28 3.818 3.511 25.755 15.917 17.797 35.018 12.294" mask="url(#b)" opacity=".917"/>
        <path fill="#FFF" d="M472.251 316c.116 0 .233-.012.35-.036a1.768 1.768 0 0 0 1.363-2.086l-2.506-12.462a1.748 1.748 0 0 0-2.06-1.38 1.768 1.768 0 0 0-1.362 2.086l2.506 12.462a1.753 1.753 0 0 0 1.71 1.416" mask="url(#b)"/>
        <path fill="url(#d)" d="M475.526 312.236s1.067 4.382 0 4.504c-1.068.121-16.43.582-16.52-.122-.308-2.406 12.251-4.626 13.482-4.382 1.232.243 2.898-.636 3.038 0" mask="url(#b)"/>
        <path fill="#FFF" d="M401 167.637s-5.033-8.399-7.331-8.632c-2.298-.234 1.668 8.355 6.657 10.995l.674-2.363z" mask="url(#b)"/>
        <path fill="url(#e)" d="M401.667 166c-.887 1.24-1.795 2.401-2.667 3.585 17.866 14.984 31.636 16.452 50.786 4.146 2.93-1.882 2.653-3.107.902-5.47.212-.507.24-.473 0 0-1.75-2.363-2.663-2.406-5.639-.498-19.46 12.47-23.55 9.801-43.382-1.763" mask="url(#b)"/>
        <path fill="#FFF" d="M442.251 316c.116 0 .233-.012.35-.036a1.768 1.768 0 0 0 1.363-2.086l-2.506-12.462a1.748 1.748 0 0 0-2.06-1.38 1.768 1.768 0 0 0-1.362 2.086l2.506 12.462a1.753 1.753 0 0 0 1.71 1.416" mask="url(#b)"/>
        <path fill="#292B3B" d="M439.131 308a48.034 48.034 0 0 0 5.682-.508c-5.654-29.315-9.934-68.66 5.187-96.06A998.91 998.91 0 0 0 436.169 205c-11.05 23.873-1.64 77.782 2.962 103" mask="url(#b)"/>
        <path fill="#3B3E54" d="M468.618 308c1.818-.55 3.627-1.135 5.382-1.87-13.592-27.086-23.54-69.72-21.163-100.557-4.941-.26-9.892-.428-14.837-.573 1.852 30.861 18.86 75.182 30.618 103" mask="url(#b)"/>
        <path fill="url(#d)" d="M443.526 312.236s1.067 4.382 0 4.504c-1.068.121-16.43.582-16.52-.122-.308-2.406 12.251-4.626 13.483-4.382 1.23.243 2.897-.636 3.037 0M454.402 214c-2.47-.95-6.038-1.87-12.26-2.13-4.227-.174-7.545-.03-10.142.31 10.884-22.733 12.77-34.062 11.784-40.445a8.703 8.703 0 0 1 3.41-8.334l1.022-.766c4.754-3.553 11.712-1.015 12.852 4.716a46.12 46.12 0 0 1 .808 6.578c.623 11.741-.982 24.513-7.474 40.071" mask="url(#b)"/>
        <path fill="#FFF" d="M448.364 206s-9.06 1.328-10.253 3.555c-1.193 2.227 7.555 2.068 11.889-1.807L448.364 206z" mask="url(#b)"/>
        <path fill="url(#f)" d="M446 205c.604 1.365 1.194 2.727 1.676 4 23.141-9.52 35.807-24.028 14.213-43.242-3.303-2.939-3.471-1.698-5.326.135-.702.103-.483-.013 0 0-1.855 1.834-2.713 3.108.525 5.561C478.25 187.493 462.393 194.631 446 205" mask="url(#b)"/>
        <path fill="#FFF" d="M456.16 154.264c-1.808 5.028-6.368 7.68-9.083 6.429-2.714-1.25-2.556-5.93-.748-10.958 1.807-5.028 4.928-6.573 7.643-5.323 2.714 1.25 3.995 4.823 2.187 9.852" mask="url(#b)"/>
        <path fill="#FFF" d="M456.852 152.674c-.368.81-1.737 1.518-2.392 1.28-.655-.24-.52-.955-.152-1.764.368-.81 1.243-1.373 1.898-1.135.655.239 1.014.81.646 1.62" mask="url(#b)"/>
        <path fill="#42210B" d="M456.991 149.706s.227-3.44-1.64-5.5c-1.865-2.062-6.369-3.734-8.98.06 0 0-1.617 2.872 1.903 4.591 3.52 1.72 3.497-.498 4.7 1.975 1.204 2.473 3.257 1.624 3.457 2.168l.56-3.294z" mask="url(#b)"/>
        <path fill="#FFF" d="M455 151.509l-5.549-.509c-.075.713-.656 7.504-.374 10.063.203.788 1.587 1.15 3.09.808 1.351-.308 2.33-1.08 2.368-1.804l.006-.002c-.169-1.534.2-6.065.459-8.556" mask="url(#b)"/>
        <path fill="#42210B" d="M452.461 152.858c-.917-.721-1.488.217-3.118 1.69-1.625 1.474-4.945 1.86-5.995-2.663-.669-2.882-1.346 2.194-1.348 2.199.122 2.452.986 3.772 2.67 4.505 2.326 1.012 5.587.129 8.173-2.339.256-1.266.244-2.9-.382-3.392" mask="url(#b)"/>
        <path fill="#42210B" d="M443.865 155l.209.043c1.076.224 5.977 1.302 6.777 2.452.9 1.295-2.53-.222-3.656-.982-1.126-.76-2.147-.509-3.148-.572-1-.063-1.662-.79-.182-.941" mask="url(#b)"/>
        <path fill="#292B3B" d="M396 180.331l-4.63.669-7.37-58.331 4.63-.669z" mask="url(#b)"/>
        <path fill="#ED505E" d="M397 181.913L390.025 183 385 140.087l6.975-1.087z" mask="url(#b)"/>
        <path fill="#292B3B" d="M383.215 118.998c-15.187 2.052-29.162-8.596-31.213-23.783-2.052-15.187 8.596-29.162 23.783-31.213 15.187-2.052 29.162 8.596 31.213 23.783 2.052 15.187-8.596 29.162-23.783 31.213m-7.798-57.72c-16.69 2.255-28.394 17.614-26.139 34.305 2.255 16.69 17.614 28.394 34.305 26.139 16.69-2.255 28.394-17.614 26.139-34.305-2.255-16.69-17.614-28.394-34.305-26.139" mask="url(#b)"/>
        <path fill="#FFF" d="M378.252 66.255c-15.323 2.07-26.067 16.17-23.997 31.493 2.07 15.323 16.17 26.067 31.493 23.997 15.323-2.07 26.067-16.17 23.997-31.493-2.07-15.323-16.17-26.067-31.493-23.997M556.251 315c.115 0 .233-.013.35-.038.946-.208 1.556-1.2 1.364-2.216l-2.507-13.242c-.192-1.016-1.116-1.673-2.06-1.466-.945.207-1.555 1.2-1.362 2.216l2.506 13.241c.168.89.896 1.505 1.71 1.505" mask="url(#b)"/>
        <path fill="url(#d)" d="M557.526 312.236s1.067 4.382 0 4.503c-1.067.122-16.43.583-16.52-.121-.308-2.405 12.251-4.625 13.483-4.382 1.23.243 2.897-.636 3.037 0" mask="url(#b)"/>
        <path fill="#FFF" d="M500.992 147.787s4.558-8.004 3.953-10.33c-.606-2.327-5.668 4.706-5.945 10.543l1.992-.213z" mask="url(#b)"/>
        <path fill="url(#f)" d="M503.23 146.655c.35-1.253-3.376-1.465-4.228-1.655-10.277 32.4 7.177 43.58 31.898 21.578 3.782-3.366 1.75-3.387-.586-5.313.388-.624.403-.617 0 0-2.334-1.926-2.905-1.717-5.925 1.205-19.74 19.106-27.822 8.101-21.159-15.815" mask="url(#b)"/>
        <path fill="#FFF" d="M521.124 314.862c.11.046.228.082.35.106.98.19 1.923-.48 2.106-1.498l2.389-13.25c.183-1.017-.464-1.998-1.442-2.188-.98-.19-1.924.48-2.107 1.498l-2.389 13.25c-.16.891.315 1.753 1.093 2.082" mask="url(#b)"/>
        <path fill="#292B3B" d="M519.676 306.028a64.053 64.053 0 0 0 5.7 1.972c4.062-31.125-.206-73.824 7.624-101.71a712.54 712.54 0 0 0-15.543-3.29c-5.769 32.073 7.837 66.289 2.22 103.028" mask="url(#b)"/>
        <path fill="#3B3E54" d="M552.071 305.98c1.98.038 3.952.03 5.929-.099-7.397-29.518-19.27-75.57-21.994-104.881-5.013.637-10.021 1.336-15.006 2.166 9.06 36.947 24.889 63.607 31.071 102.814" mask="url(#b)"/>
        <path fill="url(#d)" d="M523.526 312.236s1.067 4.382 0 4.503c-1.067.122-16.43.583-16.52-.121-.308-2.405 12.251-4.625 13.483-4.382 1.23.243 2.897-.636 3.037 0M536.96 207.315c-4.252.137-7.453 1.222-11.591 2.677-2.812.99-6.678 2.787-9.369 4.008.555-20.16.327-28.964 6.55-46.33 3.103-8.662 8.076-8.46 8.384-8.51 5.717-.931 10.856 2.245 9.965 8.563-.298 2.112-.766 2.707-1.872 5.495-5.25 13.237-3.22 20.417-2.067 34.097" mask="url(#b)"/>
        <path fill="#FFF" d="M541.79 215.374s-4.526 8.052-3.686 10.227c.84 2.175 5.996-4.99 5.895-10.601l-2.209.374z" mask="url(#b)"/>
        <path fill="url(#f)" d="M541.295 215.524c1.408.542 2.764.994 4.162 1.476 7.933-18.804 7.829-37.964-3.433-55.19-1.723-2.634-3.512-4.095-6.13-1.293-1.354 1.449-1.216 3.793.728 6.48 12.711 17.556 9.452 28.364 4.673 48.527" mask="url(#b)"/>
        <path fill="#FFF" d="M537.16 147.264c-1.809 5.028-6.368 7.68-9.083 6.429-2.714-1.25-2.556-5.93-.748-10.958 1.808-5.028 4.928-6.573 7.643-5.323 2.714 1.25 3.995 4.823 2.187 9.852" mask="url(#b)"/>
        <path fill="#42210B" d="M539.991 144.706s.227-3.44-1.64-5.5c-1.865-2.062-6.369-3.734-8.98.06 0 0-1.617 2.872 1.903 4.591 3.52 1.72 3.497-.498 4.7 1.975 1.204 2.473 3.257 1.624 3.457 2.168l.56-3.294z" mask="url(#b)"/>
        <path fill="#FFF" d="M538 148.509l-5.549-.509c-.075.713-.656 7.504-.374 10.063.203.789 1.587 1.15 3.09.808 1.351-.308 2.33-1.08 2.368-1.804l.006-.002c-.169-1.534.2-6.065.459-8.556" mask="url(#b)"/>
        <path fill="#FFF" d="M540.852 149.674c-.368.81-1.737 1.518-2.392 1.279-.655-.238-.52-.954-.152-1.763.368-.81 1.243-1.373 1.898-1.135.655.239 1.014.81.646 1.62" mask="url(#b)"/>
        <path fill="#42210B" d="M526.43 151.106s-.968 1.019 0 2.284c.97 1.265 2.617.302 2.569-.54-.049-.842-.882-.36-1.265-.842-.383-.481-1.044-1.3-1.303-.902" mask="url(#b)"/>
        <path fill="#FFF" d="M200 132a4 4 0 0 0 4-4 4 4 0 0 0 4 4 4 4 0 0 0-4 4 4 4 0 0 0-4-4M240 59a4 4 0 0 0 4-4 4 4 0 0 0 4 4 4 4 0 0 0-4 4 4 4 0 0 0-4-4M565 155a4 4 0 0 0 4-4 4 4 0 0 0 4 4 4 4 0 0 0-4 4 4 4 0 0 0-4-4M184 116a7 7 0 0 0 7-7 7 7 0 0 0 7 7 7 7 0 0 0-7 7 7 7 0 0 0-7-7M573 144a7 7 0 0 0 7-7 7 7 0 0 0 7 7 7 7 0 0 0-7 7 7 7 0 0 0-7-7" mask="url(#b)"/>
        <path fill="#4EC0A6" d="M365 80a7 7 0 0 0 7-7 7 7 0 0 0 7 7 7 7 0 0 0-7 7 7 7 0 0 0-7-7M376 90a4 4 0 0 0 4-4 4 4 0 0 0 4 4 4 4 0 0 0-4 4 4 4 0 0 0-4-4" mask="url(#b)"/>
        <path stroke="#ED505E" stroke-width="19.2" d="M492 298l-8-.743L488.976 251" mask="url(#b)"/>
        <path fill="#ED505E" d="M495.078 319l-7.078-.784.922-10.216 7.078.784z" mask="url(#b)"/>
        <path fill="#3B3870" d="M511.065 123.995c-.65-.06-1.124-.593-1.059-1.19l.634-5.826c.065-.598.645-1.033 1.295-.974.65.06 1.124.593 1.059 1.19l-.634 5.826c-.065.597-.645 1.033-1.295.974" mask="url(#b)"/>
        <path fill="#CC6939" d="M515.002 120.302l-3.364-.302-4.638 7.014 11 .986z" mask="url(#b)"/>
        <path fill="#F86D79" d="M506.079 126L488 308.002l9.92.998L516 126.998z" mask="url(#b)"/>
        <path stroke="#ED505E" stroke-width="19.2" d="M257 325v8h-45" mask="url(#b)"/>
        <path fill="#ED505E" d="M268 327h11v-8h-11z" mask="url(#b)"/>
        <path fill="#3B3870" d="M81 323c0 .552-.485 1-1.083 1h-5.834c-.598 0-1.083-.448-1.083-1s.485-1 1.083-1h5.834c.598 0 1.083.448 1.083 1" mask="url(#b)"/>
        <path fill="#CC6939" d="M80 320.818v3.364L88 328v-11z" mask="url(#b)"/>
        <path fill="#F86D79" d="M87 328h183v-11H87z" mask="url(#b)"/>
    </g>
</svg>
