<svg xmlns="http://www.w3.org/2000/svg" xmlns:xlink="http://www.w3.org/1999/xlink" width="931" height="482" viewBox="0 0 931 482"><defs><style>.a,.m,.r,.x{fill:none;}.b,.e{fill:#d9e8ff;}.b{opacity:0.55;}.b,.q,.w{mix-blend-mode:multiply;isolation:isolate;}.c{fill:#ace8df;}.d{fill:#fff;}.f{fill:#373e4b;}.g,.w{fill:#1982c5;}.h{fill:#29bbae;}.i{fill:#159383;}.j{fill:#f2a181;}.k{fill:#ffbe9d;}.l{fill:#73787f;}.m{stroke:#f2a181;stroke-width:0.35px;}.m,.x{stroke-miterlimit:10;}.n{fill:#e2f0fb;}.o{opacity:0.5;}.p{clip-path:url(#a);}.q{fill:#5275a0;opacity:0.2;}.r{stroke:#fff;stroke-linecap:round;stroke-linejoin:round;stroke-width:1.738px;}.s{fill:#bdd0ff;}.t{fill:#a3bcef;}.u{fill:#e8f6f7;}.v{fill:#d0e0e2;}.w{opacity:0.35;}.x{stroke:#000;stroke-width:1.853px;}.y{fill:#aabde2;}</style><clipPath id="a"><rect class="a" width="174.101" height="132.935"/></clipPath></defs><g transform="translate(-316.688 -146.336)"><g transform="translate(316.688 328.985)"><ellipse class="b" cx="127.363" cy="11.729" rx="127.363" ry="11.729" transform="translate(11.536 201.615)"/><path class="c" d="M200.11,403.282H107.783c-18.015,0-15.09-21.363,35.028-11.857-12.3-5.621-12.369-13.147-11.325-15.155.959-1.844,4.469-3.03,6.54-2.853,6.375.549,11.214,4.455,16.8,7.576a35.871,35.871,0,0,1-15.977-30.68c.113-3.313.829-6.864,3.263-9.112,2.737-2.527,7.209-4.209,10.864-3.484,6.762,1.343,19.2,12.635,24.152,17.429-25.254-23.228-34.869-59.83-18.7-68.179,27.217-14.058,47.778,65.572,47.778,65.572s-13.538-59.837,9.169-60.187,4.245,69.513,4.245,69.513" transform="translate(-97.688 -195.842)"/><path class="d" d="M168.678,347.677a26.511,26.511,0,0,1,8.488,1.408A41.175,41.175,0,0,1,259.5,350.3c0,1.041-.052,2.07-.128,3.091a22.783,22.783,0,0,1,41.819,16.786,16.355,16.355,0,1,1,7.942,30.651H168.678a26.574,26.574,0,0,1,0-53.147Z" transform="translate(-74.411 -183.362)"/><g transform="translate(85.844)"><path class="e" d="M154.014,421.048c0,3.457,28.218,6.259,63.026,6.259s63.026-2.8,63.026-6.259-28.218-6.259-63.026-6.259S154.014,417.592,154.014,421.048Z" transform="translate(-154.014 -127.982)"/><path class="f" d="M220.738,413.654c.529.971,3.063,3.214,6.576,4.693s10.952,2.17,6.817,3.472-8.954.512-11.4.145a52.019,52.019,0,0,0-7.686-.437c-3.8-.024-3.827-.244-3.316-4.28C212.437,411.693,219.028,410.518,220.738,413.654Z" transform="translate(-123.887 -129.471)"/><path class="f" d="M175.971,412.683c.212,1.12-1.475,4.516,1.544,7.008s9.876,5.112,5.331,5.211a27.849,27.849,0,0,1-11.219-1.969c-2.311-1.076-.466-2.768-3.333-3.62-3.778-1.123-3-3.74-1.035-5.359C169.774,408.624,175.292,409.062,175.971,412.683Z" transform="translate(-147.93 -130.515)"/><path class="g" d="M182.443,353.309s-9.05-25.068,16.626-45.721c0,0,13.762,5.162,24.783,5.785a64.992,64.992,0,0,0,13.084-.264s.73,22.271.761,34.276Z" transform="translate(-139.926 -184.163)"/><path class="g" d="M226.656,367.668c.5-11.208-12.4-9.739-17.16-1.366-9.838,17.315,3.627,57.192,5.407,76.086,1.849.677,4.949,1.2,6.81.4a4.57,4.57,0,0,0,1.978-2.062C223.406,417.549,226.124,379.653,226.656,367.668Z" transform="translate(-126.805 -156.883)"/><path class="g" d="M213.523,390.234c1.484,4.577,17.952,9.391,16.617-7.268-.591-7.389-2.17-48.19-2.474-52.122s-1-9.682-3.021-10.4c-10.089-3.586-27.935,8.841-25.28,23.609C201.136,353.926,210.446,380.743,213.523,390.234Z" transform="translate(-130.386 -177.752)"/><path class="g" d="M204.744,373.533c3.981-10.572-8.952-12.443-16.289-5.929-17.179,15.253-17.845,51.2-22.055,69.744a15.743,15.743,0,0,0,7.511,2.027,2.73,2.73,0,0,0,2.048-.986C182.938,416.162,200.486,384.838,204.744,373.533Z" transform="translate(-147.523 -154.689)"/><path class="g" d="M180.415,391.841c-.448,4.766,13.278,14.617,18.682-1.294,2.4-7.058,12.654-48.763,13.941-52.513s.933-11.5-.652-12.88c-7.921-6.895-25.8-.832-29.227,13.794C180.864,348.727,181.347,381.954,180.415,391.841Z" transform="translate(-140.184 -176.446)"/><g transform="translate(34.258)"><path class="h" d="M226.342,263.355s9.673,11.537,10.734,51.44l-10.947,3.883-10.594-29.662Z" transform="translate(-156.031 -207.344)"/><path class="i" d="M217.841,282.106c-.437,4.046-.854,8.2-1.151,11.842l2.275,6.371c3.3-8.672,8.606-27.063,9.83-31.343a24.869,24.869,0,0,0-3.059-5.621Z" transform="translate(-155.425 -207.344)"/><path class="f" d="M212.807,230.543c2.262.616,3.457,3.367,4.225,5.247a27.831,27.831,0,0,1,1.692,7.082,9.184,9.184,0,0,1-.369,4.981,10.348,10.348,0,0,1-1.475,2.166,4.665,4.665,0,0,1-1.064,1.056,1.722,1.722,0,0,1-1.472.236c-.7-.255-.988-1.035-1.187-1.721-1.3-4.473-2.73-8.995-5.407-12.886" transform="translate(-160.111 -224.54)"/><path class="j" d="M212.714,240.394c.046-1.423,1.637-2.352,3.015-.878,1.14,1.221,1.445,3.537,1.509,5.249.078,2.051-1.609,2.454-3,2.74" transform="translate(-157.509 -220.229)"/><path class="h" d="M242.58,265.987c-2.791-3.016-11.65-7.988-23.489-7.636-8.158.242-30.375,1.512-32.857,6.653-1.268,2.627-2.631,29.543-.773,38.821,1.4,6.979,4.972,24.265,4.972,28.436s-2.379,5.961-1.27,7.171c2.486,2.714,19.485,3.853,27.465,3.853,7.1,0,19.194-1.783,19.808-3.927.91-3.184-1.387-3.063-1.7-6.4s-1.207-24.992.1-28.535c2.352-6.4,3.495-16.833,5.363-21.566C241.615,279.264,245.37,269,242.58,265.987Z" transform="translate(-172.268 -209.976)"/><path class="i" d="M191.593,277.7c-.847,1.66-6.6,10.37-6.6,10.37l-.233,1.042a41.211,41.211,0,0,0,.585,4.653c1.4,6.979,4.972,24.265,4.972,28.436s-2.278,5.884-1.27,7.171c1.96,2.5,34.013,8.131,32.437,1.145-.143-.632-26.9-19.869-27.046-20.514-1.233-5.519-2.307-9.5-2.849-13.522C190.292,286.792,192.439,276.04,191.593,277.7Z" transform="translate(-172.157 -199.916)"/><path class="k" d="M216.968,253.923s.076,8.754.45,9.108a14.908,14.908,0,0,0,2.211,1.171s-1.309,7.608-3.333,7.044-15.387-6.924-15.387-6.924,1.894-.725,1.894-1.433-1.8-14.474-1.8-14.474" transform="translate(-163.696 -215.174)"/><path class="k" d="M210.592,231.164c1.948.5,7.081-.5,8.5,1.5s2.656,6.837,3.187,8.172a82.1,82.1,0,0,1,2.515,8.232c1,3.569,2.65,10.1-1.055,13.09a5.04,5.04,0,0,1-2.859,1.366c-1.754.3-3.5.639-5.253.936-2.719.46-5.731,1-8.431.169-3.607-1.1-5.586-5.776-6.514-8.949l-5.31-18.179Z" transform="translate(-166.6 -224.214)"/><path class="g" d="M214.058,265.635s.782,34.162,2.257,54.943l-5.331,6.928-3.667-8.676a249.146,249.146,0,0,1,3.469-52.957Z" transform="translate(-160.455 -206.149)"/><path class="g" d="M214.888,264.408l-.125.469a9.31,9.31,0,0,1-1.1,2.53h0l-3.272.238s-2.225-1.1-2.519-2.277,3.652-3.115,3.652-3.115l.479.178a7.1,7.1,0,0,1,2.849,1.931Z" transform="translate(-160.057 -207.921)"/><path class="d" d="M203.285,256.515a13.35,13.35,0,0,0-3.731,3.565c1.683,3.626,5.485,10.068,9.675,13a18.169,18.169,0,0,1,6.64-7.822S204.457,263.346,203.285,256.515Z" transform="translate(-164.406 -210.928)"/><path class="d" d="M210.259,265.1a13.844,13.844,0,0,1,6.508,5.828,27.652,27.652,0,0,0-.886-10.815s-2.679-3.23-3.606-3.3C212.659,260.933,210.259,265.1,210.259,265.1Z" transform="translate(-158.796 -210.77)"/><g transform="translate(0 51.85)"><path class="j" d="M209.947,312.3c4.054.575,5.552,1.993,7.837,4.118.186.174.384.392.341.637-.052.3-.433.439-.756.489-1.882.284-2.189-.849-3.949-1.541-1.187-.468-2.368-.953-3.548-1.437" transform="translate(-158.998 -233.546)"/><g transform="translate(50.242 49.101)"><path class="l" d="M223.926,294.665l-14.363,43.367a1.564,1.564,0,0,0,1.523,2.176l29.968,2.477a2.757,2.757,0,0,0,2.512-1.823l15.443-42.708c.386-1.163-1.4-2.827-2.6-2.836l-29.968-2.477A2.76,2.76,0,0,0,223.926,294.665Z" transform="translate(-209.457 -292.842)"/><g transform="translate(1.184 1.132)"><path class="f" d="M224.5,295.409l-14.163,42.7a1.565,1.565,0,0,0,1.523,2.176l29.968,2.477a2.757,2.757,0,0,0,2.512-1.823l14.163-42.7a1.564,1.564,0,0,0-1.522-2.176l-29.968-2.478A2.761,2.761,0,0,0,224.5,295.409Z" transform="translate(-210.234 -293.585)"/></g></g><path class="k" d="M203.751,310.308c3.144.617,11.522,2.973,12.4,3.365a36.862,36.862,0,0,1,5.343,3.72c3.153,2.98,1.541,4.37,2.783,8.41a2.207,2.207,0,0,1,.078.64c0,.422-.6.785-1.213.39-.329.521-1.3.2-1.774-.367.008.4-.593.658-1.558.155-.52-.271-.427-.245-1.631-1.259a12.823,12.823,0,0,0-3.411-1.955,25.815,25.815,0,0,1-3.326-1.431c-1.274-.789-3.543-.977-4.664-4.4a3.514,3.514,0,0,0-1.748-1.644l-5.124-3.027" transform="translate(-164.22 -234.588)"/><path class="h" d="M196.7,280.793c-1.334,4.478-6.878,35.512-6.878,35.512l31.236,21.314-2.6,6.438s-37.375-11.824-40.318-19.9-2.809-44.587,7.57-57.394c3.3-4.077,9.928-6.134,9.928-6.134" transform="translate(-176.492 -260.625)"/><path class="m" d="M210.775,317.64a20.011,20.011,0,0,1,2.182,1.58c.892.889,1.561,1.869,2.518,2.928" transform="translate(-158.525 -230.745)"/><path class="m" d="M211.9,316.361a10.743,10.743,0,0,1,2.573,2.941,39.085,39.085,0,0,0,2.051,3.726" transform="translate(-157.933 -231.415)"/><path class="m" d="M213.2,315.326c.3.457,1.588,1.6,1.847,2.074a18.009,18.009,0,0,1,1.779,4.792" transform="translate(-157.254 -231.958)"/></g><path class="f" d="M201.242,254.917c1.224-.674,2.163-1.385,2.96-.28.422.585.678,1.395,1.4,1.6a1.441,1.441,0,0,0,1.64-1.093,3.742,3.742,0,0,0-.27-2.074q-.738-2.238-1.475-4.473c-.482-1.46-.959-3.065-.344-4.479a4.957,4.957,0,0,1,1.5-1.809,16.391,16.391,0,0,1,7.288-2.938c2.617-.5,5.3-.761,7.844-1.516a8.662,8.662,0,0,0,2.987-1.417,5.915,5.915,0,0,0,2.117-4.551,9,9,0,0,0-1.532-4.85,7.865,7.865,0,0,1-.783,1.684,6.209,6.209,0,0,0-1.428-2.111c-.764,4-18.662,2.666-22.843,4.432-2.9,1.224-5.3,2.024-5.208,6.448a1.635,1.635,0,0,1-.567.7c-2.568,2.224-3.681,4.927-4,8.942-.4,4.912,2.641,10.231,5.616,14.281a9.306,9.306,0,0,0,2.21,2.49,6.152,6.152,0,0,0,4.159.884c1.291-.232,3.835-.126,3.859-1.364.017-.887-1.992-2.467-2.548-3.181" transform="translate(-169.156 -226.604)"/><path class="k" d="M202.72,250.344a1.78,1.78,0,0,1-.335,1.472,2.072,2.072,0,0,1-2.118.282,5.415,5.415,0,0,1-3.571-4.129c-.422-2.123.789-4.249,2.853-3.7a2.874,2.874,0,0,1,1.949,2.8" transform="translate(-165.947 -217.39)"/><path class="j" d="M213.415,252.52l-5.741,1a8.237,8.237,0,0,0,5.816,2.022" transform="translate(-160.15 -213.022)"/></g></g></g><path class="b" d="M892.887,417.723c0,7.477-147.589,13.539-329.652,13.539S233.582,425.2,233.582,417.723s147.591-13.539,329.653-13.539S892.887,410.244,892.887,417.723Z" transform="translate(338.022 197.074)"/><g transform="translate(543.72 146.336)"><path class="c" d="M769.03,547.489a16.72,16.72,0,0,1,16.691,16.746V164.316h0a16.718,16.718,0,0,0-16.691-16.744H278.17V547.489Z" transform="translate(-218.684 -145.398)"/><path class="c" d="M788.107,172.039a16.7,16.7,0,0,0,16.665-16.744V555.212h0a16.7,16.7,0,0,1-16.665,16.746h-535.1V172.039Z" transform="translate(-237.789 -139.534)"/><path class="c" d="M261.047,563.863a16.719,16.719,0,0,0-16.691,16.746V180.69h0a16.719,16.719,0,0,1,16.691-16.746H796.72V563.863Z" transform="translate(-244.356 -132.968)"/><path class="d" d="M261.047,191.074a16.718,16.718,0,0,1-16.691-16.744V572.98h0a16.718,16.718,0,0,0,16.691,16.746H781V191.074Z" transform="translate(-244.356 -125.083)"/><path class="h" d="M261.835,167.872H796.72v-3.928H261.835a17.481,17.481,0,0,0,0,34.962H781V194.98H261.835a13.554,13.554,0,0,1,0-27.108Z" transform="translate(-244.356 -132.968)"/><path class="h" d="M780.8,150.263H291v-3.927H780.8a17.48,17.48,0,1,1,0,34.961H261.632V177.37H780.8a13.554,13.554,0,0,0,0-27.108Z" transform="translate(-231.24 -146.336)"/><g transform="translate(34.306 95.976)"><rect class="n" width="263.338" height="7.855"/><g transform="translate(0 14.793)"><rect class="n" width="263.338" height="7.855"/></g><g transform="translate(0 29.585)"><rect class="n" width="263.338" height="7.855"/></g><g transform="translate(0 44.379)"><rect class="n" width="263.338" height="7.855"/></g><g transform="translate(0 59.172)"><rect class="n" width="263.338" height="7.855"/></g><g transform="translate(0 73.964)"><rect class="n" width="263.338" height="7.855"/></g><g transform="translate(0 88.756)"><rect class="n" width="263.338" height="7.855"/></g><g transform="translate(0 103.551)"><rect class="n" width="263.338" height="7.855"/></g></g><g transform="translate(34.101 231.652)"><rect class="n" width="263.338" height="7.855"/><g transform="translate(0 14.792)"><rect class="n" width="263.338" height="7.855"/></g><g transform="translate(0 54.626)"><rect class="n" width="263.338" height="79.25"/></g><g transform="translate(0 143.383)"><rect class="n" width="263.338" height="7.855"/></g></g><g transform="translate(322.72 213.081)"><g transform="translate(0 43.589)"><rect class="n" width="174.796" height="7.855"/></g><g transform="translate(0 58.381)"><rect class="n" width="174.796" height="7.855"/></g><g transform="translate(0 14.595)"><rect class="n" width="174.796" height="7.855"/></g><rect class="n" width="174.796" height="7.855"/><g transform="translate(0 73.176)"><rect class="n" width="174.796" height="7.855"/></g><g transform="translate(0 87.968)"><rect class="n" width="174.796" height="7.855"/></g><g transform="translate(0 102.76)"><rect class="n" width="174.796" height="7.855"/></g><g transform="translate(0 117.554)"><rect class="n" width="174.796" height="7.855"/></g><g transform="translate(0 132.346)"><rect class="n" width="174.796" height="7.855"/></g><g transform="translate(0 147.141)"><rect class="n" width="174.796" height="7.855"/></g><g transform="translate(0 161.933)"><rect class="n" width="174.796" height="7.855"/></g></g><g transform="translate(322.72 95.898)"><rect class="c" width="174.796" height="96.735"/><g transform="translate(51.288 11.397)"><path class="d" d="M471.374,237.46a36.893,36.893,0,1,1,36.9,36.895A36.937,36.937,0,0,1,471.374,237.46Zm3.751,0a33.142,33.142,0,1,0,33.146-33.141A33.181,33.181,0,0,0,475.125,237.46Z" transform="translate(-471.374 -200.568)"/><g transform="translate(20.388)"><path class="d" d="M480.8,237.46c0-20.686,7.251-36.892,16.509-36.892s16.509,16.206,16.509,36.892-7.254,36.895-16.509,36.895S480.8,258.149,480.8,237.46Zm3.751,0c0,19.534,6.724,33.143,12.758,33.143s12.758-13.61,12.758-33.143-6.726-33.141-12.758-33.141S484.555,217.929,484.555,237.46Z" transform="translate(-480.804 -200.568)"/></g><g transform="translate(1.875 35.018)"><rect class="d" width="70.037" height="3.752"/></g><g transform="translate(9.132 13.119)"><path class="d" d="M503.362,216.694c20.314,0,27.459-7.13,27.758-7.433l-2.7-2.612,1.349,1.306-1.334-1.319c-.063.063-6.559,6.307-25.075,6.307s-25.019-6.244-25.081-6.307l-2.683,2.625C475.9,209.563,483.048,216.694,503.362,216.694Z" transform="translate(-475.598 -206.636)"/><g transform="translate(0 37.491)"><path class="d" d="M528.437,234.035l2.683-2.625c-.3-.3-7.444-7.433-27.758-7.433s-27.466,7.13-27.764,7.433l2.7,2.612c.047-.05,6.549-6.294,25.066-6.294S528.375,233.972,528.437,234.035Z" transform="translate(-475.598 -223.977)"/></g></g></g></g></g><g transform="translate(949.548 401.427)"><g class="o" transform="translate(0 11.476)"><g class="p"><path class="q" d="M708.2,409.889a40.294,40.294,0,0,0-12.909,2.143,62.626,62.626,0,0,0-125.225,1.843c0,1.583.078,3.147.194,4.7a34.652,34.652,0,0,0-63.6,25.533,24.875,24.875,0,1,0-12.08,46.618H708.2a40.418,40.418,0,0,0,0-80.837Z" transform="translate(-443.893 -308.205)"/></g></g><g transform="translate(149.333)"><path class="c" d="M592.048,424.042c-8.166-28.116-2.1-58.436,7.543-86.083,2.318-6.643,4.973-13.43,9.937-18.417,2.538-2.551,6.054-4.642,9.58-3.927,5.176,1.05,7.354,7.215,7.937,12.465,3.682,33.144-18.156,63.523-23.683,96.411" transform="translate(-531.11 -315.473)"/><path class="c" d="M588.439,392.636c-1.6-8.347-3.824-16.66-7.786-24.176s-9.78-14.241-17.3-18.2c-3.336-1.757-7.788-2.815-10.609-.311-3.1,2.751-2.1,7.822-.27,11.539,10.03,20.357,35.662,29.48,45.41,49.974" transform="translate(-550.751 -298.183)"/><path class="c" d="M589.745,417.27c-6.36-11.872-12.5-24-16.009-37s-4.257-27.074.131-39.807c1.354-3.929,4.721-8.422,8.651-7.069a7.863,7.863,0,0,1,3.441,2.938c7.316,9.631,10.123,21.931,11.447,33.952s1.364,24.227,4,36.029a10.152,10.152,0,0,0,2.126,4.9c1.236,1.309,3.446,1.876,4.863.762a5.149,5.149,0,0,0,1.492-2.588c1.68-5.258,27.759-59.4,51.384-63.208a17.947,17.947,0,0,1,5.784-.2c29.625,4.924-37.117,66.832-37.619,76.05,24.149-20.7,29.265-24.513,40.258-26.5,8.472-1.527,23.233,5.983,18.376,16.341-3.359,7.165-11.741,10.367-19.5,11.914-8.477,1.692-17.19,2.234-25.5,4.6s-16.493,6.912-20.726,14.448" transform="translate(-540.226 -306.21)"/></g><path class="d" d="M709.008,415.163a40.293,40.293,0,0,0-12.909,2.143,62.626,62.626,0,0,0-125.225,1.843c0,1.583.077,3.147.193,4.7a34.65,34.65,0,0,0-63.6,25.531A24.875,24.875,0,1,0,495.383,496H709.008a40.418,40.418,0,0,0,0-80.837Z" transform="translate(-451.473 -293.964)"/></g><g transform="translate(998.713 345.463)"><g transform="translate(42.674)"><g transform="translate(17.54 18.979)"><path class="h" d="M524.537,294.785l7.405,3.546-2.741-7.125" transform="translate(-524.537 -291.206)"/></g><path class="h" d="M537.954,291.2a12.463,12.463,0,1,1-12.482-12.444A12.462,12.462,0,0,1,537.954,291.2Z" transform="translate(-513.028 -278.753)"/><path class="r" d="M517.607,288.731l4.916,4.751,6.541-8.858" transform="translate(-510.628 -275.676)"/></g><g transform="translate(39.75 56.222)"><g transform="translate(0 104.372)"><g transform="translate(64.11 5.525)"><path class="s" d="M555.2,496.032,553.174,387.75h7.2l-2.025,108.282a1.619,1.619,0,1,1-3.152,0Z" transform="translate(-553.174 -387.75)"/></g><g transform="translate(90.498)"><path class="s" d="M612.322,486.678l-41.834-99.9,6.7-2.658,38.07,101.389a1.62,1.62,0,1,1-2.931,1.164Z" transform="translate(-570.488 -384.125)"/></g><g transform="translate(0 2.472)"><path class="s" d="M514.2,488.3l41.834-99.9-6.7-2.656-38.07,101.389A1.619,1.619,0,1,0,514.2,488.3Z" transform="translate(-511.109 -385.747)"/></g><g transform="translate(90.498)"><path class="t" d="M578.346,387.22l-4.26,1.692,39.323,98.95a2.3,2.3,0,0,1-1.087-1.184l-41.834-99.9,6.7-2.658Z" transform="translate(-570.488 -384.125)"/></g><g transform="translate(64.11 5.525)"><path class="t" d="M560.323,390.6h-5.368L556.964,498a1.126,1.126,0,0,1-.189.026,1.853,1.853,0,0,1-1.576-1.989L553.174,387.75h7.2Z" transform="translate(-553.174 -387.75)"/></g><g transform="translate(0 2.472)"><path class="t" d="M511.269,487.136l38.07-101.389,6.7,2.656-.768,1.838-4.144-1.645L513.27,489.4a1.428,1.428,0,0,1-1.269.163A1.856,1.856,0,0,1,511.269,487.136Z" transform="translate(-511.109 -385.747)"/></g></g><g transform="translate(14.23)"><path class="u" d="M524.294,438.424c7.306,5.944,18.132,11.414,45.628,11.956,36.169.713,55.1-3.393,65.38-22.046,17.164-31.151-4.313-131.794-38.19-109.5-28.319,18.638-33.991,78.131-37.734,86.357S506.566,424,524.294,438.424Z" transform="translate(-520.446 -315.642)"/></g><g transform="translate(14.253 5.268)"><path class="v" d="M563.644,440.863c36.169.713,55.1-3.393,65.381-22.046,11.714-21.262,5.427-74.9-10.517-99.719,20.407,18.915,29.934,83.56,16.786,107.424-10.277,18.653-29.21,22.759-65.38,22.046-27.5-.543-38.321-6.013-45.628-11.956-2.487-2.024-3.659-3.973-3.825-5.851C527.79,435.948,539.044,440.378,563.644,440.863Z" transform="translate(-520.461 -319.099)"/></g></g><g transform="translate(0 19.877)"><path class="f" d="M540.289,302.582a4.828,4.828,0,0,0-1.391,8.087c-1.407.043-2.349,1.657-2.178,3.054a6.733,6.733,0,0,0,2.077,3.592c1.108,1.178,2.458,2.35,4.076,2.381A4.64,4.64,0,0,0,546,318.33a5.759,5.759,0,0,0,1.457-2.019,9.366,9.366,0,0,0,.524-2.791q.423-4.986.843-9.975a2.4,2.4,0,0,0-.393-1.931" transform="translate(-457.948 -286.649)"/><path class="k" d="M566.153,316.663c.218,4.324-.088,11.853,1.149,12.968s9.952,1.073,9.952,1.073-19,17.931-20.281,16.937S538.8,332.882,542.6,332.172s7.511-.559,7.4-2.524-.216-3.931-.323-5.9" transform="translate(-455.147 -278.762)"/><path class="k" d="M566.153,316.663c.218,4.324-.088,11.853,1.149,12.968s9.952,1.073,9.952,1.073-19,17.931-20.281,16.937S538.8,332.882,542.6,332.172s7.511-.559,7.4-2.524-.216-3.931-.323-5.9" transform="translate(-455.147 -278.762)"/><path class="h" d="M597.537,377.206,589,405.284l-2.946,3.225s-25.548,2.9-33.354,3.255c-.34.015-.649.031-.927.031-6.418.139-6.093-3.208-6.093-3.208-.063-1.5-.171-3.441-.309-5.616-.54-8.038-1.5-19.3-2.545-23.728-1.234-5.276-1.789-7.22-2.87-12.219-2.391-11.123-2.283-13.237-4.828-26.967l16.646-13.375s1.728,5.121,8.7,5.2c9.333.123,12.235-6.418,12.235-6.418l22.693,15.088Z" transform="translate(-458.77 -274.151)"/><path class="k" d="M568.045,322.457a47.978,47.978,0,0,1-1.964,6.407c-1.471,3.824-3.641,5.2-7.689,5.295l-8.533.2c-2.182.052-4.9.125-6.665-1.407-1.748-1.52-1.785-4.077-2.173-6.18q-.743-4.04-1.21-8.122a119.943,119.943,0,0,1-.753-16.055,11.632,11.632,0,0,1,.192-2.2,1.575,1.575,0,0,1,.366-.806,1.786,1.786,0,0,1,1.024-.395,87.517,87.517,0,0,1,16.131-1.033c3.81.108,7.846.553,10.862,2.885,3.036,2.346,4.475,6.157,5.773,9.769.207.579.363,1.352-.142,1.708" transform="translate(-456.725 -288.473)"/><g transform="translate(24.679 128.819)"><path class="k" d="M518.065,442.847a58.825,58.825,0,0,0,1.6,7.186c.713,1.83,6.721.143,7.117-1.041s-1.89-9.893-1.89-9.893" transform="translate(-492.392 -343.416)"/><path class="f" d="M533.6,447.319c.52,1.975,1.175,5.762,1.175,5.762l-6,2.617-.985-.927a11.119,11.119,0,0,1-3.332,2.656,24.921,24.921,0,0,1-5.813,1.612c-5.243.565-9.1-.421-9.411-1.148-1.3-3.036,5.654-3.85,7.034-4.214a9.221,9.221,0,0,0,6.59-6.6c.306-1.591-.088-1.87.8-1.821a2.112,2.112,0,0,1,1.5.7,3.8,3.8,0,0,0,4.267.992,4.538,4.538,0,0,0,2.128-1.773A2.622,2.622,0,0,1,533.6,447.319Z" transform="translate(-497.109 -340.23)"/><path class="g" d="M570.477,385.112l-17.048,20.627q-1.017.208-2.036.37a94.815,94.815,0,0,1-13.992,1.172,101.192,101.192,0,0,1-14.627-.818c1.327,3.812,4.583,8.687,5.817,14.04,4.088,17.679,5.506,41.438,6.557,56.126,0,0-1.975,3.764-8.27.895-9.4-23.218-25.81-70.287-25.656-80.485.03-2.408,1.327-4.613,3.656-6.619.123-.123.247-.216.37-.325a37.458,37.458,0,0,1,11.016-5.662,3.8,3.8,0,0,0,.4-.139c11.138-3.9,27.322-6.526,45.248-7.883.14-.015.279-.015.418-.032.262-.015.539-.046.817-.061v.015c.139,2.175.247,4.1.309,5.6,0,0-.325,3.347,6.093,3.208C569.827,385.142,570.137,385.127,570.477,385.112Z" transform="translate(-501.22 -376.318)"/><path class="w" d="M569.25,385.107,552.2,405.733q-1.017.208-2.036.37a82.821,82.821,0,0,1-13.993,1.172,11.667,11.667,0,0,1-1.189-3.039c-.293-1.419-.139-2.9-.386-4.321a10.033,10.033,0,0,0-4.891-6.587,21.957,21.957,0,0,0-7.991-2.592c-6.264-1-16.94-.4-18.066-.323h-.091c.154-.108.308-.232.462-.325a48.687,48.687,0,0,1,11.016-5.662,3.777,3.777,0,0,0,.4-.139c14.811-5.476,34.125-7.143,45.248-7.883.14-.015.279-.015.418-.032l.817-.046c.139,2.175.247,4.1.309,5.6,0,0-.325,3.347,6.093,3.208C568.6,385.137,568.911,385.122,569.25,385.107Z" transform="translate(-499.994 -376.313)"/><path class="k" d="M528.24,450.529a58.714,58.714,0,0,0,.335,7.355c.384,1.926,6.595,1.306,7.19.209s-.146-10.069-.146-10.069" transform="translate(-487.061 -338.739)"/><path class="f" d="M543.26,457.156c.169,2.036.157,5.88.157,5.88l-6.366,1.535-.811-1.082a11.134,11.134,0,0,1-3.742,2.039,24.915,24.915,0,0,1-6,.579c-5.26-.352-8.888-1.992-9.068-2.762-.754-3.216,6.236-2.812,7.658-2.929a9.223,9.223,0,0,0,7.634-5.36c.578-1.515.238-1.858,1.1-1.657a2.117,2.117,0,0,1,1.356.956,3.8,3.8,0,0,0,4.031,1.716,4.553,4.553,0,0,0,2.4-1.376A2.622,2.622,0,0,1,543.26,457.156Z" transform="translate(-492.757 -335.949)"/><path class="g" d="M598.851,377.84c2.5,5.822,4.145,16.35,1.635,20.857-2.2,3.953-3.245,6.4-7,7.643-16.042,5.317-31.246,3.127-48.9.783,7.475,20.2-3.361,63.47-5.049,81.814-6.787,3.012-10.626-.192-10.626-.192.771-37.34-7.552-89.493-2.515-98.417,3.062-5.424,39.608-12.584,40.335-12.488" transform="translate(-488.879 -375.521)"/></g><path class="f" d="M565.165,319.231c.308-1.285,2.3-1.381,3.208-.419a5.591,5.591,0,0,1,1.056,3.722,8.755,8.755,0,0,1-1.608,4.69c-.864,1.392-2.149,2.193-3.327,1.058a4.281,4.281,0,0,0,3.495,4.429,3.874,3.874,0,0,0,3.829-2.647c7.229,2.655,9.51-7.806,9.951-13.037a21.486,21.486,0,0,0-3.255-12.532,8.872,8.872,0,0,0-5.232-3.946,8.426,8.426,0,0,0-4.478-6.25,21.654,21.654,0,0,0-7.009-2.449c-1.612-.323-6,.855-6.825,2.5-3.071-1.765-5.8-.066-8.239.223s-5.151,2.542-4.107,4.764c-3.824-1.163-7.974,3.194-6.828,7.023s6.685,5.318,9.747,2.749a7.354,7.354,0,0,0,6.714,3.928,14.287,14.287,0,0,0,7.664-2.643,5.759,5.759,0,0,0-.271,5c.744,1.647,1.363,2.867,3.8,2.365,0,0-.215,3.8.646,3.441S565.165,319.231,565.165,319.231Z" transform="translate(-458.524 -291.795)"/><path class="h" d="M527.3,395.408c9.733-14.028,14.931-25.08,23.4-39.9l11.815-29.247s-3.981.219-4.757.28a36.642,36.642,0,0,0-9.841,1.864c-4.514,1.67-9.177,4.743-11.376,9.154-1.96,3.935-3.158,8.21-4.816,12.272-1.855,4.539-3.821,9.029-5.8,13.514-3.93,8.9-7.959,17.777-11.27,26.93" transform="translate(-469.502 -273.734)"/><path class="i" d="M541.782,350.6l-1.586-9.492-11.651,25.53,3.859.94Z" transform="translate(-462.221 -265.949)"/><path class="x" d="M575.6,335.037a302.311,302.311,0,0,1-3.6,69.58" transform="translate(-439.452 -269.133)"/><g transform="translate(0 90.919)"><rect class="y" width="90.027" height="3.237" transform="translate(120.935 46.041) rotate(180)"/><path class="l" d="M499.191,397.491h72.066l-12.921-42.127a5.539,5.539,0,0,0-5.295-3.914H489.929a3.593,3.593,0,0,0-3.435,4.647Z" transform="translate(-484.343 -351.45)"/><path class="f" d="M498.97,397.491h70.981L557.03,355.364a5.539,5.539,0,0,0-5.294-3.914H488.623a3.593,3.593,0,0,0-3.435,4.647l12.378,40.356A1.469,1.469,0,0,0,498.97,397.491Z" transform="translate(-485.028 -351.45)"/><path class="l" d="M520.877,369.362a7.264,7.264,0,1,1-7.264-7.264A7.264,7.264,0,0,1,520.877,369.362Z" transform="translate(-473.853 -345.87)"/></g><path class="i" d="M583.97,347.686c-3.711,16.783-4.883,36.137-5.932,48.136-13.921,1.027-17.824,6.371-30.576,12.048,0,0-10.071-1.672-11.129,2.126-.61,2.192,11.79,3.935,11.79,3.935,11.819.055,40.458-5.482,42.569-6.061s10.778-43.3,11.025-64.8c.035-3.054-.073-6.368-1.983-8.75a11.438,11.438,0,0,0-3.847-2.844c-8.317-4.252-14.475-5.415-23.8-6.006" transform="translate(-458.151 -274.148)"/><path class="k" d="M551.964,381.919c-1.4-1.765-3.955-2.021-6.206-1.966a45.43,45.43,0,0,0-4.982.4c-.753.1-1.618.279-1.7,1.094s3.653,0,5.61.565a98.742,98.742,0,0,1-11.533.312,3.312,3.312,0,0,0-1.326.137,1.1,1.1,0,0,0-.748,1.01,1.386,1.386,0,0,0,.527.878,7.8,7.8,0,0,0,3.967,1.6c5.881,1.029,12.061.852,17.53-1.547" transform="translate(-460.894 -245.597)"/><path class="h" d="M580.135,347.686c-.306,17.941-2.871,34.229-2.521,52.169-13.921,1.027-21,3.731-33.748,9.408a6.739,6.739,0,0,0,.422,4.668c.972.355,41.641-1.363,44.984-4.443,3.009-2.772,8.363-44.919,8.609-66.422.035-3.054-.073-6.368-1.983-8.75a11.436,11.436,0,0,0-3.847-2.844c-8.317-4.252-14.476-5.415-23.8-6.006" transform="translate(-454.317 -274.148)"/></g></g></g></svg>