<?xml version="1.0" encoding="UTF-8" standalone="no"?>
<svg
   xmlns:dc="http://purl.org/dc/elements/1.1/"
   xmlns:cc="http://creativecommons.org/ns#"
   xmlns:rdf="http://www.w3.org/1999/02/22-rdf-syntax-ns#"
   xmlns:svg="http://www.w3.org/2000/svg"
   xmlns="http://www.w3.org/2000/svg"
   xmlns:xlink="http://www.w3.org/1999/xlink"
   xmlns:sodipodi="http://sodipodi.sourceforge.net/DTD/sodipodi-0.dtd"
   xmlns:inkscape="http://www.inkscape.org/namespaces/inkscape"
   width="752"
   height="381"
   viewBox="0 0 752 381"
   version="1.1"
   id="svg238"
   sodipodi:docname="blog-banner-imac.svg"
   inkscape:version="1.0.2 (e86c870879, 2021-01-15)">
  <metadata
     id="metadata242">
    <rdf:RDF>
      <cc:Work
         rdf:about="">
        <dc:format>image/svg+xml</dc:format>
        <dc:type
           rdf:resource="http://purl.org/dc/dcmitype/StillImage" />
      </cc:Work>
    </rdf:RDF>
  </metadata>
  <sodipodi:namedview
     pagecolor="#ffffff"
     bordercolor="#666666"
     borderopacity="1"
     objecttolerance="10"
     gridtolerance="10"
     guidetolerance="10"
     inkscape:pageopacity="0"
     inkscape:pageshadow="2"
     inkscape:window-width="3840"
     inkscape:window-height="2096"
     id="namedview240"
     showgrid="false"
     inkscape:zoom="1.2393175"
     inkscape:cx="376"
     inkscape:cy="190.5"
     inkscape:window-x="0"
     inkscape:window-y="27"
     inkscape:window-maximized="1"
     inkscape:current-layer="svg238" />
  <defs
     id="defs25">
    <path
       id="a"
       d="M0 381h752V0H0z" />
    <linearGradient
       id="c"
       x1="169.6082"
       y1="110.59607"
       y2="306.47103"
       gradientTransform="scale(1.3324827,0.75047877)"
       x2="365.48316"
       gradientUnits="userSpaceOnUse">
      <stop
         offset="0%"
         stop-color="#C9FFE3"
         id="stop3" />
      <stop
         offset="100%"
         stop-color="#A3F8FF"
         id="stop5" />
    </linearGradient>
    <linearGradient
       id="d"
       x1="50%"
       x2="50%"
       y1="0%"
       y2="100%">
      <stop
         offset="0%"
         stop-color="#94D9FF"
         id="stop8" />
      <stop
         offset="100%"
         stop-color="#2DC19A"
         id="stop10" />
    </linearGradient>
    <linearGradient
       id="e"
       x1="0%"
       y1="0%"
       y2="100%">
      <stop
         offset="0%"
         stop-color="#DEFFC9"
         id="stop13" />
      <stop
         offset="100%"
         stop-color="#A3F8FF"
         id="stop15" />
    </linearGradient>
    <linearGradient
       id="f"
       x1="0%"
       y1="0%"
       y2="100%">
      <stop
         offset="0%"
         stop-color="#DEFFC9"
         id="stop18" />
      <stop
         offset="46.265%"
         stop-color="#C3FCE2"
         id="stop20" />
      <stop
         offset="100%"
         stop-color="#A3F8FF"
         id="stop22" />
    </linearGradient>
    <mask
       id="b"
       fill="#fff">
      <use
         xlink:href="#a"
         id="use37" />
    </mask>
  </defs>
  <path
     fill="#ffffff"
     d="m 246.18,31 h -25.36 c -1.557,0 -2.82,-1.343 -2.82,-3 0,-1.657 1.263,-3 2.82,-3 h 25.36 c 1.557,0 2.82,1.343 2.82,3 0,1.657 -1.263,3 -2.82,3 m 38,0 h -25.36 c -1.557,0 -2.82,-1.343 -2.82,-3 0,-1.657 1.263,-3 2.82,-3 h 25.36 c 1.557,0 2.82,1.343 2.82,3 0,1.657 -1.263,3 -2.82,3 m -79.937,0 H 122.757 C 121.234,31 120,29.657 120,28 c 0,-1.657 1.234,-3 2.757,-3 h 81.486 c 1.523,0 2.757,1.343 2.757,3 0,1.657 -1.234,3 -2.757,3 m -95.161,0 H 92.917 C 91.306,31 90,29.657 90,28 c 0,-1.657 1.306,-3 2.917,-3 h 16.165 c 1.612,0 2.918,1.343 2.918,3 0,1.657 -1.306,3 -2.918,3 m 75,11 H 167.917 C 166.307,42 165,40.657 165,39 c 0,-1.657 1.306,-3 2.917,-3 h 16.165 c 1.612,0 2.918,1.343 2.918,3 0,1.657 -1.306,3 -2.918,3 m -57.924,0 H 50.843 C 49.273,42 48,40.657 48,39 c 0,-1.657 1.273,-3 2.843,-3 h 75.315 c 1.57,0 2.842,1.343 2.842,3 0,1.657 -1.273,3 -2.842,3 m 0,9 H 50.843 C 49.273,51 48,49.657 48,48 c 0,-1.657 1.273,-3 2.843,-3 h 75.315 c 1.57,0 2.842,1.343 2.842,3 0,1.657 -1.273,3 -2.842,3 m 0,10 H 50.843 C 49.273,61 48,59.657 48,58 c 0,-1.657 1.273,-3 2.843,-3 h 75.315 c 1.57,0 2.842,1.343 2.842,3 0,1.657 -1.273,3 -2.842,3 m 0,11 H 50.843 C 49.273,72 48,70.657 48,69 c 0,-1.657 1.273,-3 2.843,-3 h 75.315 c 1.57,0 2.842,1.343 2.842,3 0,1.657 -1.273,3 -2.842,3 m 0,9 H 50.843 C 49.273,81 48,79.657 48,78 c 0,-1.657 1.273,-3 2.843,-3 h 75.315 c 1.57,0 2.842,1.343 2.842,3 0,1.657 -1.273,3 -2.842,3 m 0,11 H 50.843 C 49.273,92 48,90.657 48,89 c 0,-1.657 1.273,-3 2.843,-3 h 75.315 c 1.57,0 2.842,1.343 2.842,3 0,1.657 -1.273,3 -2.842,3 m 0,9 H 50.843 C 49.273,101 48,99.657 48,98 c 0,-1.657 1.273,-3 2.843,-3 h 75.315 c 1.57,0 2.842,1.343 2.842,3 0,1.657 -1.273,3 -2.842,3 m 0,11 H 50.843 C 49.273,112 48,110.657 48,109 c 0,-1.657 1.273,-3 2.843,-3 h 75.315 c 1.57,0 2.842,1.343 2.842,3 0,1.657 -1.273,3 -2.842,3 m 0,11 H 50.843 C 49.273,123 48,121.657 48,120 c 0,-1.657 1.273,-3 2.843,-3 h 75.315 c 1.57,0 2.842,1.343 2.842,3 0,1.657 -1.273,3 -2.842,3 m 0,9 H 50.843 C 49.273,132 48,130.657 48,129 c 0,-1.657 1.273,-3 2.843,-3 h 75.315 c 1.57,0 2.842,1.343 2.842,3 0,1.657 -1.273,3 -2.842,3"
     mask="url(#b)"
     opacity="0.525"
     id="path102"
     style="fill-rule:evenodd" />
  <g
     id="g402"
     transform="matrix(1.6114179,0,0,1.6114179,-244.90193,0)">
    <path
       fill="#dedede"
       d="M 348,183 H 498 V 0 H 348 Z"
       mask="url(#b)"
       id="path40"
       style="fill-rule:evenodd" />
    <path
       fill="#b2b2b2"
       d="M 509,237 H 484 V 12.52 C 484,5.607 489.596,0 496.5,0 503.404,0 509,5.606 509,12.52 Z"
       mask="url(#b)"
       id="path42"
       style="fill-rule:evenodd" />
    <path
       fill="#dedede"
       d="M 483,183 H 321 V 12.808 C 321,5.734 326.719,0 333.774,0 H 483 Z"
       mask="url(#b)"
       id="path44"
       style="fill-rule:evenodd" />
    <path
       fill="#989898"
       d="M 392.206,31 H 342.794 C 341.251,31 340,29.657 340,28 c 0,-1.657 1.25,-3 2.794,-3 h 49.412 c 1.543,0 2.794,1.343 2.794,3 0,1.657 -1.25,3 -2.794,3 m 22.588,0 C 413.251,31 412,29.657 412,28 c 0,-1.657 1.25,-3 2.794,-3 h 49.412 c 1.543,0 2.794,1.343 2.794,3 0,1.657 -1.25,3 -2.794,3 z"
       mask="url(#b)"
       id="path46"
       style="fill-rule:evenodd" />
    <path
       fill="#cbcbcb"
       d="M 342.794,42 C 341.251,42 340,40.657 340,39 c 0,-1.657 1.25,-3 2.794,-3 h 49.412 c 1.543,0 2.794,1.343 2.794,3 0,1.657 -1.25,3 -2.794,3 z m 121.412,0 H 414.794 C 413.251,42 412,40.657 412,39 c 0,-1.657 1.25,-3 2.794,-3 h 49.412 c 1.543,0 2.794,1.343 2.794,3 0,1.657 -1.25,3 -2.794,3 m -72,9 H 342.794 C 341.251,51 340,49.657 340,48 c 0,-1.657 1.25,-3 2.794,-3 h 49.412 c 1.543,0 2.794,1.343 2.794,3 0,1.657 -1.25,3 -2.794,3 m 72,0 H 414.794 C 413.251,51 412,49.657 412,48 c 0,-1.657 1.25,-3 2.794,-3 h 49.412 c 1.543,0 2.794,1.343 2.794,3 0,1.657 -1.25,3 -2.794,3 m -72,10 H 342.794 C 341.251,61 340,59.657 340,58 c 0,-1.657 1.25,-3 2.794,-3 h 49.412 c 1.543,0 2.794,1.343 2.794,3 0,1.657 -1.25,3 -2.794,3 m 72,0 H 414.794 C 413.251,61 412,59.657 412,58 c 0,-1.657 1.25,-3 2.794,-3 h 49.412 c 1.543,0 2.794,1.343 2.794,3 0,1.657 -1.25,3 -2.794,3 m -72,11 H 342.794 C 341.251,72 340,70.657 340,69 c 0,-1.657 1.25,-3 2.794,-3 h 49.412 c 1.543,0 2.794,1.343 2.794,3 0,1.657 -1.25,3 -2.794,3 m 72,0 H 414.794 C 413.251,72 412,70.657 412,69 c 0,-1.657 1.25,-3 2.794,-3 h 49.412 c 1.543,0 2.794,1.343 2.794,3 0,1.657 -1.25,3 -2.794,3 m -72,7 H 342.794 C 341.251,79 340,77.657 340,76 c 0,-1.657 1.25,-3 2.794,-3 h 49.412 c 1.543,0 2.794,1.343 2.794,3 0,1.657 -1.25,3 -2.794,3 m 72,0 H 414.794 C 413.251,79 412,77.657 412,76 c 0,-1.657 1.25,-3 2.794,-3 h 49.412 c 1.543,0 2.794,1.343 2.794,3 0,1.657 -1.25,3 -2.794,3 M 373.188,90 H 342.812 C 341.259,90 340,88.657 340,87 c 0,-1.657 1.259,-3 2.812,-3 h 30.376 c 1.553,0 2.812,1.343 2.812,3 0,1.657 -1.259,3 -2.812,3 m 77.027,0 h -35.43 C 413.247,90 412,88.657 412,87 c 0,-1.657 1.247,-3 2.785,-3 h 35.43 c 1.538,0 2.785,1.343 2.785,3 0,1.657 -1.247,3 -2.785,3"
       mask="url(#b)"
       id="path48"
       style="fill-rule:evenodd" />
    <path
       fill="#989898"
       d="m 392.206,109 h -49.412 c -1.543,0 -2.794,-1.343 -2.794,-3 0,-1.657 1.25,-3 2.794,-3 h 49.412 c 1.543,0 2.794,1.343 2.794,3 0,1.657 -1.25,3 -2.794,3"
       mask="url(#b)"
       id="path50"
       style="fill-rule:evenodd" />
    <path
       fill="#cbcbcb"
       d="m 392.206,118 h -49.412 c -1.543,0 -2.794,-1.343 -2.794,-3 0,-1.657 1.25,-3 2.794,-3 h 49.412 c 1.543,0 2.794,1.343 2.794,3 0,1.657 -1.25,3 -2.794,3 m 0,10 h -49.412 c -1.543,0 -2.794,-1.343 -2.794,-3 0,-1.657 1.25,-3 2.794,-3 h 49.412 c 1.543,0 2.794,1.343 2.794,3 0,1.657 -1.25,3 -2.794,3 m 0,11 h -49.412 c -1.543,0 -2.794,-1.343 -2.794,-3 0,-1.657 1.25,-3 2.794,-3 h 49.412 c 1.543,0 2.794,1.343 2.794,3 0,1.657 -1.25,3 -2.794,3 m 0,11 h -49.412 c -1.543,0 -2.794,-1.343 -2.794,-3 0,-1.657 1.25,-3 2.794,-3 h 49.412 c 1.543,0 2.794,1.343 2.794,3 0,1.657 -1.25,3 -2.794,3 m 0,7 h -49.412 c -1.543,0 -2.794,-1.343 -2.794,-3 0,-1.657 1.25,-3 2.794,-3 h 49.412 c 1.543,0 2.794,1.343 2.794,3 0,1.657 -1.25,3 -2.794,3 m -32.944,11 h -16.524 c -1.512,0 -2.738,-1.343 -2.738,-3 0,-1.657 1.226,-3 2.738,-3 h 16.524 c 1.512,0 2.738,1.343 2.738,3 0,1.657 -1.226,3 -2.738,3"
       mask="url(#b)"
       id="path52"
       style="fill-rule:evenodd" />
    <path
       fill="#989898"
       d="m 412,169 h 55 v -66 h -55 z"
       mask="url(#b)"
       id="path54"
       style="fill-rule:evenodd" />
    <path
       fill="#ffffff"
       d="M 298,231 H 448 V 48 H 298 Z"
       mask="url(#b)"
       id="path56"
       style="fill-rule:evenodd" />
    <path
       fill="#b2b2b2"
       d="M 460,231 H 435 V 60.525 C 435,53.607 440.596,48 447.5,48 c 6.904,0 12.5,5.607 12.5,12.525 z"
       mask="url(#b)"
       id="path58"
       style="fill-rule:evenodd" />
    <path
       fill="url(#c)"
       d="M 324.786,83 H 226 V 230 H 487 V 83 Z"
       mask="url(#b)"
       id="path84"
       style="fill:url(#c);fill-rule:evenodd" />
    <path
       fill="#ffffff"
       d="M 433,229 H 271 V 60.759 C 271,53.712 276.719,48 283.774,48 H 433 Z"
       mask="url(#b)"
       id="path86"
       style="fill-rule:evenodd" />
    <path
       fill="#989898"
       d="M 342.206,79 H 292.794 C 291.251,79 290,77.657 290,76 c 0,-1.657 1.251,-3 2.794,-3 h 49.412 c 1.543,0 2.794,1.343 2.794,3 0,1.657 -1.25,3 -2.794,3 m 72,0 H 364.794 C 363.251,79 362,77.657 362,76 c 0,-1.657 1.251,-3 2.794,-3 h 49.412 c 1.543,0 2.794,1.343 2.794,3 0,1.657 -1.25,3 -2.794,3"
       mask="url(#b)"
       id="path88"
       style="fill-rule:evenodd" />
    <path
       fill="#cbcbcb"
       d="M 342.206,89 H 292.794 C 291.251,89 290,87.657 290,86 c 0,-1.657 1.251,-3 2.794,-3 h 49.412 c 1.543,0 2.794,1.343 2.794,3 0,1.657 -1.25,3 -2.794,3 m 72,0 H 364.794 C 363.251,89 362,87.657 362,86 c 0,-1.657 1.251,-3 2.794,-3 h 49.412 c 1.543,0 2.794,1.343 2.794,3 0,1.657 -1.25,3 -2.794,3 m -72,11 H 292.794 C 291.251,100 290,98.657 290,97 c 0,-1.657 1.251,-3 2.794,-3 h 49.412 c 1.543,0 2.794,1.343 2.794,3 0,1.657 -1.25,3 -2.794,3 m 72,0 H 364.794 C 363.251,100 362,98.657 362,97 c 0,-1.657 1.251,-3 2.794,-3 h 49.412 c 1.543,0 2.794,1.343 2.794,3 0,1.657 -1.25,3 -2.794,3 m -72,9 h -49.412 c -1.543,0 -2.794,-1.343 -2.794,-3 0,-1.657 1.251,-3 2.794,-3 h 49.412 c 1.543,0 2.794,1.343 2.794,3 0,1.657 -1.25,3 -2.794,3 m 72,0 h -49.412 c -1.543,0 -2.794,-1.343 -2.794,-3 0,-1.657 1.251,-3 2.794,-3 h 49.412 c 1.543,0 2.794,1.343 2.794,3 0,1.657 -1.25,3 -2.794,3 m -72,9 h -49.412 c -1.543,0 -2.794,-1.343 -2.794,-3 0,-1.657 1.251,-3 2.794,-3 h 49.412 c 1.543,0 2.794,1.343 2.794,3 0,1.657 -1.25,3 -2.794,3 m 72,0 h -49.412 c -1.543,0 -2.794,-1.343 -2.794,-3 0,-1.657 1.251,-3 2.794,-3 h 49.412 c 1.543,0 2.794,1.343 2.794,3 0,1.657 -1.25,3 -2.794,3 m -72,11 h -49.412 c -1.543,0 -2.794,-1.343 -2.794,-3 0,-1.657 1.251,-3 2.794,-3 h 49.412 c 1.543,0 2.794,1.343 2.794,3 0,1.657 -1.25,3 -2.794,3 m 72,0 h -49.412 c -1.543,0 -2.794,-1.343 -2.794,-3 0,-1.657 1.251,-3 2.794,-3 h 49.412 c 1.543,0 2.794,1.343 2.794,3 0,1.657 -1.25,3 -2.794,3"
       mask="url(#b)"
       id="path90"
       style="fill-rule:evenodd" />
    <path
       fill="#989898"
       d="m 317.188,139 h -30.376 c -1.553,0 -2.812,-1.343 -2.812,-3 0,-1.657 1.259,-3 2.812,-3 h 30.376 c 1.553,0 2.812,1.343 2.812,3 0,1.657 -1.259,3 -2.812,3 m -41,0 h -30.376 c -1.553,0 -2.812,-1.343 -2.812,-3 0,-1.657 1.259,-3 2.812,-3 h 30.376 c 1.553,0 2.812,1.343 2.812,3 0,1.657 -1.259,3 -2.812,3"
       mask="url(#b)"
       id="path92"
       style="fill-rule:evenodd" />
    <path
       fill="#cbcbcb"
       d="m 400.215,139 h -35.43 c -1.538,0 -2.785,-1.343 -2.785,-3 0,-1.657 1.247,-3 2.785,-3 h 35.43 c 1.538,0 2.785,1.343 2.785,3 0,1.657 -1.247,3 -2.785,3"
       mask="url(#b)"
       id="path94"
       style="fill-rule:evenodd" />
    <path
       fill="#989898"
       d="m 343.235,157 h -28.47 c -1.527,0 -2.765,-1.343 -2.765,-3 0,-1.657 1.238,-3 2.765,-3 h 28.47 c 1.527,0 2.765,1.343 2.765,3 0,1.657 -1.238,3 -2.765,3"
       mask="url(#b)"
       id="path96"
       style="fill-rule:evenodd" />
    <path
       fill="#cbcbcb"
       d="m 342.206,167 h -49.412 c -1.543,0 -2.794,-1.343 -2.794,-3 0,-1.657 1.251,-3 2.794,-3 h 49.412 c 1.543,0 2.794,1.343 2.794,3 0,1.657 -1.25,3 -2.794,3 m 0,11 h -49.412 c -1.543,0 -2.794,-1.343 -2.794,-3 0,-1.657 1.251,-3 2.794,-3 h 49.412 c 1.543,0 2.794,1.343 2.794,3 0,1.657 -1.25,3 -2.794,3 m 0.974,8 h -30.36 c -1.557,0 -2.82,-1.343 -2.82,-3 0,-1.657 1.263,-3 2.82,-3 h 30.36 c 1.558,0 2.82,1.343 2.82,3 0,1.657 -1.262,3 -2.82,3 m -0.974,11 h -49.412 c -1.543,0 -2.794,-1.343 -2.794,-3 0,-1.657 1.251,-3 2.794,-3 h 49.412 c 1.543,0 2.794,1.343 2.794,3 0,1.657 -1.25,3 -2.794,3 m 0,10 h -49.412 c -1.543,0 -2.794,-1.343 -2.794,-3 0,-1.657 1.251,-3 2.794,-3 h 49.412 c 1.543,0 2.794,1.343 2.794,3 0,1.657 -1.25,3 -2.794,3 m -32.944,8 h -16.524 c -1.512,0 -2.738,-1.343 -2.738,-3 0,-1.657 1.226,-3 2.738,-3 h 16.524 c 1.512,0 2.738,1.343 2.738,3 0,1.657 -1.226,3 -2.738,3"
       mask="url(#b)"
       id="path98"
       style="fill-rule:evenodd" />
    <path
       fill="#989898"
       d="m 362,217 h 55 v -66 h -55 z m -83.728,-60 h -19.544 c -1.506,0 -2.728,-1.343 -2.728,-3 0,-1.657 1.222,-3 2.728,-3 h 19.544 c 1.507,0 2.728,1.343 2.728,3 0,1.657 -1.221,3 -2.728,3"
       mask="url(#b)"
       id="path100"
       style="fill-rule:evenodd" />
    <path
       fill="#989898"
       d="m 280.105,186 h -38.21 c -1.6,0 -2.895,-1.343 -2.895,-3 0,-1.657 1.296,-3 2.894,-3 h 38.211 c 1.599,0 2.895,1.343 2.895,3 0,1.657 -1.296,3 -2.895,3"
       mask="url(#b)"
       id="path106"
       style="fill-rule:evenodd" />
    <path
       fill="#ffffff"
       d="m 253,161.845 c 0,0 6.3,-6.115 8.494,-5.836 2.193,0.28 -3.146,6.778 -8.312,7.991 z"
       mask="url(#b)"
       id="path112"
       style="fill-rule:evenodd" />
    <path
       fill="#ffffff"
       d="m 237,189.626 c 0,0 7.937,-6.105 10.462,-5.596 2.526,0.509 -4.329,7.122 -10.462,7.97 z"
       mask="url(#b)"
       id="path140"
       style="fill-rule:evenodd" />
    <path
       fill="#292b3b"
       d="M 396,180.331 391.37,181 384,122.669 388.63,122 Z"
       mask="url(#b)"
       id="path176"
       style="fill-rule:evenodd" />
    <path
       fill="#ed505e"
       d="M 397,181.913 390.025,183 385,140.087 391.975,139 Z"
       mask="url(#b)"
       id="path178"
       style="fill-rule:evenodd" />
    <path
       fill="#292b3b"
       d="m 383.215,118.998 c -15.187,2.052 -29.162,-8.596 -31.213,-23.783 -2.052,-15.187 8.596,-29.162 23.783,-31.213 15.187,-2.052 29.162,8.596 31.213,23.783 2.052,15.187 -8.596,29.162 -23.783,31.213 m -7.798,-57.72 c -16.69,2.255 -28.394,17.614 -26.139,34.305 2.255,16.69 17.614,28.394 34.305,26.139 16.69,-2.255 28.394,-17.614 26.139,-34.305 -2.255,-16.69 -17.614,-28.394 -34.305,-26.139"
       mask="url(#b)"
       id="path180"
       style="fill-rule:evenodd" />
    <path
       fill="#ffffff"
       d="m 200,132 a 4,4 0 0 0 4,-4 4,4 0 0 0 4,4 4,4 0 0 0 -4,4 4,4 0 0 0 -4,-4 m 40,-73 a 4,4 0 0 0 4,-4 4,4 0 0 0 4,4 4,4 0 0 0 -4,4 4,4 0 0 0 -4,-4 m 325,96 a 4,4 0 0 0 4,-4 4,4 0 0 0 4,4 4,4 0 0 0 -4,4 4,4 0 0 0 -4,-4 M 184,116 a 7,7 0 0 0 7,-7 7,7 0 0 0 7,7 7,7 0 0 0 -7,7 7,7 0 0 0 -7,-7 m 389,28 a 7,7 0 0 0 7,-7 7,7 0 0 0 7,7 7,7 0 0 0 -7,7 7,7 0 0 0 -7,-7"
       mask="url(#b)"
       id="path212"
       style="fill-rule:evenodd" />
    <path
       fill="#4ec0a6"
       d="m 365,80 a 7,7 0 0 0 7,-7 7,7 0 0 0 7,7 7,7 0 0 0 -7,7 7,7 0 0 0 -7,-7 m 11,10 a 4,4 0 0 0 4,-4 4,4 0 0 0 4,4 4,4 0 0 0 -4,4 4,4 0 0 0 -4,-4"
       mask="url(#b)"
       id="path214"
       style="fill-rule:evenodd" />
  </g>
</svg>
