<?xml version="1.0" encoding="UTF-8" standalone="no"?>
<!-- Created with Inkscape (http://www.inkscape.org/) -->

<svg
   xmlns:dc="http://purl.org/dc/elements/1.1/"
   xmlns:cc="http://creativecommons.org/ns#"
   xmlns:rdf="http://www.w3.org/1999/02/22-rdf-syntax-ns#"
   xmlns:svg="http://www.w3.org/2000/svg"
   xmlns="http://www.w3.org/2000/svg"
   xmlns:sodipodi="http://sodipodi.sourceforge.net/DTD/sodipodi-0.dtd"
   xmlns:inkscape="http://www.inkscape.org/namespaces/inkscape"
   version="1.1"
   id="svg2"
   xml:space="preserve"
   width="793.70135"
   height="793.70135"
   viewBox="0 0 793.70135 793.70135"
   sodipodi:docname="CIIM_LOGO_FINAL.svg"
   inkscape:version="0.92.5 (2060ec1f9f, 2020-04-08)"><metadata
     id="metadata8"><rdf:RDF><cc:Work
         rdf:about=""><dc:format>image/svg+xml</dc:format><dc:type
           rdf:resource="http://purl.org/dc/dcmitype/StillImage" /><dc:title></dc:title></cc:Work></rdf:RDF></metadata><defs
     id="defs6"><clipPath
       clipPathUnits="userSpaceOnUse"
       id="clipPath574"><path
         d="M 0,595.276 H 595.276 V 0 H 0 Z"
         id="path572"
         inkscape:connector-curvature="0" /></clipPath><clipPath
       clipPathUnits="userSpaceOnUse"
       id="clipPath590"><path
         d="M 0,595.276 H 595.276 V 0 H 0 Z"
         id="path588"
         inkscape:connector-curvature="0" /></clipPath><clipPath
       clipPathUnits="userSpaceOnUse"
       id="clipPath730"><path
         d="M 0,595.276 H 595.276 V 0 H 0 Z"
         id="path728"
         inkscape:connector-curvature="0" /></clipPath><clipPath
       clipPathUnits="userSpaceOnUse"
       id="clipPath774"><path
         d="M 0,595.276 H 595.276 V 0 H 0 Z"
         id="path772"
         inkscape:connector-curvature="0" /></clipPath><clipPath
       clipPathUnits="userSpaceOnUse"
       id="clipPath902"><path
         d="M 0,595.276 H 595.276 V 0 H 0 Z"
         id="path900"
         inkscape:connector-curvature="0" /></clipPath><clipPath
       clipPathUnits="userSpaceOnUse"
       id="clipPath1006"><path
         d="M 0,595.276 H 595.276 V 0 H 0 Z"
         id="path1004"
         inkscape:connector-curvature="0" /></clipPath><clipPath
       clipPathUnits="userSpaceOnUse"
       id="clipPath1270"><path
         d="M 0,595.276 H 595.276 V 0 H 0 Z"
         id="path1268"
         inkscape:connector-curvature="0" /></clipPath><clipPath
       clipPathUnits="userSpaceOnUse"
       id="clipPath1294"><path
         d="M 0,595.276 H 595.276 V 0 H 0 Z"
         id="path1292"
         inkscape:connector-curvature="0" /></clipPath><clipPath
       clipPathUnits="userSpaceOnUse"
       id="clipPath1322"><path
         d="M 0,595.276 H 595.276 V 0 H 0 Z"
         id="path1320"
         inkscape:connector-curvature="0" /></clipPath><clipPath
       clipPathUnits="userSpaceOnUse"
       id="clipPath1838"><path
         d="M 0,595.276 H 595.276 V 0 H 0 Z"
         id="path1836"
         inkscape:connector-curvature="0" /></clipPath><clipPath
       clipPathUnits="userSpaceOnUse"
       id="clipPath1846"><path
         d="m 91.204,528.833 h 412.87 V 52.083 H 91.204 Z"
         id="path1844"
         inkscape:connector-curvature="0" /></clipPath></defs><sodipodi:namedview
     pagecolor="#ffffff"
     bordercolor="#666666"
     borderopacity="1"
     objecttolerance="10"
     gridtolerance="10"
     guidetolerance="10"
     inkscape:pageopacity="0"
     inkscape:pageshadow="2"
     inkscape:window-width="1324"
     inkscape:window-height="1108"
     id="namedview4"
     showgrid="false"
     inkscape:zoom="0.84100751"
     inkscape:cx="313.35596"
     inkscape:cy="381.61454"
     inkscape:window-x="972"
     inkscape:window-y="386"
     inkscape:window-maximized="0"
     inkscape:current-layer="g10" /><g
     id="g10"
     inkscape:groupmode="layer"
     inkscape:label="CIIM"
     transform="matrix(1.3333333,0,0,-1.3333333,0,793.70133)"><g
       id="g1840"><g
         id="g1842" /><g
         id="g1914"><g
           clip-path="url(#clipPath1846)"
           id="g1912"><g
             transform="translate(504.0738,409.653)"
             id="g1850"><path
               d="m 0,0 v -238.38 l -41.29,-23.84 v 238.38 z"
               style="fill:#1e3c3f;fill-opacity:1;fill-rule:nonzero;stroke:none"
               id="path1848"
               inkscape:connector-curvature="0" /></g><g
             transform="translate(504.0738,409.653)"
             id="g1854"><path
               d="M 0,0 -41.29,-23.84 -82.569,0 -41.29,23.83 Z"
               style="fill:#62fcd7;fill-opacity:1;fill-rule:nonzero;stroke:none"
               id="path1852"
               inkscape:connector-curvature="0" /></g><g
             transform="translate(462.7837,385.8132)"
             id="g1858"><path
               d="m 0,0 v -238.38 l -41.279,23.839 V -23.84 23.84 Z"
               style="fill:#1f9883;fill-opacity:1;fill-rule:nonzero;stroke:none"
               id="path1856"
               inkscape:connector-curvature="0" /></g><g
             transform="translate(421.5044,171.2727)"
             id="g1862"><path
               d="m 0,0 v -47.67 l -41.29,-23.84 v 190.7 L -82.58,95.351 V -47.67 -95.35 l -41.291,-23.839 V 119.19 L 0,190.7 Z"
               style="fill:#1e3c3f;fill-opacity:1;fill-rule:nonzero;stroke:none"
               id="path1860"
               inkscape:connector-curvature="0" /></g><g
             transform="translate(421.5044,457.323)"
             id="g1866"><path
               d="m 0,0 v -47.67 l -41.29,-23.84 v 47.67 z"
               style="fill:#1e3c3f;fill-opacity:1;fill-rule:nonzero;stroke:none"
               id="path1864"
               inkscape:connector-curvature="0" /></g><g
             transform="translate(421.5044,457.323)"
             id="g1870"><path
               d="M 0,0 -41.29,-23.84 -123.871,23.84 -206.44,-23.84 -247.73,0 -123.871,71.51 Z"
               style="fill:#62fcd7;fill-opacity:1;fill-rule:nonzero;stroke:none"
               id="path1868"
               inkscape:connector-curvature="0" /></g><g
             transform="translate(421.5044,361.9729)"
             id="g1874"><path
               d="M 0,0 -123.871,-71.51 -247.73,0 -206.44,23.84 -165.15,0 l 41.279,-23.84 82.581,47.68 z"
               style="fill:#62fcd7;fill-opacity:1;fill-rule:nonzero;stroke:none"
               id="path1872"
               inkscape:connector-curvature="0" /></g><g
             transform="translate(380.2144,290.4631)"
             id="g1878"><path
               d="m 0,0 v -190.7 l -41.29,23.84 v 143.02 z"
               style="fill:#1f9883;fill-opacity:1;fill-rule:nonzero;stroke:none"
               id="path1876"
               inkscape:connector-curvature="0" /></g><g
             transform="translate(380.2144,433.4831)"
             id="g1882"><path
               d="M 0,0 V -47.67 L -82.581,0 v 47.68 z"
               style="fill:#1f9883;fill-opacity:1;fill-rule:nonzero;stroke:none"
               id="path1880"
               inkscape:connector-curvature="0" /></g><g
             transform="translate(297.6338,290.4631)"
             id="g1886"><path
               d="m 0,0 v -238.38 l -41.28,23.84 v 47.68 143.02 L -82.57,0 v -190.7 l -41.29,23.84 v 47.67 190.7 z"
               style="fill:#1f9883;fill-opacity:1;fill-rule:nonzero;stroke:none"
               id="path1884"
               inkscape:connector-curvature="0" /></g><g
             transform="translate(297.6338,481.1628)"
             id="g1890"><path
               d="m 0,0 v -47.68 l -41.28,-23.83 v -47.68 l -41.29,23.84 v 47.67 z"
               style="fill:#1e3c3f;fill-opacity:1;fill-rule:nonzero;stroke:none"
               id="path1888"
               inkscape:connector-curvature="0" /></g><g
             transform="translate(256.354,266.6233)"
             id="g1894"><path
               d="M 0,0 V -143.021 L -41.29,-166.86 V 23.84 Z"
               style="fill:#1e3c3f;fill-opacity:1;fill-rule:nonzero;stroke:none"
               id="path1892"
               inkscape:connector-curvature="0" /></g><g
             transform="translate(215.064,433.4831)"
             id="g1898"><path
               d="m 0,0 v -47.67 l -41.29,-23.84 v 47.68 47.67 z"
               style="fill:#1f9883;fill-opacity:1;fill-rule:nonzero;stroke:none"
               id="path1896"
               inkscape:connector-curvature="0" /></g><g
             transform="translate(173.774,361.9729)"
             id="g1902"><path
               d="m 0,0 v -190.7 l -41.29,-23.84 V 23.84 L 0,47.68 Z"
               style="fill:#1e3c3f;fill-opacity:1;fill-rule:nonzero;stroke:none"
               id="path1900"
               inkscape:connector-curvature="0" /></g><g
             transform="translate(173.774,409.653)"
             id="g1906"><path
               d="M 0,0 -41.29,-23.84 -82.57,0 -41.29,23.83 Z"
               style="fill:#62fcd7;fill-opacity:1;fill-rule:nonzero;stroke:none"
               id="path1904"
               inkscape:connector-curvature="0" /></g><g
             transform="translate(132.4839,385.8132)"
             id="g1910"><path
               d="m 0,0 v -238.38 l -41.28,23.839 V 23.84 Z"
               style="fill:#1f9883;fill-opacity:1;fill-rule:nonzero;stroke:none"
               id="path1908"
               inkscape:connector-curvature="0" /></g></g></g></g></g></svg>