<svg id="未来_标志" data-name="未来+标志" xmlns="http://www.w3.org/2000/svg" viewBox="0 0 368.5 368.5"><defs><style>.cls-1{fill:#494948;}</style></defs><path class="cls-1" d="M68.89,309.13a10,10,0,0,0,1,2.18c-3.83,3.33-4.54,3.93-4.94,4.46A7.82,7.82,0,0,0,63.55,314a3.59,3.59,0,0,0,1.3-2.64v-6.59H62.27v-2.52h5.12v8.14ZM66.7,301a28.41,28.41,0,0,0-3.41-3.55L65,295.86a36.11,36.11,0,0,1,3.53,3.33Zm13.45,3.71v1.85h2.52v2.38H80.15v4.39c0,1.32-.24,2-1.12,2.36a9.57,9.57,0,0,1-3.68.42,9.56,9.56,0,0,0-.82-2.47c1.08,0,2.25,0,2.58,0s.46-.07.46-.38v-4.34H72.81a16.62,16.62,0,0,1,2.45,3.59L73,313.76a19,19,0,0,0-2.4-3.86l1.85-1H69.19v-2.38h8.38V304.7H68.78v-2.38h5.84V300.4H70.21V298h4.41v-2.41H77.2V298h4.65v2.38H77.2v1.92h5.64v2.38Z"/><path class="cls-1" d="M94.35,314.27a11,11,0,0,0,2.74-3.75l2.18,1a13.65,13.65,0,0,1-2.74,4.06ZM114,302.34H95v-2h4.61a9,9,0,0,0-.44-1.21l1.65-.33H96.05v-2h7.14c-.11-.35-.24-.73-.37-1l2.56-.46a9.64,9.64,0,0,1,.63,1.5h6.86v2h-4.52l1.77.31c-.27.44-.49.86-.71,1.23H114Zm-2.38,7.52h-6.75a16.87,16.87,0,0,1,2.32,1.45l-1.61,1.61a15.5,15.5,0,0,0-3.46-2.18l.9-.88h-5.6v-6.73h14.2Zm-5.12,3.9c.82,0,.95-.24,1.06-1.79a7.68,7.68,0,0,0,2.23.82c-.29,2.45-1,3.06-3,3.06h-3.55c-2.78,0-3.46-.64-3.46-2.71v-2.31h2.55v2.29c0,.57.18.64,1.17.64Zm2.52-9H99.93v.95h9.13Zm0,2.5H99.93v.94h9.13Zm-7.45-8.49a9.65,9.65,0,0,1,.61,1.54h4.5c.22-.51.46-1.08.62-1.54Zm10,11.55a17.32,17.32,0,0,1,2.69,3.9l-2.27,1a16.47,16.47,0,0,0-2.53-4Z"/><path class="cls-1" d="M131.39,302.82c.6.8,2.12,3.2,2.47,3.77l-1.5,1.75c-.22-.58-.57-1.39-1-2.21v9.94h-2.31v-8.68a20.07,20.07,0,0,1-2,4.61,15.64,15.64,0,0,0-1.23-2.63,20.88,20.88,0,0,0,3-7.34h-2.51v-2.42h2.76v-4.13h2.31v4.13h1.88V302h-1.88Zm11.29-4V301h3.51v15H143.8v-1.24h-7.4V316h-2.25V301h3.11v-2.13h-3.53v-2.43h12.76v2.43Zm1.12,13.55v-3.35h-1.52c-1.47,0-1.85-.5-1.85-2.31v-3.46h-.92v1.19a7.12,7.12,0,0,1-2.25,5.66,10.49,10.49,0,0,0-.86-1v3.26Zm-7.4-9.12v5a5.31,5.31,0,0,0,1.28-3.84v-1.14Zm4.08-4.43h-1V301h1Zm3.32,4.43h-1.54v3.41c0,.45.05.51.33.51h.8c.26,0,.33,0,.37-.13l0,0Z"/><path class="cls-1" d="M171.74,306.88v1.81h5v7.41h-2.62v-.64h-7.47v.66h-2.52v-7.43h5v-1.81h-6.2c-.24,3.2-.95,6.77-2.62,9.3A10.68,10.68,0,0,0,158,314.8c2.27-3.33,2.47-8.25,2.47-11.76v-6.46h16.64v6.09h-5.33v1.87h6.42v2.34Zm-2.62-2.34v-1.87h-6.05V303c0,.47,0,1,0,1.5Zm-6.05-5.66v1.5h11.34v-1.5ZM174.12,311h-7.47v2.18h7.47Z"/><path class="cls-1" d="M210.12,298.9s0,.88,0,1.19c-.28,9.86-.53,13.36-1.43,14.53a2.92,2.92,0,0,1-2.12,1.21,25.23,25.23,0,0,1-3.46.05,6.17,6.17,0,0,0-.86-2.56c1.41.13,2.71.13,3.29.13a1.2,1.2,0,0,0,1-.37c.64-.71.92-4,1.17-11.8h-4.72a19.42,19.42,0,0,1-1.94,3.48,18.68,18.68,0,0,0-1.7-1.23v10.3h-5.89v1.61H191V299.05h2.49a23.32,23.32,0,0,0,.64-3.55l2.87.4c-.38,1.1-.77,2.21-1.15,3.15h3.42v3.58a22.87,22.87,0,0,0,3-7.1l2.51.57c-.24.95-.53,1.87-.86,2.8Zm-13.2,2.45h-3.51v3.57h3.51Zm0,10.16v-4.32h-3.51v4.32Zm7.32-1.19a48.11,48.11,0,0,0-3.07-5.09l2.05-1.17a50.66,50.66,0,0,1,3.24,4.89Z"/><path class="cls-1" d="M242.14,297.05v2.33h-4.46v1h-2.62v-1h-5.53v1H227v-1H222.6v-2.33H227v-1.52h2.58v1.52h5.53v-1.52h2.62v1.52Zm-19,3.83h18.72v4.55h-2.54v-2.56H225.49v2.56h-2.4Zm1.7,8.43h15.39v6.83h-2.63v-.62H227.3v.62h-2.51Zm13.42-5.58v4.78H226.64v-4.78Zm-10.91,7.85v1.8h10.25v-1.8Zm8.31-6.11h-6.52v1.32h6.52Z"/><path class="cls-1" d="M259.29,311.73c.33.2.73.51,1.28.84,1.35.79,3.29.88,5.62.88a72.39,72.39,0,0,0,8.69-.53,10.47,10.47,0,0,0-.71,2.58c-2,.13-5.68.24-8.07.24-2.66,0-4.41-.22-5.79-1-.82-.47-1.48-1-1.9-1-.64,0-1.72,1.19-2.69,2.43l-1.57-2.3a11,11,0,0,1,2.63-1.85V306.4h-2.49V304h5Zm-1.65-10.47a20.88,20.88,0,0,0-3.26-3.62l1.94-1.39a19.13,19.13,0,0,1,3.39,3.42Zm5.62-1a10,10,0,0,1-1.19,1.85,15.08,15.08,0,0,0-2.21-1.21,12.63,12.63,0,0,0,2.56-5.14l2.43.56c-.16.59-.36,1.14-.55,1.72H266v-2.47h2.6V298h4.78v2.22h-4.78v1.85h5.69v2.21H260.15v-2.21H266v-1.85ZM261.72,312v-6.4h11.06V312Zm2.44-2.1h6v-2.2h-6Z"/><path class="cls-1" d="M306.14,310.34h-8.55v2.82c0,1.37-.33,2-1.35,2.41a13.25,13.25,0,0,1-4.32.42,9.91,9.91,0,0,0-1.08-2.54c1.41.07,3,.07,3.49.05s.57-.12.57-.4v-2.76h-8.4v-2.42h8.4v-1.37a15.85,15.85,0,0,0,2.49-1.28h-6.94V303h9.94l.53-.13,1.67,1.3a21.56,21.56,0,0,1-5,3.33v.42h8.55Zm-16.89-6.52h-2.46V299h3.37a19.21,19.21,0,0,0-1.54-2.3l2.22-1a13.19,13.19,0,0,1,2,2.89l-.84.4h3.71a15,15,0,0,0-1.44-2.82l2.32-.86a12.25,12.25,0,0,1,1.74,3.17l-1.3.51h2.87a24.27,24.27,0,0,0,1.89-3.33l2.74.81c-.6.86-1.26,1.72-1.88,2.52h3.22v4.83h-2.58V301.3H289.25Z"/><path class="cls-1" d="M306.2,270H219.67V183.5H306.2Zm-78.66-7.87h70.8v-70.8h-70.8Z"/><rect class="cls-1" x="258.99" y="207.1" width="7.87" height="39.33"/><rect class="cls-1" x="243.26" y="222.84" width="39.33" height="7.87"/><path class="cls-1" d="M148.87,270H62.33V26.16h86.54ZM70.2,262.18H141V34H70.2Z"/><polygon class="cls-1" points="99.7 75.74 91.84 75.74 91.84 49.78 119.37 49.78 119.37 57.65 99.7 57.65 99.7 75.74"/><rect class="cls-1" x="91.84" y="60.8" width="25.18" height="7.86"/><rect class="cls-1" x="91.83" y="117.44" width="27.54" height="7.86"/><rect class="cls-1" x="101.66" y="117.44" width="7.87" height="25.92"/><polygon class="cls-1" points="119.35 246.47 91.81 246.47 91.81 218.94 119.35 218.94 119.35 226.81 99.68 226.81 99.68 238.6 119.35 238.6 119.35 246.47"/><rect class="cls-1" x="91.81" y="228.78" width="23.61" height="7.86"/><path class="cls-1" d="M105.61,109.57c-7.85,0-13.77-5.58-13.77-13v-13h7.87v13c0,3.51,3.06,5.12,5.9,5.12s5.9-1.61,5.9-5.12v-13h7.87v13C119.37,104,113.46,109.57,105.61,109.57Z"/><path class="cls-1" d="M105.61,177.21c-7.85,0-13.77-5.58-13.77-13v-13h7.87v13c0,3.51,3.06,5.12,5.9,5.12s5.9-1.61,5.9-5.12v-13h7.87v13C119.37,171.63,113.46,177.21,105.61,177.21Z"/><polygon class="cls-1" points="107.55 200.86 112.26 211.08 120.13 211.08 115.42 200.85 107.55 200.86"/><rect class="cls-1" x="91.81" y="185.12" width="7.87" height="25.96"/><path class="cls-1" d="M91.81,204.79v-7.86H110.3a2,2,0,0,0,0-3.93H91.81v-7.86H110.3a9.84,9.84,0,0,1,0,19.67Z"/><path class="cls-1" d="M227.53,270H141V104.84h86.53Zm-78.66-7.87h70.79V112.7H148.87Z"/><rect class="cls-1" x="166.56" y="132.38" width="35.4" height="7.87"/><rect class="cls-1" x="164.59" y="144.17" width="39.34" height="7.87"/><rect class="cls-1" x="180.32" y="128.44" width="7.87" height="41.29"/><rect class="cls-1" x="166.55" y="207.1" width="35.41" height="7.87"/><rect class="cls-1" x="164.59" y="220.86" width="39.34" height="7.87"/><rect class="cls-1" x="180.32" y="205.14" width="7.87" height="41.3"/><polygon class="cls-1" points="201.96 216.92 194.1 216.91 192.13 220.84 200 220.84 201.96 216.92"/><polygon class="cls-1" points="174.43 216.91 166.57 216.91 168.54 220.84 176.4 220.84 174.43 216.91"/><path class="cls-1" d="M190.28,153.52l-.12-.08V163a63.18,63.18,0,0,0,13.77,6.37V161A55.32,55.32,0,0,1,190.28,153.52Z"/><path class="cls-1" d="M164.59,161v8.38A63.4,63.4,0,0,0,178.36,163v-9.58l-.11.08A55.56,55.56,0,0,1,164.59,161Z"/><path class="cls-1" d="M190.28,230.23l-.12-.09v9.58a63.65,63.65,0,0,0,13.77,6.37V237.7A56,56,0,0,1,190.28,230.23Z"/><path class="cls-1" d="M164.59,237.7v8.39a63.43,63.43,0,0,0,13.77-6.37v-9.58l-.11.09A55.53,55.53,0,0,1,164.59,237.7Z"/><path class="cls-1" d="M62.27,327.26h3.28l2.52,6.93c.32.92.6,1.9.9,2.84h.1c.32-.94.58-1.92.9-2.84l2.45-6.93H75.7v14.8H73v-6.17c0-1.4.22-3.46.38-4.86h-.1l-1.2,3.48-2.27,6.22h-1.7l-2.3-6.22L64.63,331h-.08c.14,1.4.38,3.46.38,4.86v6.17H62.27Z"/><path class="cls-1" d="M82.77,327.26h3.48L91,342.06h-3.1l-1-3.79H82.08l-1,3.79H78ZM82.71,336h3.52l-.44-1.62c-.46-1.54-.86-3.24-1.28-4.83h-.1c-.38,1.61-.82,3.29-1.26,4.83Z"/><path class="cls-1" d="M93.35,327.26h3v6.43h.06l4.9-6.43h3.26L100,333.09l5.32,9h-3.24l-3.84-6.65-1.94,2.5v4.15h-3Z"/><path class="cls-1" d="M107.65,327.26h3v14.8h-3Z"/><path class="cls-1" d="M114.85,327.26h3l4.29,7.89,1.48,3.2h.1c-.14-1.54-.38-3.5-.38-5.18v-5.91h2.8v14.8h-3l-4.27-7.91-1.5-3.18h-.1c.14,1.6.36,3.46.36,5.16v5.93h-2.8Z"/><path class="cls-1" d="M129.68,334.73c0-4.88,3.15-7.73,7.09-7.73a6.23,6.23,0,0,1,4.58,1.9l-1.56,1.87a4,4,0,0,0-2.92-1.23c-2.46,0-4.18,1.91-4.18,5.09s1.48,5.16,4.4,5.16a3,3,0,0,0,1.84-.56v-2.92h-2.62v-2.42h5.26v6.68a7,7,0,0,1-4.8,1.77C132.75,342.34,129.68,339.67,129.68,334.73Z"/><path class="cls-1" d="M150.48,327.26h4.86c3.27,0,5.79,1.16,5.79,4.65s-2.54,4.9-5.71,4.9h-2v5.25h-3Zm4.74,7.21c2,0,3-.86,3-2.56s-1.08-2.29-3.11-2.29h-1.68v4.85Z"/><path class="cls-1" d="M163.67,334.61c0-4.81,2.7-7.61,6.61-7.61s6.62,2.82,6.62,7.61-2.7,7.73-6.62,7.73S163.67,339.41,163.67,334.61Zm10.21,0c0-3.18-1.4-5.07-3.6-5.07s-3.59,1.89-3.59,5.07,1.39,5.18,3.59,5.18S173.88,337.77,173.88,334.61Z"/><path class="cls-1" d="M180.4,327.26h9.07v2.48h-6.12v3.41h5.2v2.48h-5.2v4h6.34v2.47H180.4Z"/><path class="cls-1" d="M196.22,329.74h-4.15v-2.48h11.31v2.48h-4.2v12.32h-3Z"/><path class="cls-1" d="M206.37,327.26h3v14.8h-3Z"/><path class="cls-1" d="M212.83,334.73c0-4.88,3.14-7.73,6.87-7.73a6,6,0,0,1,4.34,1.9l-1.54,1.87a3.89,3.89,0,0,0-2.74-1.23c-2.24,0-3.91,1.91-3.91,5.09s1.51,5.16,3.85,5.16a4.08,4.08,0,0,0,3.06-1.46l1.56,1.84a6,6,0,0,1-4.72,2.17C215.87,342.34,212.83,339.67,212.83,334.73Z"/><path class="cls-1" d="M232.43,327.26h3v5.83H241v-5.83h2.93v14.8H241v-6.39h-5.6v6.39h-3Z"/><path class="cls-1" d="M251,327.26h3.47l4.76,14.8h-3.1l-1-3.79H250.3l-1,3.79h-3Zm-.06,8.71h3.51l-.44-1.62c-.45-1.54-.85-3.24-1.27-4.83h-.1c-.38,1.61-.82,3.29-1.26,4.83Z"/><path class="cls-1" d="M261.57,327.26h4.89c3,0,5.36.9,5.36,3.65a3.36,3.36,0,0,1-2,3.2v.1a3.37,3.37,0,0,1,2.78,3.5c0,3-2.48,4.35-5.74,4.35h-5.27Zm4.67,6c1.88,0,2.7-.76,2.7-1.94s-.88-1.81-2.65-1.81h-1.76v3.75Zm.34,6.5c2,0,3.12-.72,3.12-2.26s-1.08-2.06-3.12-2.06h-2.05v4.32Z"/><path class="cls-1" d="M275.78,327.26h3v14.8h-3Z"/><path class="cls-1" d="M285.91,329.74h-4.16v-2.48h11.31v2.48h-4.19v12.32h-3Z"/><path class="cls-1" d="M298,327.26h3.48l4.75,14.8h-3.1l-1-3.79h-4.8l-1,3.79h-3Zm-.06,8.71h3.52l-.44-1.62c-.46-1.54-.86-3.24-1.28-4.83h-.1c-.38,1.61-.82,3.29-1.26,4.83Z"/></svg>