<svg width="1443" height="314" fill="none" xmlns="http://www.w3.org/2000/svg"><defs/><path d="M304 93.4l-3.1-7.5s-5.9-6.2-2.5-11.1c3.3-5 17.3-6.2 20.4 12 0 0 5 .1 5.8 5 .9 4.7-3.5 7.9-4.8 11.4-1.3 3.6-4.3 4.8-4.3 4.8l-5.6.9-5.9-15.5z" fill="#0C1B3C"/><path d="M338 194.2s-3.3 5.3-4.1 8.1c-.8 2.9-1.5 3.7-.9 4.3.7.6 2.2-2.3 3.3-3.7 1.1-1.4 1.3 3.8 1.3 5.7 0 1.9-1 5.3.1 5.3 1 .1 3.7-4.3 4.6-6.1 1-1.8.6-13.6.6-13.6H338z" fill="#E9928B"/><path d="M329.4 300l-2.3 1.7s-1.8 6.9-1 9.5h28s-2.7-3.9-8.2-5.6c-5.6-1.8-7.2-2.4-8-3.9-.9-1.5-8.5-1.8-8.5-1.8zM284.9 299l2 2.7s2.5 6 1.4 9.5h-23.4s.3-3.9 4.2-5.6c4-1.8 7.4-3.9 7.4-3.9l8.4-2.7z" fill="#FFAB40"/><path d="M354.2 311.2h-28v2.8h28v-2.8zM288.3 311.2h-23.4v2.8h23.4v-2.8z" fill="#fff"/><path d="M337.8 301.7h-10.7l-.8-5-.8-5.3 11.5-1.6.5 6.9.3 5zM288.3 291.6l-.7 5-.7 5.1h-10.4l.6-5 .7-5h10.5z" fill="#E9928B"/><path d="M277.8 291.6h10.5l-.7 5H277l.7-5zM337.5 296.7h-11.2l-.8-5.3 11.5-1.6.5 6.9z" fill="#DE6667"/><path d="M340.4 294.1h-16.7s-13-46.3-14.5-53c-1.4-6.6-6.3-21.2-6.3-21.2l-12.6 74.2h-14.8s-.6-35.7 0-47.5c.5-9.5 3-39.6 5.6-54.6.6-3.8 1.3-6.6 1.9-7.9 3-6.4 40.7 7.3 40.7 7.3l.7 4c1.4 8.2 4.8 27.4 8 44.5 4 22.5 8 54.2 8 54.2z" fill="#5F6386"/><path d="M303 220l-5.7-20s-5.8 11-4.2 20c1.7 8.8-5 12.1-.3 21.6 4.8 9.5-2 16.8 2.6 22.7l7.5-44.4zM324.4 195.4c-4.5 1-10 1-16.6-.8-15-4.2-23-3.6-26.7-2.6.6-3.8 1.3-6.6 1.9-7.9 3-6.4 40.6 7.4 40.6 7.4l.8 4z" fill="#4A4E73"/><path d="M266 103.2s-.9-4.9 1.3-7.4c2-2.5 7.1 1.4 7.1 1.4s3.3 3.5 1.6 6.8c-1.7 3.4-10-.8-10-.8z" fill="#E9928B"/><path d="M330.8 144c-2 12-5.4 25.2-5 31.1a102 102 0 001.9 17.2c.6 2-9.3 3.8-20 0-5.2-1.8-11.8-3-17.2-3.6-5.8-.7-10.3-1-10.3-1s3-15.9 4-24.2c1-8.4 0-18 0-18h-.1c-.5.4-12.2 9.3-18.2 3.5-.9-.8-1.6-2-2-3.4-4-11.5 3.6-39.2 3.6-39.2l9 1.2s-1.3 21.7-.5 21.8c.8.2 9.3-7.6 13.4-10.6 2.3-1.6 6.1-2.6 10.2-3 3.2-.4 6.5-.4 9.3-.1 0 0 4.2 0 9.2 1.1a31 31 0 0111.8 4.9c3.5 2.6 2.7 12 .9 22.3z" fill="#7DC4BE"/><path opacity=".7" d="M327.7 192.3c.6 2-9.3 3.8-20 0-5.2-1.8-11.8-3-17.2-3.6 2-2.5 5.4-5 12.4-7 17.3-5.2.8-14 10.7-19.7 10-5.8 10.8-23.4 10.8-23.4l6.4 5.4c-2 12-5.4 25.2-5 31.1.8 11 1.2 15.2 1.9 17.2z" fill="#379690"/><path d="M318 116.8c-4.3 8.2-16.7 15.4-16.7 15.4a44.9 44.9 0 01-1.7-16.5c3.2-.3 6.5-.3 9.3 0 0 0 4.2 0 9.1 1.1z" fill="#fff"/><path d="M323.9 121c2.1-2.4 6.6-.3 12.1 7.8 5.5 8 10.3 25.8 11.2 32 1 6.1-.4 27.3-3.4 36.4l-8.1-.6s-2-30.3-2.3-32.3c-.4-2-6.8-18.3-9.5-27.2-2.7-8.8-2.8-12.9 0-16z" fill="#7DC4BE"/><path d="M315.5 116.9c0 1.2-1.8 3.2-6 4-4.3.8-9.5-2.3-8-4.4.7-.7 1-2.3 1.2-3.9.4-2.7.4-5.6.4-5.6s9.2-8.6 9.1-4.2c0 4.4 3.2 5.2 3.2 5.2-1 5 0 7.7 0 8.9z" fill="#E9928B"/><path d="M312.2 102.8c-2.4 6.2-6.3 8.8-9.5 9.8.4-2.7.4-5.6.4-5.6s9.2-8.6 9.1-4.2z" fill="#DE6667"/><path d="M278 98.2l-16.4 21.1a1.4 1.4 0 01-1.8.3 5.6 5.6 0 01-1-7.8l13.8-17.9 5.5 4.3z" fill="#8FB9CF"/><path d="M278 98.2l-16.4 21.1c-.2.3-.5.5-.9.5-1-1.9-1-4.3.4-6.2L275 95.8l3 2.4z" fill="#7A9DB0"/><path d="M285.4 96.7c-2.4 3.1-5 5.1-5.8 4.5-.9-.7.4-3.7 2.9-6.8 2.4-3.1 5-5.1 5.8-4.5.8.6-.5 3.7-2.9 6.8z" fill="#8FB9CF"/><path d="M278.1 82l-8.7 11.3 10.2 7.9 8.7-11.3-10.2-8z" fill="#8FB9CF"/><path d="M282.9 95.7l-6-4.7a.8.8 0 01-.1-1c.2-.4.7-.4 1-.2l6 4.7c.3.2.4.7.1 1-.2.4-.7.4-1 .2zM285 92.3l-5.9-4.6a.8.8 0 01-.1-1c.3-.4.7-.5 1-.2l6 4.6c.4.3.4.8.1 1.1-.2.3-.7.4-1 .1zM280.2 98.6l-6-4.6a.8.8 0 010-1.1c.2-.4.7-.4 1-.2l6 4.7c.3.2.4.7.1 1-.3.4-.7.4-1 .2z" fill="#7A9DB0"/><path d="M275.2 88.8a23.2 23.2 0 01-2.2 2.5c-1.6 1.6-3 2.4-3.6 2L225.7 77l26-33.4L278.1 82c.5.4.2 1.6-.6 3.2a16.7 16.7 0 01-1.3 2.2l-1 1.4z" fill="#B2D3E4"/><path opacity=".1" d="M275.2 88.8L239.6 62l4.4-5.7 32.2 31-1 1.4zM274.2 90l-1.2 1.3-41.8-21.1 6.5-4.7 36.5 24.6zM277 86.3l-31.3-33.8 2-1.9 29.8 34.6-.5 1z" fill="#fff"/><path d="M243.1 63.8c-2 2.6-4 5-6 7-5.1 5-9.6 7.7-11.4 6.3-2.4-1.9 1.4-10.9 8.6-20.1 7.2-9.3 15-15.2 17.4-13.3 1.7 1.3.2 6.4-3.4 12.5-1.4 2.4-3.2 5-5.2 7.6zM242.8 84.8a.7.7 0 01-.1-1c.2-.3.7-.3 1-.1.6.5 3.2-.4 7.6-4.8l.4-.3a56 56 0 008-10.5c3.2-5.4 3.4-8.1 2.8-8.6a.7.7 0 01-.1-1c.2-.3.7-.4 1-.1 2.3 1.8-1 7.9-2.4 10.4a56.9 56.9 0 01-8.7 11.1l-.4.5c-2.3 2.2-6.9 6.1-9 4.4z" fill="#8FB9CF"/><path d="M243.1 63.8c-2 2.6-4 5-6 7a9.5 9.5 0 0111.2-14.6c-1.4 2.4-3.2 5-5.2 7.6z" fill="#7A9DB0"/><path opacity=".1" d="M242.3 61.5c-.7 1-1.8 1.3-2.4.8-.6-.5-.5-1.7.2-2.6.7-1 1.8-1.3 2.4-.8.6.5.6 1.7-.2 2.6z" fill="#fff"/><path d="M276.4 107.6s-.3-6.6-2.2-8.9c-2-2.2-3.6-1.8-3.3 0 .4 1.9 1.8 5.1.4 8.2l5.1.7z" fill="#E9928B"/><path d="M274.1 288.2v6.6h16.6l1.5-6.6h-18zM322.9 294.8h18.7l-.6-6.6h-20l1.9 6.6z" fill="#4A4E73"/><path d="M335 305.2l-.4-.2s.6-1.5 3.8-2.7l.1.4c-2.9 1.1-3.4 2.5-3.4 2.5zM338.7 307l-.5-.1c0-.1.7-2.5 3.3-3.2l.2.5c-2.4.6-3 2.7-3 2.8zM343 307l-.4-.1s.1-1.4 1-2.3l.3.3c-.7.8-.8 2-.8 2zM280.1 303.5c-2.4-.9-4.9-.8-4.9-.8v-.5c.1 0 2.6 0 5 .9l-.1.4zM277.3 305.3c-2.6-1.1-4.5-1.3-4.5-1.3v-.4s2 0 4.7 1.3l-.2.4zM273.2 306.2c-.8-.7-2.8-1-2.8-1v-.5c.2 0 2.2.4 3 1.1l-.2.4z" fill="#fff"/><path opacity=".7" d="M286.3 133.1c-1.7 4.4-2.2 12.4-2.2 12.4-.5.4-12.2 9.3-18.2 3.5-1-.8-1.6-2-2-3.4 3.3.5 6.1 4 10-.1 6.2-6.4 12.4-12.4 12.4-12.4z" fill="#379690"/><path d="M300.9 85.9s-6.6 18-1.6 21.6c5 3.6 13-4.7 13-4.7s3.3.2 5.1-2.6c1.8-2.7-1.3-4-2.7-3-1.4.8-3.1-.5-2-4 1.1-3.3.5-3.5-1.7-3-2 .5-9.9-3.4-10.1-4.3z" fill="#E9928B"/><path d="M337.1 288.3c-7-52-18.5-91.6-18.6-92l1.4-.4c.1.4 11.7 40.1 18.7 92.2l-1.5.2z" fill="#4A4E73"/><path d="M560.5 101.4s-2-6.8-2-9 2-8.4 3.1-8.5c1.1-.2 3.3 12 4.3 13.6 1 1.6-.8 4-.8 4h-4.6zM458.2 253.4l-7.3-8 2.8-2.9 5.6-5.8 7 7.7-5.4 6-2.7 3z" fill="#91415C"/><path d="M460.9 250.5l-7.2-8 5.6-5.8 7 7.7-5.4 6z" fill="#75354A"/><path d="M450.9 245.4l7.3 8s-.4 7 2.7 11.2c3 4.3 4 7.3 2.5 10.4l-21.7-23.9 9.2-5.7z" fill="#FDAB3F"/><path d="M458 256.3a24 24 0 00-5.6-2.3l.1-.4c.2 0 4.1 1 5.8 2.4l-.2.3zM458.4 258.6c-2-.8-5.1-.5-5.1-.5l-.1-.4c.1 0 3.3-.4 5.4.5l-.2.4zM455 261.8l-.1-.4s2.1-.8 4.1-1v.5c-1.9.1-4 1-4 1z" fill="#fff"/><path d="M441.7 251.1l-1.7 1.6 21.7 23.9 1.7-1.6-21.7-23.9z" fill="#DCECEB"/><path d="M513.5 182l-.4 2c-.5 2.7-1.6 7.9-3 13.4-1.6 7.1-3.9 14.9-6.2 18.8a143.4 143.4 0 01-23.1 22.3c-8.1 6.7-15.2 12.2-15.2 12.2L451 235.6s30.5-27.5 31.3-28.6c.8-1.1 4.4-17 5.8-29.7.6-5.5 2.3-11.3 4-16.1 2.2-6.4 4.5-11 4.5-11l14.3 5.1.1 1.4 1.4 13.4 1.2 11.9z" fill="#489DA2"/><path d="M513.1 184c-.5 2.7-1.6 7.9-3 13.4-1.6 7.1-3.9 14.9-6.2 18.8a143.4 143.4 0 01-23.1 22.3c2.2-12.4 17-11.3 14.7-20.4-2.2-9.5 7.2-13.2 3.5-25.5-3.8-12.4 2.3-20.6 2.3-20.6l11.8 12z" fill="#408C91"/><path d="M543.1 85.4s-2.5 2-4.2 5.9a20 20 0 00-1.6 5.6c-1 7.8-14.6-.6-14.6-.6l6.6-13.8 5.4-2.9 4.2 2.9 4.2 2.9z" fill="#91415C"/><path d="M522.7 94.3s1-3.3 2.6-3.4c1.5-.2 12.6 1.5 13.1 4 .5 2.6 0 4.3 0 4.3l-15.7-4.9zM564.8 106.2l1-5s-5-1.4-6.9-1.1c-2 .2-3.7 6.1-3.7 6.1h9.6zM536.3 132.7s7 2 22.1-11.6c15-13.5-12.5-8.1-12.5-8.1l-9.6 19.7z" fill="#F5911F"/><path d="M562.2 257.2h-45.8v1.3h45.8v-1.3z" fill="#040707"/><path d="M534.2 307.3l-14-64-13.9 64-1.3-.2 14.6-67.1a.7.7 0 011.3 0l14.6 67-1.3.3z" fill="#040707"/><path d="M534.5 269.4h-10.8l-.2-4-.5-8h10.4l.8 8 .3 4z" fill="#91415C"/><path d="M534.2 265.4h-10.7l-.5-8h10.4l.8 8z" fill="#75354A"/><path d="M523.7 269.4h10.8s5 5 10.2 5.5c5.2.6 8 2 9.3 5.1h-32.2l1.9-10.6z" fill="#FDAB3F"/><path d="M531 274l-.2-.3c.2-.1 3.6-2.3 5.7-2.7l.1.4c-2 .4-5.5 2.6-5.5 2.6zM534.7 276.2l-.3-.3s2-2.6 4-3.6l.2.4c-2 1-3.9 3.5-3.9 3.5zM538.7 277.3l-.4-.1c0-.1.8-2.2 2-3.7l.4.3c-1.2 1.5-2 3.5-2 3.5z" fill="#fff"/><path d="M554 280h-32.2v2.4H554V280z" fill="#DCECEB"/><path d="M580.1 307.3l-14-64-13.9 64-1.3-.2 14.6-67.1a.7.7 0 011.3 0l14.6 67-1.3.3z" fill="#040707"/><path d="M557 281.7h-46v1.3h46v-1.3z" fill="#040707"/><path d="M541 263.7h-22.2l.5-43.6c0-4.7-4.5-12.4-9.1-22.7a145.5 145.5 0 01-10-31.2c-1.2-6.9-1.2-10.9-1.2-10.9l12 1.4 17.3 2s2 6.7 4.3 15.4c3.8 13.9 8.7 32.8 8.9 37.2.3 7.1-.4 52.4-.4 52.4z" fill="#489DA2"/><path d="M532.6 174c-4.8-2-9.8-3.9-14.7-3.6-2 0-3.8 0-5.6-.3-4.5-.6-8.6-2.2-12.1-3.9a53 53 0 01-8.2-5c2.2-6.4 4.5-11 4.5-11l14.3 5.1.1 1.4 17.4 2s2 6.7 4.3 15.4z" fill="#408C91"/><path d="M601.7 105s-18.5 18-23.9 19.3c-5.3 1.2-25-5.2-28.4-5-1.5.1-4.6 10.6-7.6 22-3.6 13.8-7 29-7 29s-9.2-3.6-24.2-4.7a34 34 0 01-6-.9c-10.5-2.6-14.4-9.4-14.4-9.4 14.8-21.1 15-39.7 18.1-51.2 3-11.5 15.4-12.3 24.7-9.4 4 1.2 13 2.8 17 4.3 4.2 1.4 25.4 9.7 26.8 9.7 1.4 0 19-10 19-10 5.5 0 5.9 6.2 5.9 6.2z" fill="#FFAB40"/><path d="M596 100s3.6-3 6.6-4.3c3-1.3 7.2-3.8 7.2-2.5 0 1.4-3.7 3.3-3.7 3.3l11.2-1s-5 5-8.9 6c-4 .9-9 2.7-9 2.7L596 100z" fill="#91415C"/><path d="M628.7 54.8l-68 5.7 3.4 39.4 67.9-5.7-3.3-39.4z" fill="#3FB8A9"/><path d="M625 59.3l-59.8 5 2.6 31.1 59.7-5-2.6-31.1z" fill="#fff"/><path d="M574.2 95.4l11.6-24.7 15.5 22.4-27.1 2.3z" fill="#3FB8A9"/><path d="M600 93.2l9-19 12 17.3-21 1.7zM598 73.3a4 4 0 10-.5-8 4 4 0 00.4 8z" fill="#3FB8A9"/><path d="M535.5 263.8h-1.3c0-.4 0-39.7-.2-49.2-.2-9.3-16.5-47.3-16.7-47.7l1.2-.5c.7 1.5 16.6 38.6 16.8 48.2.3 9.5.2 48.8.2 49.2z" fill="#408C91"/><path d="M541.8 141.3c-3.6 13.8-7 29-7 29s-9.2-3.6-24.2-4.7c-2.2-.1-4.2-.5-6-1l1-1c12.5-11.1 17.1-3.7 23.2-11.8 4.5-6 8.9-6.3 13-10.5z" fill="#F5911F"/><path d="M548.6 66.5L551 64s.2-4.2-4-9.7c-4.3-5.5-6.8-3.4-4.9 0 2 3.4-3.8 1.6-9 1-5-.7-9.3 0-6.8 3.3 2.5 3.4.3 3.5-6 6.1-6.3 2.6-5.3 6.5 0 6.9 5.4.4 1.8 3.5-2.3 8-4.1 4.3-1 6.8 3.6 4.3 4.5-2.5 5.4.3 4 4.1-1.6 3.9 3.8.6 6.2-2.2 2.5-2.7 1.8 2 5.6-4s11.3-15.4 11.3-15.4z" fill="#0C1B3C"/><path d="M543.1 85.4s-2.5 2-4.2 5.9c-3-3.2-1.3-8.7-1.3-8.7l1.3-.1 4.2 2.9z" fill="#75354A"/><path d="M550.9 64.1s-.7 7 .6 10.5c1.3 3.6 2.6 3.7 1 5.1-1.6 1.4-2.6 1.1-3 2.7-.3 1.6.4 7-3.6 6.8-4-.1-8.2-5.8-8.6-7.2 0 0-4.2-1.4-4.2-4.9-.1-3.5 3.3-4.7 4.7-3 1.4 1.6 2.9-.5 3-3.1 0-2.6 1.6-6.3 4.5-6.1 2.8.2 4-2.6 5.6-.8z" fill="#91415C"/><path d="M1212.5 310s0-30.8-33.6-15.9c0 0-7.4-26.4-26.8-25.2-19.4 1.3-21.3 26.3-21.3 26.3s-26.5-13.5-40.8 14l122.5.7z" fill="#ADCCC7"/><path d="M1155.8 308.9l-.9-.2c2.3-16-6.4-27.5-6.4-27.6l.6-.5c.1.1 9 11.9 6.7 28.3z" fill="#6EAB9C"/><path d="M1156 299l-.6-.5s8-11 9.3-17.7l.8.1c-1.4 7-9.1 17.7-9.4 18.1zM1155.7 304.7c-6.2-.4-11.6-7.7-11.8-8l.6-.5c.1.1 5.5 7.3 11.2 7.7v.8zM1175.4 308.7l1.1-.8c.1 0 10.8-7.6 22.2-8.1v.8c-8.9.4-17.4 5.3-20.5 7.2l11.1-.4v.9l-13.9.4z" fill="#6EAB9C"/><path d="M1184.2 304.4l-.8-.3a41 41 0 015.6-10.1l.7.5s-3.8 5-5.5 10zM1130.6 308.6s-8.3-7-17.6-10.3l.3-.7c9.4 3.2 17.8 10.3 17.9 10.4l-.6.6z" fill="#6EAB9C"/><path d="M1109.1 306.2l-.4-.8c.3-.1 6.1-3 16.8-1.5l-.1.8a29.7 29.7 0 00-16.3 1.5z" fill="#6EAB9C"/><path d="M231.5 310s0-30.8-33.6-15.9c0 0-7.4-26.4-26.8-25.2-19.4 1.3-21.3 26.3-21.3 26.3s-26.6-13.5-40.8 14l122.5.7z" fill="#ADCCC7"/><path d="M174.8 308.9l-.9-.2c2.3-16-6.3-27.5-6.4-27.6l.6-.5c.1.1 9 11.9 6.7 28.3z" fill="#6EAB9C"/><path d="M175 299l-.6-.5s8-11 9.3-17.7l.8.1a63 63 0 01-9.4 18.1zM174.7 304.7c-6.2-.4-11.6-7.7-11.8-8l.6-.5c.1.1 5.5 7.3 11.2 7.7v.8zM194.4 308.7l1.1-.8c.1 0 10.8-7.6 22.2-8.1v.8c-8.9.4-17.4 5.3-20.5 7.2l11.1-.4v.9l-13.9.4z" fill="#6EAB9C"/><path d="M203.2 304.4l-.8-.3c1.7-5 5.4-9.9 5.6-10.1l.7.5s-3.8 5-5.5 10zM149.6 308.6s-8.3-7-17.6-10.3l.3-.7c9.4 3.2 17.8 10.3 17.8 10.4l-.5.6z" fill="#6EAB9C"/><path d="M128.1 306.2l-.4-.8c.3-.1 6.1-3 16.8-1.5l-.1.8a29.7 29.7 0 00-16.3 1.5z" fill="#6EAB9C"/><path d="M1190 42h55.3v19h-9.9l5.2 12.2-18.4-12.2H1190V42z" fill="#EB908B"/><path d="M1239.5 47.6h-43v2h43v-2zM1239.5 53.4h-43v2.1h43v-2.1z" fill="#fff"/><path d="M1443 308H0v6h1443v-6z" fill="#AECBC7"/><path d="M1371.1 132.2c-.4.6-.9 1-1.4 1.3-4.5 2.5-12.6-3-16.3-2.7-4.2.2-6.1 5.6-16 1.7-9.7-3.8-7.4-19-6.8-24.7.6-5.8-3-8.6-9-8.4-6.2.2-12.7-3.2-9.9-12.9 2.8-9.6-5-14.7-9.7-13-4.7 1.7-2.2-6.5-2.2-6.5s4-5.7 12-4.9a10.1 10.1 0 016.5 3v.1c2.3 2.5 3.2 6 4.6 8.6 2.4 4.4 6.3 4 12.4 2.2 6.2-1.9 18.5-1 21.1 9.2 2.7 10.2-4.4 22.2 8.3 25.1 12.8 3 10.4 16.8 6.4 22z" fill="#0C1B3C"/><path d="M1300.3 66.2s3.7 2.4 3.3 7.4c0 0 0 1.4-1.7.7-1.6-.8-3-6.1-2.8-7.3.2-1.1.8-1 1.2-.8z" fill="#3FB8A9"/><path d="M1298.7 88.2c-5.6 5-8.4 4.6-10 2.2l-4.3-5.6-7-8.8s-5.8-.4-6-5c0-.8.2-1.7.5-2.6 1.5-3.6 6.1-6.7 12.5-7.2 8-.7 15.3 3.3 17.4 8.8 2 5.5 2.6 13.3-3 18.2z" fill="#0C1B3C"/><path opacity=".5" d="M1284.4 84.8l-7-8.8s-5.8-.4-6-5c0-.8.2-1.7.5-2.6 1.2-1.8 3.4-3.4 7.5-2.9 9 1.1 4.8 16 7 17.5.8.6-.3 1.2-2 1.8z" fill="#1B5175"/><path d="M1253 176.2s-3.2.9-4.7 2c-1.6 1.2-5.3 3-5.4 3.6 0 .6 3.1-.3 4.4-.8 1.3-.5 1 .7-.5 2.2-1.6 1.5-2.2 2.2-4 3.6-1.9 1.4-2 2-1.4 2.2.7.3 1.4-.2 1.4-.2s-1.7 1.3-1 2c.6.6 2.6-.8 2.6-.8s-.5 1 .8 1c1.4 0 1.9-.7 3.5-1.2 1.7-.5 6.6-5.7 7.7-7.5 1.2-1.8 1.7-3.3 1.7-3.3l-5.1-2.8z" fill="#FFAC95"/><path d="M1286.8 133.5s3 15-4.3 23.5c-7.4 8.4-24.2 23.8-24.2 23.8l-6.1-4.9s15-20 17.1-27.6c.5-1.7.9-4.8.9-4.8l16.6-10z" fill="#F5911F"/><path d="M1265.5 174s-.5-1.8.2-3.3c.7-1.5 4 3 4 3l.9 3.8-5.1-3.5z" fill="#FFAC95"/><path d="M1347 277.2c2.8 3 8.8 14.4 8.8 14.4l-4.5 3.3s-5-7.7-6.1-7.2c-1 .5 0 11.6-1.4 12.7l-10.8 7.8s-.4-4 1.4-7.6c1.6-3.2 3.3-9.8-1-19.8-.5-1.3-1.1-2.7-1.9-4.1l9.8-9a60.3 60.3 0 005.7 9.5z" fill="#1B5175"/><path d="M1331.5 276.7l9.8-9s1.2 2.6 2.8 5.4l-10.6 7.7c-.6-1.3-1.2-2.7-2-4z" fill="#E9928B"/><path d="M1349.1 265.5l-21.5 14.7s-11.3-13.9-21.3-26.6a284.4 284.4 0 01-14.6-19.6c-3.6-6.2-8.8-30.6-10.6-39.7l-.7-3.5 2.6-7.4 5.1-14.4.4-1.1s3.7-2 7.8-3l3.4-.5c3.3-.3 6.4.5 7.4 4l.1.6.6 3.8c1.9 13 4.5 41.5 5.3 44.7 1 3.6 36 48 36 48z" fill="#5F6386"/><path d="M1306.3 253.6a284.7 284.7 0 01-14.6-19.6c-3.6-6.2-8.8-30.6-10.6-39.7l1-3.7c1.2-1.7 25.7-17.8 25.7-17.8s1 14.4-3.8 23.6c-4.9 9.2-9 16-5.2 25.9 4 9.9-4.4 15.6 2.3 21.1 3.8 3.3 5 7.3 5.2 10.2z" fill="#4A4E73"/><path d="M1264.5 291.3c.5 4.1-1.4 16.9-1.4 16.9h-5.4s.3-9.2-.8-9.4c-1.1-.3-6.8 9.4-8.6 9.4H1235s2-3.4 5.6-5.3c3.2-1.7 8.4-6 10.9-16.6l.8-4.4 13.2-1.7-1 6c-.1 1.8-.2 3.7 0 5.1z" fill="#1B5175"/><path d="M1252.3 281.9l13.2-1.7-1 6h-13l.8-4.3z" fill="#E9928B"/><path d="M1277 161.9s-19 44.4-24.5 62.9c-5.5 18.4-14 58.1-14 58.1h29s11.3-54 16.3-62.6c5-8.7 23.7-40.3 20.8-51.6-3-11.3-27.6-6.8-27.6-6.8z" fill="#5F6386"/><path d="M1307.8 172.8l-8.8 22.8-28.4-18 17.6-8.6 8.1-4 2.4-1.1 1 .5 7.4 4 .1.6.6 3.8z" fill="#4A4E73"/><path d="M1293 101.9s-6.8 2.8-12.6 10.7a113.5 113.5 0 00-13.2 25.4c-.5 2.8 4.5 25 4.5 30.7 0 5.7 27 3.6 34.6 0 0 0-3-21-3-24 0-2.8.2-22.3-1.3-31.3-1.6-9-9-11.5-9-11.5z" fill="#FFAB40"/><path d="M1291.4 122.5s-1.1 7.2 0 12.6c1 5.4-7.4 2.1-10.3 13.2-3 11 22.1 5.7 22.1 5.7s7-10.7 7-12.5c0-1.8-18.8-19-18.8-19z" fill="#F5911F"/><path d="M1293 101.9s-13.2 13.6-12 10c.6-2-.5-6.7-1.7-10.6l-1.8-5.6s2.5-2.6 5.2-4.8c2.8-2.4 5.8-4.3 6-2.2.3 4 4.3 13.2 4.3 13.2z" fill="#FFAC95"/><path d="M1258.8 129.2l-15 32.1 55.4 25.7 15-32-55.4-25.8z" fill="#3FB8A9"/><path d="M1260.6 134.1l-11.8 25.4 48.7 22.6 11.7-25.4-48.6-22.6z" fill="#fff"/><path d="M1253.8 162.3l20-14 2 24.3-22-10.3z" fill="#3FB8A9"/><path d="M1274.9 172.2l15.4-10.9 1.7 18.8-17.1-8zM1286.9 154.1a3.6 3.6 0 10-6.5-3.3 3.6 3.6 0 006.5 3.3z" fill="#3FB8A9"/><path d="M1275.8 167s-2.6.3-4.4.8c-1.8.5-5.4.2-5.8 1-.4.9 4 1.6 5 1.7 1.2 0-1.6 1.6-3.1 2-1.6.5-2.9 1.1-1.3 2.6 1.7 1.4 4.2 3.6 5.2 3.8 1 .1 6.1-3.7 9-6.6 2.8-2.8-4.6-5.3-4.6-5.3z" fill="#FFAC95"/><path d="M1293.3 106.7c-5 3.8-3 13.6-.6 19.9 2.5 6.3 9.6 17.9 9.1 19-.5 1-26.8 21-26.8 21l5.4 6.8s25-12.6 31.1-17c6.2-4.5 6.8-9.4 5-15.7-2-6.3-12.6-42.1-23.2-34z" fill="#FFAB40"/><path d="M1257.2 283l-1.2-.2c.4-2.2 9.7-55.7 11.4-60.7 1.6-5 14.5-37.6 15-39l1.2.5c-.1.4-13.4 33.9-15 38.9-1.7 5-11.3 60-11.4 60.5zM1339.6 272l-29.9-37.3c-10.3-12.8-14.1-30.7-14.2-30.9l1.3-.3c0 .2 3.8 17.8 13.9 30.4l29.9 37.3-1 .8z" fill="#4A4E73"/><path opacity=".5" d="M1371.1 132.2c-.4.6-.9 1-1.4 1.3 4.4-5.2 1.1-12.1-10.1-12-11.3.1-14.3-9.6-7.6-25.7 6.6-16.2-10.2-17.4-17.3-13.8-7 3.6-14.3.3-14-7.5.2-5.3-1.4-8-2.4-9.3 2.3 2.5 3.1 6 4.6 8.6 2.4 4.4 6.3 4 12.4 2.2 6.1-1.9 18.5-1 21.1 9.2 2.7 10.2-4.4 22.2 8.3 25.1 12.8 3 10.4 16.8 6.4 22z" fill="#1B5175"/><path d="M1286.4 90.3s-2 7.2-7 11l-2-5.6s2.6-2.6 5.3-4.8l3.7-.6z" fill="#E9928B"/><path d="M1277.9 71.4s-3.6 8.9-7 10.6c-3.3 1.7-1 2 0 4 1.2 1.9-3.1 7.8.6 10.5s12.2-1.7 15-6.2c0 0 4.6.2 5.7-3.4 1.1-3.5-2.5-5.8-4.6-4.2-2.1 1.6-2.4-1.7-3.3-6.7-.9-4.9-6-5.6-6.4-4.6z" fill="#FFAC95"/><path d="M1196.7 149.6L1050 152l-2.9-2.5v-48.3h149.7l3 2.5-3 45.8zM1196.7 96.8L1050 99.3l-2.9-2.5V86h149.7l3 2.5-3 8.3z" fill="#B6D5D0"/><path d="M1199.6 103.8H1050v48.3h149.7v-48.3z" fill="#DCECEB"/><path d="M1199.6 88.5H1050v10.9h149.7V88.5z" fill="#EDF6F5"/><path d="M1078.6 96a2 2 0 100-4.1 2 2 0 000 4z" fill="#67A4C3"/><path d="M1071 94a2 2 0 11-4 0 2 2 0 014 0z" fill="#EB908B"/><path d="M1059.5 96a2 2 0 100-4.1 2 2 0 000 4z" fill="#FFAA3F"/><path d="M1169.5 106.2a19.3 19.3 0 100 38.5 19.3 19.3 0 000-38.5zm0 31.7a12.4 12.4 0 110-24.8 12.4 12.4 0 010 24.8z" fill="#B2E5E0"/><path d="M1187.7 113.5a19.3 19.3 0 10-27.2 27.3 19.3 19.3 0 0027.2-27.3zm-7.4 24.4a12.3 12.3 0 01-18.4-8.5l-.2-2.3a12.4 12.4 0 1118.6 10.8z" fill="#3FB8A9"/><path d="M1193.4 127.1c0 7.2-3.9 13.4-9.6 16.7l-3.5-6a12.4 12.4 0 002.6-19.5l4.8-4.8c3.5 3.5 5.7 8.3 5.7 13.6z" fill="#fff"/><path d="M1183.8 143.8a19.3 19.3 0 01-28.6-13l6.7-1.4a12.4 12.4 0 0018.4 8.5l3.5 6z" fill="#FFC945"/><path d="M1125 113.3h-67.1v3.1h67v-3.1zM1125 126.2h-67.1v3.1h67v-3zM1125 139.1h-67.1v3.2h67V139z" fill="#fff"/><path d="M691 153.7h-85s5.8-13 19.3-7.6c0 0 5-13.5 16.7-12 11.7 1.6 14 9.8 14 9.8s12.5-5 24.7 5c0 0 9.9-1 10.3 4.8zM1144 19.7h-85s5.8-13 19.3-7.6c0 0 5-13.5 16.7-12 11.7 1.6 14 9.8 14 9.8s12.5-5 24.7 5c0 0 9.9-1 10.3 4.8zM169 99.7H84s5.8-13 19.3-7.6c0 0 5-13.5 16.7-12 11.7 1.6 14 9.8 14 9.8s12.5-5 24.7 5c0 0 9.9-1 10.3 4.8zM449 192.7h-85s5.8-13 19.3-7.6c0 0 5-13.5 16.7-12 11.7 1.6 14 9.8 14 9.8s12.5-5 24.7 5c0 0 9.9-1 10.3 4.8z" fill="#EDF6F5"/><path d="M753.4 242.8v-20.5c0-6.4-5.2-11.6-11.6-11.6H727v97.6H776.5V266c0-6.4-5.1-11.6-11.5-11.6s-11.6-5.2-11.6-11.6z" fill="#B6D5D0"/><path d="M879.3 284l-9.4 9-3.1-4.6-5-7.5 12-5.6 3.2 5.1 2.3 3.5z" fill="#E9928B"/><path d="M877 280.4a39 39 0 00-10.2 8l-5-7.5 12-5.6 3.2 5.1z" fill="#DE6667"/><path d="M906.8 10H708.4v103.5h198.4V10z" fill="#EDF6F5"/><path d="M751.3 19.3h-32v29.5h32V19.3z" fill="#DCECEB"/><path d="M887.1 46H886v-1.8h-1.8V43h3v3zM879.2 44.2h-4.9V43h5v1.2zm-9.8 0h-4.9V43h5v1.2zm-9.8 0h-4.9V43h5v1.2zm-9.8 0H845V43h5v1.2zm-9.8 0h-4.9V43h5v1.2zm-9.8 0h-4.9V43h5v1.2zm-9.8 0h-4.9V43h5v1.2zm-9.8 0h-4.9V43h5v1.2zm-9.8 0H796V43h5v1.2zM789.2 46H788v-3h3v1.2h-1.8V46zM789.2 95H788v-5h1.2v5zm0-9.8H788v-5h1.2v5zm0-9.8H788v-5h1.2v5zm0-9.8H788v-5h1.2v5zm0-9.8H788v-5h1.2v5zM791 102.8h-3v-3h1.2v1.8h1.8v1.2zM879.2 102.8h-4.9v-1.2h5v1.2zm-9.8 0h-4.9v-1.2h5v1.2zm-9.8 0h-4.9v-1.2h5v1.2zm-9.8 0H845v-1.2h5v1.2zm-9.8 0h-4.9v-1.2h5v1.2zm-9.8 0h-4.9v-1.2h5v1.2zm-9.8 0h-4.9v-1.2h5v1.2zm-9.8 0h-4.9v-1.2h5v1.2zm-9.8 0H796v-1.2h5v1.2zM887.1 102.8h-3v-1.2h1.8v-1.8h1.2v3zM887.1 95H886v-5h1.2v5zm0-9.8H886v-5h1.2v5zm0-9.8H886v-5h1.2v5zm0-9.8H886v-5h1.2v5zm0-9.8H886v-5h1.2v5z" fill="#B6D5D0"/><path d="M794.6 119H690.1a3 3 0 01-3-2.9V64.8a3 3 0 013-3h104.5a3 3 0 013 3V116a3 3 0 01-3 3z" fill="#B2E5E0"/><path d="M798.2 122.7H693.7a3 3 0 01-3-3V68.4a3 3 0 013-3h104.5a3 3 0 013 3v51.3a3 3 0 01-3 3z" fill="#3FB8A9"/><path opacity=".7" d="M698.6 118.5h94s-3.2-22-8.1-28.6c-5-6.7-9.1 2.5-14.6 13.5-5.4 10.9-16.7 15.8-25 4.9-8.2-11-12-14.4-21.2-8.5-9.1 5.8-16.3.9-19.4-6.7-3-7.6-5.7-7.5-5.7-7.5v32.9z" fill="#fff"/><path opacity=".3" d="M698.6 118.5s4.4.2 7.8-4.6c3.5-4.8 4.4-12.1 8.2-14.4 3.7-2.3 7.1 0 12.3 9.5 5.2 9.5 13.4 5 16.8-4.4 3.5-9.5 5-14 10.8-14.6 5.7-.5 9.3 6.6 11.3 13.4 2 6.8 7.2 9 12.4 6.2s14.3 8.9 14.3 8.9h-93.9z" fill="#fff"/><path d="M700.4 73.7a1.8 1.8 0 110-3.6 1.8 1.8 0 010 3.6zM744.4 70.8h-37.7v2.1h37.7v-2.1zM700.4 80.2a1.8 1.8 0 110-3.6 1.8 1.8 0 010 3.6zM735.7 77.3h-29v2.1h29v-2.1zM755 22.3h-32v29.5h32V22.3z" fill="#fff"/><path d="M751.3 35.4l-11.6 5.2-11.7-5.2v7.8h23.3v-7.8z" fill="#FFAB40"/><path d="M751.3 31.8H728V34l11.7 5.2 11.6-5.2v-2z" fill="#FFAB40"/><path d="M851.4 41.2h-64.2v-3h64.2v3zm-63.8-.4H851v-2.2h-63.4v2.2zM851.4 28.8h-64.2v-3h64.2v3zm-63.8-.4H851v-2.2h-63.4v2.2zM851.4 16.5h-64.2v-3h64.2v3zm-63.8-.4H851v-2.2h-63.4V16z" fill="#fff"/><path d="M910.6 283.1l-10.3 9.6-2.5-11.5-1-4.4 12.3-3.1.7 4.3.8 5.1z" fill="#E9928B"/><path d="M909.8 278s-2.7-.3-5.1.3c-1.8.4-7 3-7 3l-1-4.5 12.4-3.1.7 4.3z" fill="#DE6667"/><path d="M908 282c-5.2 0-7.1 4.3-8.9 8.2-1.7 4-3.8 13.2-6.9 14.2-3 .9-4.6 2.5-4.6 4.4h11s6.8-7.6 10.3-10.5c3.5-3 4.4-4.9 4.4-4.9s-1.4-7.2-2.7-10.3c0 0-1-1-2.6-1z" fill="#0C1B3C"/><path d="M908.8 289.7c-3.8.8-5.2 4.8-7.5 11.6-2.3 6.7-7 7.5-7 7.5h13s.7-2.5 2.2-5.6c1.2-2.4 3.1-5 3.6-7.5 1.2-5.7-3.4-6.2-4.3-6z" fill="#408C91"/><path d="M909.7 274.7c-8 .9-13.8 3.6-13.8 3.6s-2.7.9-6.7-7.5-18-34.8-18-34.8l16.1.5 12.2.4s6.6 16.7 9.8 23.8c3.2 7 .4 14 .4 14z" fill="#376F92"/><path d="M896 263.3c-5 5.9-3.3 12.7 0 15 0 0-2.8.9-6.8-7.5s-18-34.8-18-34.8l16.1.5 10.5 4.7s-10.3 1.4-12.7 6.8c-2.3 5.5 15.7 9.5 10.8 15.3z" fill="#1B5175"/><g opacity=".4" fill="#F4D7C9"><path opacity=".4" d="M852 245.4l-1.7-1a3.5 3.5 0 01-1.8-3.1 13 13 0 000-1c0-1.2.6-2.4 1.8-3l1.8-1a3.6 3.6 0 001.7-4v-.1a3.6 3.6 0 00-3.5-2.7h-2c-1.4 0-2.6-.6-3.2-1.8l-.4-.7a3.6 3.6 0 010-3.6l1-1.8c.8-1.4.6-3.2-.5-4.3a3.5 3.5 0 00-4.4-.6l-1.8 1c-1.1.7-2.5.7-3.7 0l-.6-.4a3.6 3.6 0 01-1.9-3.2v-2c0-1.6-1-3-2.6-3.5-1.6-.4-3.3.3-4 1.7l-1 1.8a3.5 3.5 0 01-3.2 1.8 13 13 0 00-.9 0c-1.3 0-2.5-.7-3.1-1.8l-1-1.8a3.6 3.6 0 00-4-1.7h-.1a3.6 3.6 0 00-2.6 3.5v2c0 1.4-.7 2.6-1.8 3.2l-.7.4c-1.2.7-2.6.7-3.7 0l-1.8-1a3.6 3.6 0 00-4.3.6 3.6 3.6 0 00-.6 4.3l1 1.8c.8 1 .7 2.5 0 3.6 0 .3-.2.5-.3.7a3.6 3.6 0 01-3.2 1.9h-2c-1.7-.1-3.1 1-3.6 2.6-.4 1.6.3 3.2 1.7 4l1.8 1c1.2.7 1.9 1.9 1.9 3.2v.9c0 1.3-.7 2.5-1.9 3.1l-1.8 1a3.6 3.6 0 001.8 6.7h2.1c1.3 0 2.5.7 3.2 1.8l.4.7c.6 1.1.7 2.6 0 3.7l-1 1.8c-1 1.4-.7 3.1.5 4.3 1.2 1.2 3 1.4 4.3.6l1.8-1c1.1-.8 2.5-.7 3.7 0l.7.3c1.1.7 1.8 1.9 1.8 3.2v2c0 1.7 1 3.1 2.6 3.6 1.6.4 3.3-.3 4-1.7l1-1.8a3.5 3.5 0 013.2-1.9h.9c1.3 0 2.5.7 3.1 1.9l1 1.8a3.6 3.6 0 004 1.7h.1a3.6 3.6 0 002.7-3.5v-2.1c-.1-1.3.6-2.5 1.8-3.2l.6-.4c1.2-.6 2.6-.7 3.7 0l1.8 1c1.4 1 3.2.7 4.3-.5 1.2-1.2 1.4-3 .6-4.3l-1-1.8a3.6 3.6 0 010-3.7l.4-.7a3.6 3.6 0 013.1-1.8h2.1c1.6 0 3-1 3.5-2.6.4-1.6-.3-3.3-1.7-4zm-30.4 15.4a20 20 0 110-40 20 20 0 010 40z"/><path opacity=".4" d="M830.3 243.3a9 9 0 10-17.4-4.7 9 9 0 0017.4 4.7z"/></g><path opacity=".4" d="M1022.8 247.5l-1-.6a2 2 0 01-1.1-1.9v-.2-.3a2 2 0 011-1.8l1.1-.6a2 2 0 001-2.4 2 2 0 00-2-1.5h-1.2c-.8 0-1.5-.4-1.9-1l-.2-.5a2 2 0 010-2.1l.6-1a2 2 0 00-2.9-2.9l-1 .6a2 2 0 01-2.2 0l-.4-.2a2 2 0 01-1-1.9V228a2 2 0 00-4-1l-.5 1c-.4.7-1.1 1-1.9 1h-.5a2 2 0 01-1.8-1l-.6-1a2 2 0 00-4 1l.1 1.2c0 .8-.4 1.5-1 1.9l-.5.2a2 2 0 01-2.1 0l-1-.6a2 2 0 00-2.9 2.9l.6 1a2 2 0 010 2.1l-.2.4c-.4.7-1.1 1.1-1.9 1.1h-1.2a2 2 0 00-1 4l1 .5c.7.4 1 1 1 1.8v.5a2 2 0 01-1 1.9l-1 .6a2 2 0 001 4l1.2-.1c.8 0 1.5.4 1.9 1l.2.4a2 2 0 010 2.2l-.6 1a2 2 0 002.9 2.9l1-.6a2 2 0 012.1 0l.4.2c.7.4 1.1 1 1.1 1.9v1.2a2 2 0 004 1l.5-1c.4-.7 1-1.1 1.8-1.1h.5a2 2 0 011.9 1l.6 1.1a2 2 0 004-1l-.1-1.2a2 2 0 011-1.9l.4-.2a2 2 0 012.2 0l1 .6a2 2 0 002.9-2.9l-.6-1a2 2 0 010-2.2l.2-.4c.4-.6 1-1 1.9-1h1.2a2 2 0 002-1.6 2 2 0 00-1-2.3zm-17.8 9a11.7 11.7 0 110-23.4 11.7 11.7 0 010 23.4z" fill="#F4D7C9"/><path d="M916.5 188.1V182l-5.6-1.5-4.4-5.2 1.2-3-34.5-39.5h-144a2.6 2.6 0 00-2.6 2.6v4.4a4 4 0 001 2.1l38.1 45.6c2.8 3.3 6.9 5.2 11.2 5.2h135.6a4 4 0 004-4.5z" fill="#B6D5D0"/><path d="M912.5 186.4H777c-4.3 0-8.4-2-11.2-5.3l-38.2-45.5a4 4 0 013-6.6h135.7c4.3 0 8.4 1.9 11.2 5.2l38.2 45.6a4 4 0 01-3 6.6z" fill="#fff"/><path d="M895.6 176.3a.9.9 0 01-.7-.3l-26.3-31.3a.9.9 0 111.4-1.2l26.3 31.4c.5.5.1 1.4-.7 1.4z" fill="#B2E5E0"/><path d="M792.6 163.3H762c-.7 0-1.4-.3-1.9-.9l-15-18a1 1 0 01.8-1.5h30.5c.7 0 1.4.4 1.8.9l15 18a1 1 0 01-.7 1.5z" fill="#DCECEB"/><path d="M777.8 176.6h-4.5c-.7 0-1.4-.3-1.9-.8l-5.5-6.6a1 1 0 01.7-1.6h4.5c.7 0 1.4.4 1.9 1l5.5 6.5a1 1 0 01-.7 1.5zM790.8 176.6h-4.5c-.7 0-1.4-.3-1.9-.8l-5.5-6.6a1 1 0 01.7-1.6h4.5c.7 0 1.4.4 1.9 1l5.5 6.5a1 1 0 01-.7 1.5zM803.8 176.6h-4.5c-.8 0-1.4-.3-1.9-.8l-5.5-6.6a1 1 0 01.7-1.6h4.5c.7 0 1.4.4 1.8 1l5.6 6.5a1 1 0 01-.7 1.5z" fill="#B2E5E0"/><path d="M828 151.5h-34.5c-.7 0-1.4-.3-1.9-.9l-5.1-6.1a1 1 0 01.7-1.6h34.4c.7 0 1.4.4 1.9.9l5.1 6.1a1 1 0 01-.7 1.6zM838.5 164H804c-.7 0-1.4-.3-1.8-.8L797 157a1 1 0 01.7-1.5h34.5c.7 0 1.4.3 1.8.9l5.2 6.1a1 1 0 01-.7 1.5zM849 176.6h-34.4c-.7 0-1.4-.3-1.9-.8l-5.1-6.2a1 1 0 01.7-1.5h34.4c.7 0 1.4.3 1.9.9l5.1 6.1a1 1 0 01-.7 1.5z" fill="#DCECEB"/><path d="M864.2 176.3a.9.9 0 01-.7-.3l-26.3-31.3a.9.9 0 111.3-1.2L865 175c.5.5 0 1.4-.7 1.4z" fill="#B2E5E0"/><path d="M844.7 150H841c-.6 0-1.4-.5-1.8-1l-1.4-1.6c-.4-.6-.4-1 .2-1h3.7c.6 0 1.4.4 1.8 1l1.4 1.6c.4.5.4 1-.2 1z" fill="#B2E5E0"/><path d="M845 149.1h-3.8c-.5 0-1.3-.4-1.8-1l-1.3-1.6c-.5-.5-.4-1 .1-1h3.8c.5 0 1.3.5 1.8 1l1.3 1.6c.5.6.4 1-.1 1z" fill="#DCECEB"/><path d="M882.9 158.1H879c-.5 0-1.3-.4-1.8-1l-1.3-1.6c-.5-.5-.4-1 .1-1h3.8c.5 0 1.3.5 1.8 1l1.3 1.6c.5.6.4 1-.1 1z" fill="#B2E5E0"/><path d="M883.1 157.2h-3.7c-.6 0-1.4-.4-1.8-1l-1.4-1.6c-.4-.5-.4-1 .2-1h3.7c.6 0 1.4.5 1.8 1l1.4 1.7c.5.5.4 1-.2 1z" fill="#DCECEB"/><path d="M880 176.3a.9.9 0 01-.6-.3L853 144.7a.9.9 0 111.4-1.2l26.3 31.4c.5.5.1 1.4-.6 1.4z" fill="#B2E5E0"/><path d="M876.3 168.7h-3.7c-.6 0-1.4-.4-1.8-1l-1.4-1.6c-.5-.5-.4-1 .1-1h3.8c.5 0 1.3.5 1.8 1l1.4 1.6c.4.6.3 1-.2 1z" fill="#B2E5E0"/><path d="M876.6 167.8h-3.8c-.5 0-1.3-.4-1.8-1l-1.4-1.6c-.4-.5-.3-1 .2-1h3.8c.5 0 1.3.5 1.8 1l1.3 1.7c.5.5.4 1-.1 1z" fill="#DCECEB"/><path d="M921 216s-2.3 6.8-10 12.7a41.1 41.1 0 01-15.6 7.2c-20.6 5-37.2 3.2-38.4 3.4-1 .2 9.3 16.5 15 26.2l2 3.3.2.4c4.7 8.5 2.2 10.6 2.2 10.6-4.8.6-11.4 6-11.4 6-10 2.6-16-13-21.6-19.6-5.6-6.5-20-26.1-13.5-36.7 6.3-10.6 63.2-24.2 63.2-24.2l5.6 2.2 10.7 4.1 11.5 4.5z" fill="#376F92"/><path d="M874 268.9l.2.3-.2-.3zM915 223.2l-4 5.5a41.1 41.1 0 01-15.6 7.2c-20.6 5-37.2 3.2-38.4 3.4-1 .2 9.3 16.5 15 26.3-3.4-4.2-9-4.8-13-13.2-5-10.1-16.8.4-19-8-2.1-8.4 6.2-7.8 18.4-13.2 12.1-5.4 14.1-3.2 25.2-5.4 11-2.2 9.3-15.7 9.3-15.7l5.8-2.6 8.1-1a1478.6 1478.6 0 008.1 16.7z" fill="#1B5175"/><path d="M879.2 283.9s5.8 4.8 6 8.5c0 3.6-12.2 16-12.2 16h-15.5s-1.7-2.6 2.6-4.4c4.3-1.8 4.8-2 6.4-3.7 1.6-1.7 3-6.3 5.6-11.1 2.5-4.9 7.1-5.3 7.1-5.3z" fill="#0C1B3C"/><path d="M885 95.7s-3.7-2.3-5-4.8c-1.1-2.5-4.2-8-4.4-9.3-.2-1.3 2.4 0 4 2.7 0 0-1-2.8-3-6.4-1.8-3.7-4.8-5.9-4-7.7.7-1.7 6.1 5 6.8 6 .6 1.2 2 0 3.6.8 1.7.9 1.7 0 3.3 1 1.7 1 3.2 3 5 12.2l-6.4 5.5zM842.1 165.5s-2-.7-5.3-4a24 24 0 00-6.4-4.8c-1-.5-2.9-1-4.7-1-1.9.2-2.9-.6-2.4-1.3.4-.6 2.1-1 2.1-1s-3.4.3-2.5-1.2c.9-1.6 5.7-1 5.7-1s1-1.1 2.3-1.1c1.2 0 1.1-1 3.7-.8 2.6.3 4 1.9 6.7 2.5 2.7.6 4.9 6.2 4.9 6.2l-4 7.5z" fill="#E9928B"/><path d="M846.2 157.4s-4.4 3.9-5.7 8l-.5 1.1 2.6 3.6 5.8-11.2-2.2-1.5zM884.5 99.1l-2.1-3.2s4-4.8 9.4-6.2L893 92l-8.6 7.1z" fill="#93405E"/><path d="M947.2 141.7l-16 8.4-2.3 1.3-2.2-1.2c-4.5-2.3-14.8-8-20-12.4-2.4-2-6.4-7-10.5-12.7-7.6-10-15.6-22-15.6-22 5.8-9 12.5-12 12.5-12s18 25.3 20.8 27.7a3807.2 3807.2 0 0033.3 22.8z" fill="#67A4C3"/><path d="M947.2 141.7l-16 8.4-4.5.1c-4.5-2.3-14.8-8-20-12.4-2.4-2-6.4-7-10.5-12.7 3.3 1.8 6.5 3.3 8.4 5 4.2 3.5 3-.9 21.3 1.7 3.7.4 6.9 1.2 9.7 2l11.6 7.9z" fill="#4F91B3"/><path d="M934.5 139.1s-13.8 8.5-13.8 3.2c0-1.8-.3-3.4-.8-4.6-.8-2.5-2-3.9-2-3.9-5 5.3-7.2 3.6-7.8 2.6-.6-1-4.6-9.4-4-12.2.6-2.8.4-4.4-.4-6.2-.9-1.7.4-5.9.4-5.9l11.7-2.5s10.8 11 11.8 14.8c.9 3.7 4.9 14.7 4.9 14.7z" fill="#E9928B"/><path d="M950 175.4c-3.5 10.8-23 46.8-33.3 47.8-4.2.4-9.6-2.3-14.5-5.7-7-4.9-13.2-11.2-13.2-11.2 9-6.3 7.8-26.4 7.8-26.4-.2.1-12.9 10.7-21.4 11.6-8.5 1-36.2-18.1-36.2-18.1s6.2-15.6 9.2-15c3 .6 22.8 13.4 26.2 13.6 3.4.2 22.6-17 27.3-21.8 4.8-4.8 23.6-12.2 36.8-12.4 0 0 8.6 1.4 11.6 7.8s3.4 19-.2 29.8z" fill="#67A4C3"/><path d="M911.8 100.2c-6.3.8-12.2 5.4-10.3 10 2 4.7 5.7 5.3 8 5.3 2.5 0 3.3 1.5 4.1 2.8.9 1.3 1.2.5 2.3-1.6 1-2.1 3.4-.6 3.5 2.2 0 2.8-.4 9.7 4.7 9.8 5 .2 6-2 6.2-2 .2 0 4.3-8.4 4-15.9 0 0 5.3-2.7 4.3-7-1-4.4-6.7-5.2-10-1.7 0 0-3 .1-5.6-1.7-2.7-1.8-6.3-2.6-8-1.6-1.6 1-1.7 1.3-3.2 1.4z" fill="#0C1B3C"/><path d="M916.3 243h-5.4V304h5.4V243z" fill="#F0D1AA"/><path d="M916.3 303.9h-2.7V243l2.7-.2v61zM934.7 308.4h-42.3a4.5 4.5 0 014.5-4.5h33.4c2.4 0 4.4 2 4.4 4.5z" fill="#EDBF84"/><path d="M921.2 308.4h-28.8a4.5 4.5 0 014.5-4.5h16.7l7.6 4.5z" fill="#F0D1AA"/><path d="M966.1 179.3a16.6 16.6 0 00-2.8 1.6l-.3.2-.3.3a23.4 23.4 0 00-2.7 2.3 28 28 0 00-1.6 1.8 21 21 0 00-1 1.3 19.6 19.6 0 00-.9 1.3l-.4.6-.1.2v.1a34.6 34.6 0 00-3.4 6.6l-.3.8-.3.7-.3 1-.3.7v.1a53.7 53.7 0 00-1.9 5.8l-.3 1-.2.8-.3 1-.2.7v.3l-.7 2.2-.5 2.2-.3.9-.7 2.8-.2.8-.4 1.4-.2.9-.9 3-.2.7-.1.5-.2.4a41.5 41.5 0 01-.9 2.6l-.2.6-.2.4v.2l-.3.5-.3.6a15.6 15.6 0 01-.5 1.2l-.3.4-.1.2-.2.3c-7.5 12.2-28.9 11.8-28.9 11.8H881c-7.4 0-7.5-7.5.9-8.1 8.4-.6 24.7-10.3 32-31.7a56 56 0 0111.1-20 15 15 0 0111-4.9h30c.5 0 .7.7.2 1z" fill="#F4C8AF"/><path d="M965 179.9l-.3.2a8.9 8.9 0 00-.7.4l-.3.2a6.3 6.3 0 00-.7.4 25 25 0 00-3 2.6l-.6.6a19.2 19.2 0 00-1 1.2l-.5.6-.5.7-.4.6-.5.7-.4.6-.1.2v.1a34.6 34.6 0 00-2 3.5l-.3.7a53 53 0 00-1.4 3.2l-.3.7-.3 1-.3.7v.1a42.9 42.9 0 00-.9 2.5l-.2.8a52 52 0 01-.8 2.5l-.3 1-.2.8-.3 1-.2.7v.3l-.7 2.2-.5 2.2-.3.9-.7 2.8-.2.8-.4 1.4-.2.9-.9 3-.2.7-.1.5-.2.4a41.5 41.5 0 01-.9 2.6l-.2.6-.2.4v.2l-.3.5-.3.6a16.6 16.6 0 01-.4 1l-.1.2-.3.4-.3.5c-7.5 12.2-28.9 11.8-28.9 11.8H883c-2.1-1.6-1.1-4.1 4.5-4.5 8.4-.6 26.5-12.5 33.9-33.8a56 56 0 0111-20.2 15 15 0 0111-4.7H965z" fill="#F7DFD3"/><path d="M955.9 189a34.6 34.6 0 00-1.9 3.5l-.3.7a57.2 57.2 0 00-1.4 3.2l-.3.7-.3 1-.3.8a42.9 42.9 0 00-.9 2.5c0 .3-.2.5-.3.8a64.1 64.1 0 01-.7 2.5l-.3 1-.2.8-.3 1-.2.7v.3l-.7 2.2-.5 2.2-.3.9-.7 2.8-.2.8-.4 1.4a45.2 45.2 0 01-1 4l-.3.6-.1.5-.2.4a45.6 45.6 0 01-.9 2.5v.1l-.2.6-.2.4v.2l-.3.5a79.6 79.6 0 01-.8 1.6v.2l-.3.4-.1.2-.2.3c-7.5 12.2-28.9 11.8-28.9 11.8H902c1.1 0 21.2-1 28.3-31 4.8-20.3 18-21.5 25.7-23z" fill="#F4C8AF"/><path d="M739.8 242.8v-20.5c0-6.4-5.2-11.6-11.6-11.6h-14.6v97.6H763V266c0-6.4-5.2-11.6-11.6-11.6-6.4 0-11.6-5.2-11.6-11.6z" fill="#DCECEB"/><path d="M736.7 283.5A63 63 0 00718 262c-8.7-6.9-20.2-6.9-24.9-9.1-4.7-2.2-4.8 4-3.3 9.7 1.4 5.8-3 32.4 23.6 40.8 26.7 8.5 26.6-13.6 23.3-19.9z" fill="#F2D6C8"/><path d="M719.9 289.3a.4.4 0 01-.4-.4 36.6 36.6 0 013.4-18.8.4.4 0 01.7.4s-4.6 9.2-3.3 18.3c0 .2-.2.4-.4.5zM720 290.3h-.3a47 47 0 00-21.8-2.7.4.4 0 01-.1-.8c.6 0 14.2-1.5 22.3 2.8.2 0 .3.3.2.5l-.4.2z" fill="#F5B89B"/><path d="M722.4 298a.4.4 0 01-.4-.3c-5.7-23.7-28.3-40.3-28.6-40.5a.4.4 0 11.5-.7c.2.2 23.1 17 28.9 41a.4.4 0 01-.4.5z" fill="#F5B89B"/><path d="M711.7 275.8h-.2c-5.2-4.2-17.7-3.1-17.8-3.1a.4.4 0 01-.5-.4c0-.2.2-.4.4-.4.5 0 13-1.1 18.4 3.2.1.1.2.4 0 .6l-.3.1zM707.6 270.6c-.2 0-.3-.1-.4-.3-1.6-3.8-.8-10.4-.7-10.6 0-.3.2-.4.4-.4s.4.2.4.5c0 0-1 6.5.6 10.2a.4.4 0 01-.3.6z" fill="#F5B89B"/><path d="M667 308.2c-.7-8 6.5-20 29.7-12.2 0 0 5.9-18.3 22-17.7 16 .6 21.2 15.7 21.2 15.7s21.7-2.6 24.7 15.7c0 0-96.4 10-97.5-1.5z" fill="#ADCCC7"/><path d="M715.2 309.6l-.8-.1c2-13-6-22.3-6-22.4l.5-.5c.1 0 8.4 9.6 6.3 23z" fill="#6EAB9C"/><path d="M715.4 301.6l-.6-.5s7.4-8.9 8.7-14.4l.8.2a49.6 49.6 0 01-8.9 14.7zM715 306.3c-5.7-.4-10.7-6.3-11-6.5l.7-.5s5 5.9 10.4 6.2v.8zM733.2 310l-.5-.6c.4-.4 10.2-8.8 15.3-9v.9c-4.8.1-14.7 8.6-14.8 8.7z" fill="#6EAB9C"/><path d="M752.4 308.4c-.1 0-8-.5-14.3-2.2l.2-.7c6.3 1.6 14 2 14.1 2v.9zM694.1 309.5c-5.1-4.3-16-7.7-16.1-7.7l.2-.8a60 60 0 0116.4 8l-.5.5z" fill="#6EAB9C"/><path d="M690.1 306.2h-.8c.1-4.4-1.8-7.8-1.8-7.8l.7-.4c0 .1 2 3.6 1.9 8.2z" fill="#6EAB9C"/><path d="M876.6 308.4H869s6.1-3.1 8.1-9.4c1.4-4.5 3.8-8.9 6.7-7.8 3 1 .6 6-1 8.9-2.2 4-6.2 8.3-6.2 8.3z" fill="#408C91"/><path d="M729.2 210.7H728v-48.5c0-4.2 3.4-7.5 7.5-7.5h5v1.2h-5a6.3 6.3 0 00-6.3 6.3v48.5z" fill="#3FB8A9"/><path d="M734 211.2H733v-48.5c0-2 1.5-3.5 3.5-3.5h8.7v1.2h-8.7c-1.3 0-2.3 1-2.3 2.3v48.5z" fill="#3FB8A9"/><path d="M902 216l.2 1.5c-7-4.9-13.2-11.2-13.2-11.2 9-6.3 7.8-26.4 7.8-26.4s10.1-8.9 11.5-6.7c1.4 2.1-3.6 14.4 0 19.4 3.6 5-9.3 15.3-6.4 23.5z" fill="#4F91B3"/><path d="M920 137.7c-1-2.5-2.1-3.9-2.1-3.9s1.8-2.2 2-5c0 0 2.5 5.5 0 8.9z" fill="#DE6667"/><path d="M819.2 74.6A10.1 10.1 0 10806 59.3a10.1 10.1 0 0013.3 15.3zM877.6 57h-45v3h45v-3zM877.6 65.6h-45v3h45v-3zM857.5 74.1h-24.8v3h24.8v-3z" fill="#fff"/><path d="M733.9 238.5a1.9 1.9 0 11-3.8 0 1.9 1.9 0 013.8 0zM732 231.4a1.9 1.9 0 100-3.8 1.9 1.9 0 000 3.8zM732 222.5a1.9 1.9 0 100-3.8 1.9 1.9 0 000 3.8z" fill="#B6D5D0"/><path d="M920 141.3s.2-1.6 1.7-2.6 11-5.2 13.5-.7l-15.3 3.3z" fill="#93405E"/></svg>